<?xml version="1.0" encoding="utf-8" standalone="no"?>
<!DOCTYPE svg PUBLIC "-//W3C//DTD SVG 1.1//EN"
  "http://www.w3.org/Graphics/SVG/1.1/DTD/svg11.dtd">
<svg xmlns:xlink="http://www.w3.org/1999/xlink" width="460.8pt" height="345.6pt" viewBox="0 0 460.8 345.6" xmlns="http://www.w3.org/2000/svg" version="1.1">
 <metadata>
  <rdf:RDF xmlns:dc="http://purl.org/dc/elements/1.1/" xmlns:cc="http://creativecommons.org/ns#" xmlns:rdf="http://www.w3.org/1999/02/22-rdf-syntax-ns#">
   <cc:Work>
    <dc:type rdf:resource="http://purl.org/dc/dcmitype/StillImage"/>
    <dc:date>2022-08-03T18:25:49.718074</dc:date>
    <dc:format>image/svg+xml</dc:format>
    <dc:creator>
     <cc:Agent>
      <dc:title>Matplotlib v3.5.2, https://matplotlib.org/</dc:title>
     </cc:Agent>
    </dc:creator>
   </cc:Work>
  </rdf:RDF>
 </metadata>
 <defs>
  <style type="text/css">*{stroke-linejoin: round; stroke-linecap: butt}</style>
 </defs>
 <g id="figure_1">
  <g id="patch_1">
   <path d="M 0 345.6 
L 460.8 345.6 
L 460.8 0 
L 0 0 
z
" style="fill: #ffffff"/>
  </g>
  <g id="axes_1">
   <g id="patch_2">
    <path d="M 57.6 307.584 
L 414.72 307.584 
L 414.72 41.472 
L 57.6 41.472 
z
" style="fill: #ffffff"/>
   </g>
   <g id="matplotlib.axis_1">
    <g id="xtick_1">
     <g id="text_1">
      <!-- 1 -->
      <g style="fill: #262626" transform="translate(90.13075 322.182437)scale(0.1 -0.1)">
       <defs>
        <path id="DejaVuSans-31" d="M 794 531 
L 1825 531 
L 1825 4091 
L 703 3866 
L 703 4441 
L 1819 4666 
L 2450 4666 
L 2450 531 
L 3481 531 
L 3481 0 
L 794 0 
L 794 531 
z
" transform="scale(0.015625)"/>
       </defs>
       <use xlink:href="#DejaVuSans-31"/>
      </g>
     </g>
    </g>
    <g id="xtick_2">
     <g id="text_2">
      <!-- 2 -->
      <g style="fill: #262626" transform="translate(161.55475 322.182437)scale(0.1 -0.1)">
       <defs>
        <path id="DejaVuSans-32" d="M 1228 531 
L 3431 531 
L 3431 0 
L 469 0 
L 469 531 
Q 828 903 1448 1529 
Q 2069 2156 2228 2338 
Q 2531 2678 2651 2914 
Q 2772 3150 2772 3378 
Q 2772 3750 2511 3984 
Q 2250 4219 1831 4219 
Q 1534 4219 1204 4116 
Q 875 4013 500 3803 
L 500 4441 
Q 881 4594 1212 4672 
Q 1544 4750 1819 4750 
Q 2544 4750 2975 4387 
Q 3406 4025 3406 3419 
Q 3406 3131 3298 2873 
Q 3191 2616 2906 2266 
Q 2828 2175 2409 1742 
Q 1991 1309 1228 531 
z
" transform="scale(0.015625)"/>
       </defs>
       <use xlink:href="#DejaVuSans-32"/>
      </g>
     </g>
    </g>
    <g id="xtick_3">
     <g id="text_3">
      <!-- 3 -->
      <g style="fill: #262626" transform="translate(232.97875 322.182437)scale(0.1 -0.1)">
       <defs>
        <path id="DejaVuSans-33" d="M 2597 2516 
Q 3050 2419 3304 2112 
Q 3559 1806 3559 1356 
Q 3559 666 3084 287 
Q 2609 -91 1734 -91 
Q 1441 -91 1130 -33 
Q 819 25 488 141 
L 488 750 
Q 750 597 1062 519 
Q 1375 441 1716 441 
Q 2309 441 2620 675 
Q 2931 909 2931 1356 
Q 2931 1769 2642 2001 
Q 2353 2234 1838 2234 
L 1294 2234 
L 1294 2753 
L 1863 2753 
Q 2328 2753 2575 2939 
Q 2822 3125 2822 3475 
Q 2822 3834 2567 4026 
Q 2313 4219 1838 4219 
Q 1578 4219 1281 4162 
Q 984 4106 628 3988 
L 628 4550 
Q 988 4650 1302 4700 
Q 1616 4750 1894 4750 
Q 2613 4750 3031 4423 
Q 3450 4097 3450 3541 
Q 3450 3153 3228 2886 
Q 3006 2619 2597 2516 
z
" transform="scale(0.015625)"/>
       </defs>
       <use xlink:href="#DejaVuSans-33"/>
      </g>
     </g>
    </g>
    <g id="xtick_4">
     <g id="text_4">
      <!-- 4 -->
      <g style="fill: #262626" transform="translate(304.40275 322.182437)scale(0.1 -0.1)">
       <defs>
        <path id="DejaVuSans-34" d="M 2419 4116 
L 825 1625 
L 2419 1625 
L 2419 4116 
z
M 2253 4666 
L 3047 4666 
L 3047 1625 
L 3713 1625 
L 3713 1100 
L 3047 1100 
L 3047 0 
L 2419 0 
L 2419 1100 
L 313 1100 
L 313 1709 
L 2253 4666 
z
" transform="scale(0.015625)"/>
       </defs>
       <use xlink:href="#DejaVuSans-34"/>
      </g>
     </g>
    </g>
    <g id="xtick_5">
     <g id="text_5">
      <!-- 5 -->
      <g style="fill: #262626" transform="translate(375.82675 322.182437)scale(0.1 -0.1)">
       <defs>
        <path id="DejaVuSans-35" d="M 691 4666 
L 3169 4666 
L 3169 4134 
L 1269 4134 
L 1269 2991 
Q 1406 3038 1543 3061 
Q 1681 3084 1819 3084 
Q 2600 3084 3056 2656 
Q 3513 2228 3513 1497 
Q 3513 744 3044 326 
Q 2575 -91 1722 -91 
Q 1428 -91 1123 -41 
Q 819 9 494 109 
L 494 744 
Q 775 591 1075 516 
Q 1375 441 1709 441 
Q 2250 441 2565 725 
Q 2881 1009 2881 1497 
Q 2881 1984 2565 2268 
Q 2250 2553 1709 2553 
Q 1456 2553 1204 2497 
Q 953 2441 691 2322 
L 691 4666 
z
" transform="scale(0.015625)"/>
       </defs>
       <use xlink:href="#DejaVuSans-35"/>
      </g>
     </g>
    </g>
    <g id="text_6">
     <!-- number of ministries -->
     <g style="fill: #262626" transform="translate(184.140469 335.860562)scale(0.1 -0.1)">
      <defs>
       <path id="DejaVuSans-6e" d="M 3513 2113 
L 3513 0 
L 2938 0 
L 2938 2094 
Q 2938 2591 2744 2837 
Q 2550 3084 2163 3084 
Q 1697 3084 1428 2787 
Q 1159 2491 1159 1978 
L 1159 0 
L 581 0 
L 581 3500 
L 1159 3500 
L 1159 2956 
Q 1366 3272 1645 3428 
Q 1925 3584 2291 3584 
Q 2894 3584 3203 3211 
Q 3513 2838 3513 2113 
z
" transform="scale(0.015625)"/>
       <path id="DejaVuSans-75" d="M 544 1381 
L 544 3500 
L 1119 3500 
L 1119 1403 
Q 1119 906 1312 657 
Q 1506 409 1894 409 
Q 2359 409 2629 706 
Q 2900 1003 2900 1516 
L 2900 3500 
L 3475 3500 
L 3475 0 
L 2900 0 
L 2900 538 
Q 2691 219 2414 64 
Q 2138 -91 1772 -91 
Q 1169 -91 856 284 
Q 544 659 544 1381 
z
M 1991 3584 
L 1991 3584 
z
" transform="scale(0.015625)"/>
       <path id="DejaVuSans-6d" d="M 3328 2828 
Q 3544 3216 3844 3400 
Q 4144 3584 4550 3584 
Q 5097 3584 5394 3201 
Q 5691 2819 5691 2113 
L 5691 0 
L 5113 0 
L 5113 2094 
Q 5113 2597 4934 2840 
Q 4756 3084 4391 3084 
Q 3944 3084 3684 2787 
Q 3425 2491 3425 1978 
L 3425 0 
L 2847 0 
L 2847 2094 
Q 2847 2600 2669 2842 
Q 2491 3084 2119 3084 
Q 1678 3084 1418 2786 
Q 1159 2488 1159 1978 
L 1159 0 
L 581 0 
L 581 3500 
L 1159 3500 
L 1159 2956 
Q 1356 3278 1631 3431 
Q 1906 3584 2284 3584 
Q 2666 3584 2933 3390 
Q 3200 3197 3328 2828 
z
" transform="scale(0.015625)"/>
       <path id="DejaVuSans-62" d="M 3116 1747 
Q 3116 2381 2855 2742 
Q 2594 3103 2138 3103 
Q 1681 3103 1420 2742 
Q 1159 2381 1159 1747 
Q 1159 1113 1420 752 
Q 1681 391 2138 391 
Q 2594 391 2855 752 
Q 3116 1113 3116 1747 
z
M 1159 2969 
Q 1341 3281 1617 3432 
Q 1894 3584 2278 3584 
Q 2916 3584 3314 3078 
Q 3713 2572 3713 1747 
Q 3713 922 3314 415 
Q 2916 -91 2278 -91 
Q 1894 -91 1617 61 
Q 1341 213 1159 525 
L 1159 0 
L 581 0 
L 581 4863 
L 1159 4863 
L 1159 2969 
z
" transform="scale(0.015625)"/>
       <path id="DejaVuSans-65" d="M 3597 1894 
L 3597 1613 
L 953 1613 
Q 991 1019 1311 708 
Q 1631 397 2203 397 
Q 2534 397 2845 478 
Q 3156 559 3463 722 
L 3463 178 
Q 3153 47 2828 -22 
Q 2503 -91 2169 -91 
Q 1331 -91 842 396 
Q 353 884 353 1716 
Q 353 2575 817 3079 
Q 1281 3584 2069 3584 
Q 2775 3584 3186 3129 
Q 3597 2675 3597 1894 
z
M 3022 2063 
Q 3016 2534 2758 2815 
Q 2500 3097 2075 3097 
Q 1594 3097 1305 2825 
Q 1016 2553 972 2059 
L 3022 2063 
z
" transform="scale(0.015625)"/>
       <path id="DejaVuSans-72" d="M 2631 2963 
Q 2534 3019 2420 3045 
Q 2306 3072 2169 3072 
Q 1681 3072 1420 2755 
Q 1159 2438 1159 1844 
L 1159 0 
L 581 0 
L 581 3500 
L 1159 3500 
L 1159 2956 
Q 1341 3275 1631 3429 
Q 1922 3584 2338 3584 
Q 2397 3584 2469 3576 
Q 2541 3569 2628 3553 
L 2631 2963 
z
" transform="scale(0.015625)"/>
       <path id="DejaVuSans-20" transform="scale(0.015625)"/>
       <path id="DejaVuSans-6f" d="M 1959 3097 
Q 1497 3097 1228 2736 
Q 959 2375 959 1747 
Q 959 1119 1226 758 
Q 1494 397 1959 397 
Q 2419 397 2687 759 
Q 2956 1122 2956 1747 
Q 2956 2369 2687 2733 
Q 2419 3097 1959 3097 
z
M 1959 3584 
Q 2709 3584 3137 3096 
Q 3566 2609 3566 1747 
Q 3566 888 3137 398 
Q 2709 -91 1959 -91 
Q 1206 -91 779 398 
Q 353 888 353 1747 
Q 353 2609 779 3096 
Q 1206 3584 1959 3584 
z
" transform="scale(0.015625)"/>
       <path id="DejaVuSans-66" d="M 2375 4863 
L 2375 4384 
L 1825 4384 
Q 1516 4384 1395 4259 
Q 1275 4134 1275 3809 
L 1275 3500 
L 2222 3500 
L 2222 3053 
L 1275 3053 
L 1275 0 
L 697 0 
L 697 3053 
L 147 3053 
L 147 3500 
L 697 3500 
L 697 3744 
Q 697 4328 969 4595 
Q 1241 4863 1831 4863 
L 2375 4863 
z
" transform="scale(0.015625)"/>
       <path id="DejaVuSans-69" d="M 603 3500 
L 1178 3500 
L 1178 0 
L 603 0 
L 603 3500 
z
M 603 4863 
L 1178 4863 
L 1178 4134 
L 603 4134 
L 603 4863 
z
" transform="scale(0.015625)"/>
       <path id="DejaVuSans-73" d="M 2834 3397 
L 2834 2853 
Q 2591 2978 2328 3040 
Q 2066 3103 1784 3103 
Q 1356 3103 1142 2972 
Q 928 2841 928 2578 
Q 928 2378 1081 2264 
Q 1234 2150 1697 2047 
L 1894 2003 
Q 2506 1872 2764 1633 
Q 3022 1394 3022 966 
Q 3022 478 2636 193 
Q 2250 -91 1575 -91 
Q 1294 -91 989 -36 
Q 684 19 347 128 
L 347 722 
Q 666 556 975 473 
Q 1284 391 1588 391 
Q 1994 391 2212 530 
Q 2431 669 2431 922 
Q 2431 1156 2273 1281 
Q 2116 1406 1581 1522 
L 1381 1569 
Q 847 1681 609 1914 
Q 372 2147 372 2553 
Q 372 3047 722 3315 
Q 1072 3584 1716 3584 
Q 2034 3584 2315 3537 
Q 2597 3491 2834 3397 
z
" transform="scale(0.015625)"/>
       <path id="DejaVuSans-74" d="M 1172 4494 
L 1172 3500 
L 2356 3500 
L 2356 3053 
L 1172 3053 
L 1172 1153 
Q 1172 725 1289 603 
Q 1406 481 1766 481 
L 2356 481 
L 2356 0 
L 1766 0 
Q 1100 0 847 248 
Q 594 497 594 1153 
L 594 3053 
L 172 3053 
L 172 3500 
L 594 3500 
L 594 4494 
L 1172 4494 
z
" transform="scale(0.015625)"/>
      </defs>
      <use xlink:href="#DejaVuSans-6e"/>
      <use xlink:href="#DejaVuSans-75" x="63.378906"/>
      <use xlink:href="#DejaVuSans-6d" x="126.757812"/>
      <use xlink:href="#DejaVuSans-62" x="224.169922"/>
      <use xlink:href="#DejaVuSans-65" x="287.646484"/>
      <use xlink:href="#DejaVuSans-72" x="349.169922"/>
      <use xlink:href="#DejaVuSans-20" x="390.283203"/>
      <use xlink:href="#DejaVuSans-6f" x="422.070312"/>
      <use xlink:href="#DejaVuSans-66" x="483.251953"/>
      <use xlink:href="#DejaVuSans-20" x="518.457031"/>
      <use xlink:href="#DejaVuSans-6d" x="550.244141"/>
      <use xlink:href="#DejaVuSans-69" x="647.65625"/>
      <use xlink:href="#DejaVuSans-6e" x="675.439453"/>
      <use xlink:href="#DejaVuSans-69" x="738.818359"/>
      <use xlink:href="#DejaVuSans-73" x="766.601562"/>
      <use xlink:href="#DejaVuSans-74" x="818.701172"/>
      <use xlink:href="#DejaVuSans-72" x="857.910156"/>
      <use xlink:href="#DejaVuSans-69" x="899.023438"/>
      <use xlink:href="#DejaVuSans-65" x="926.806641"/>
      <use xlink:href="#DejaVuSans-73" x="988.330078"/>
     </g>
    </g>
   </g>
   <g id="matplotlib.axis_2">
    <g id="ytick_1">
     <g id="line2d_1">
      <path d="M 57.6 303.637208 
L 414.72 303.637208 
" clip-path="url(#p8955bc4874)" style="fill: none; stroke: #cccccc; stroke-width: 0.8; stroke-linecap: round"/>
     </g>
     <g id="text_7">
      <!-- 0.00 -->
      <g style="fill: #262626" transform="translate(28.334375 307.436427)scale(0.1 -0.1)">
       <defs>
        <path id="DejaVuSans-30" d="M 2034 4250 
Q 1547 4250 1301 3770 
Q 1056 3291 1056 2328 
Q 1056 1369 1301 889 
Q 1547 409 2034 409 
Q 2525 409 2770 889 
Q 3016 1369 3016 2328 
Q 3016 3291 2770 3770 
Q 2525 4250 2034 4250 
z
M 2034 4750 
Q 2819 4750 3233 4129 
Q 3647 3509 3647 2328 
Q 3647 1150 3233 529 
Q 2819 -91 2034 -91 
Q 1250 -91 836 529 
Q 422 1150 422 2328 
Q 422 3509 836 4129 
Q 1250 4750 2034 4750 
z
" transform="scale(0.015625)"/>
        <path id="DejaVuSans-2e" d="M 684 794 
L 1344 794 
L 1344 0 
L 684 0 
L 684 794 
z
" transform="scale(0.015625)"/>
       </defs>
       <use xlink:href="#DejaVuSans-30"/>
       <use xlink:href="#DejaVuSans-2e" x="63.623047"/>
       <use xlink:href="#DejaVuSans-30" x="95.410156"/>
       <use xlink:href="#DejaVuSans-30" x="159.033203"/>
      </g>
     </g>
    </g>
    <g id="ytick_2">
     <g id="line2d_2">
      <path d="M 57.6 271.604158 
L 414.72 271.604158 
" clip-path="url(#p8955bc4874)" style="fill: none; stroke: #cccccc; stroke-width: 0.8; stroke-linecap: round"/>
     </g>
     <g id="text_8">
      <!-- 0.25 -->
      <g style="fill: #262626" transform="translate(28.334375 275.403377)scale(0.1 -0.1)">
       <use xlink:href="#DejaVuSans-30"/>
       <use xlink:href="#DejaVuSans-2e" x="63.623047"/>
       <use xlink:href="#DejaVuSans-32" x="95.410156"/>
       <use xlink:href="#DejaVuSans-35" x="159.033203"/>
      </g>
     </g>
    </g>
    <g id="ytick_3">
     <g id="line2d_3">
      <path d="M 57.6 239.571108 
L 414.72 239.571108 
" clip-path="url(#p8955bc4874)" style="fill: none; stroke: #cccccc; stroke-width: 0.8; stroke-linecap: round"/>
     </g>
     <g id="text_9">
      <!-- 0.50 -->
      <g style="fill: #262626" transform="translate(28.334375 243.370327)scale(0.1 -0.1)">
       <use xlink:href="#DejaVuSans-30"/>
       <use xlink:href="#DejaVuSans-2e" x="63.623047"/>
       <use xlink:href="#DejaVuSans-35" x="95.410156"/>
       <use xlink:href="#DejaVuSans-30" x="159.033203"/>
      </g>
     </g>
    </g>
    <g id="ytick_4">
     <g id="line2d_4">
      <path d="M 57.6 207.538058 
L 414.72 207.538058 
" clip-path="url(#p8955bc4874)" style="fill: none; stroke: #cccccc; stroke-width: 0.8; stroke-linecap: round"/>
     </g>
     <g id="text_10">
      <!-- 0.75 -->
      <g style="fill: #262626" transform="translate(28.334375 211.337277)scale(0.1 -0.1)">
       <defs>
        <path id="DejaVuSans-37" d="M 525 4666 
L 3525 4666 
L 3525 4397 
L 1831 0 
L 1172 0 
L 2766 4134 
L 525 4134 
L 525 4666 
z
" transform="scale(0.015625)"/>
       </defs>
       <use xlink:href="#DejaVuSans-30"/>
       <use xlink:href="#DejaVuSans-2e" x="63.623047"/>
       <use xlink:href="#DejaVuSans-37" x="95.410156"/>
       <use xlink:href="#DejaVuSans-35" x="159.033203"/>
      </g>
     </g>
    </g>
    <g id="ytick_5">
     <g id="line2d_5">
      <path d="M 57.6 175.505008 
L 414.72 175.505008 
" clip-path="url(#p8955bc4874)" style="fill: none; stroke: #cccccc; stroke-width: 0.8; stroke-linecap: round"/>
     </g>
     <g id="text_11">
      <!-- 1.00 -->
      <g style="fill: #262626" transform="translate(28.334375 179.304227)scale(0.1 -0.1)">
       <use xlink:href="#DejaVuSans-31"/>
       <use xlink:href="#DejaVuSans-2e" x="63.623047"/>
       <use xlink:href="#DejaVuSans-30" x="95.410156"/>
       <use xlink:href="#DejaVuSans-30" x="159.033203"/>
      </g>
     </g>
    </g>
    <g id="ytick_6">
     <g id="line2d_6">
      <path d="M 57.6 143.471958 
L 414.72 143.471958 
" clip-path="url(#p8955bc4874)" style="fill: none; stroke: #cccccc; stroke-width: 0.8; stroke-linecap: round"/>
     </g>
     <g id="text_12">
      <!-- 1.25 -->
      <g style="fill: #262626" transform="translate(28.334375 147.271177)scale(0.1 -0.1)">
       <use xlink:href="#DejaVuSans-31"/>
       <use xlink:href="#DejaVuSans-2e" x="63.623047"/>
       <use xlink:href="#DejaVuSans-32" x="95.410156"/>
       <use xlink:href="#DejaVuSans-35" x="159.033203"/>
      </g>
     </g>
    </g>
    <g id="ytick_7">
     <g id="line2d_7">
      <path d="M 57.6 111.438908 
L 414.72 111.438908 
" clip-path="url(#p8955bc4874)" style="fill: none; stroke: #cccccc; stroke-width: 0.8; stroke-linecap: round"/>
     </g>
     <g id="text_13">
      <!-- 1.50 -->
      <g style="fill: #262626" transform="translate(28.334375 115.238127)scale(0.1 -0.1)">
       <use xlink:href="#DejaVuSans-31"/>
       <use xlink:href="#DejaVuSans-2e" x="63.623047"/>
       <use xlink:href="#DejaVuSans-35" x="95.410156"/>
       <use xlink:href="#DejaVuSans-30" x="159.033203"/>
      </g>
     </g>
    </g>
    <g id="ytick_8">
     <g id="line2d_8">
      <path d="M 57.6 79.405858 
L 414.72 79.405858 
" clip-path="url(#p8955bc4874)" style="fill: none; stroke: #cccccc; stroke-width: 0.8; stroke-linecap: round"/>
     </g>
     <g id="text_14">
      <!-- 1.75 -->
      <g style="fill: #262626" transform="translate(28.334375 83.205077)scale(0.1 -0.1)">
       <use xlink:href="#DejaVuSans-31"/>
       <use xlink:href="#DejaVuSans-2e" x="63.623047"/>
       <use xlink:href="#DejaVuSans-37" x="95.410156"/>
       <use xlink:href="#DejaVuSans-35" x="159.033203"/>
      </g>
     </g>
    </g>
    <g id="ytick_9">
     <g id="line2d_9">
      <path d="M 57.6 47.372808 
L 414.72 47.372808 
" clip-path="url(#p8955bc4874)" style="fill: none; stroke: #cccccc; stroke-width: 0.8; stroke-linecap: round"/>
     </g>
     <g id="text_15">
      <!-- 2.00 -->
      <g style="fill: #262626" transform="translate(28.334375 51.172027)scale(0.1 -0.1)">
       <use xlink:href="#DejaVuSans-32"/>
       <use xlink:href="#DejaVuSans-2e" x="63.623047"/>
       <use xlink:href="#DejaVuSans-30" x="95.410156"/>
       <use xlink:href="#DejaVuSans-30" x="159.033203"/>
      </g>
     </g>
    </g>
    <g id="text_16">
     <!-- ls duration (ms) -->
     <g style="fill: #262626" transform="translate(22.254687 214.116281)rotate(-90)scale(0.1 -0.1)">
      <defs>
       <path id="DejaVuSans-6c" d="M 603 4863 
L 1178 4863 
L 1178 0 
L 603 0 
L 603 4863 
z
" transform="scale(0.015625)"/>
       <path id="DejaVuSans-64" d="M 2906 2969 
L 2906 4863 
L 3481 4863 
L 3481 0 
L 2906 0 
L 2906 525 
Q 2725 213 2448 61 
Q 2172 -91 1784 -91 
Q 1150 -91 751 415 
Q 353 922 353 1747 
Q 353 2572 751 3078 
Q 1150 3584 1784 3584 
Q 2172 3584 2448 3432 
Q 2725 3281 2906 2969 
z
M 947 1747 
Q 947 1113 1208 752 
Q 1469 391 1925 391 
Q 2381 391 2643 752 
Q 2906 1113 2906 1747 
Q 2906 2381 2643 2742 
Q 2381 3103 1925 3103 
Q 1469 3103 1208 2742 
Q 947 2381 947 1747 
z
" transform="scale(0.015625)"/>
       <path id="DejaVuSans-61" d="M 2194 1759 
Q 1497 1759 1228 1600 
Q 959 1441 959 1056 
Q 959 750 1161 570 
Q 1363 391 1709 391 
Q 2188 391 2477 730 
Q 2766 1069 2766 1631 
L 2766 1759 
L 2194 1759 
z
M 3341 1997 
L 3341 0 
L 2766 0 
L 2766 531 
Q 2569 213 2275 61 
Q 1981 -91 1556 -91 
Q 1019 -91 701 211 
Q 384 513 384 1019 
Q 384 1609 779 1909 
Q 1175 2209 1959 2209 
L 2766 2209 
L 2766 2266 
Q 2766 2663 2505 2880 
Q 2244 3097 1772 3097 
Q 1472 3097 1187 3025 
Q 903 2953 641 2809 
L 641 3341 
Q 956 3463 1253 3523 
Q 1550 3584 1831 3584 
Q 2591 3584 2966 3190 
Q 3341 2797 3341 1997 
z
" transform="scale(0.015625)"/>
       <path id="DejaVuSans-28" d="M 1984 4856 
Q 1566 4138 1362 3434 
Q 1159 2731 1159 2009 
Q 1159 1288 1364 580 
Q 1569 -128 1984 -844 
L 1484 -844 
Q 1016 -109 783 600 
Q 550 1309 550 2009 
Q 550 2706 781 3412 
Q 1013 4119 1484 4856 
L 1984 4856 
z
" transform="scale(0.015625)"/>
       <path id="DejaVuSans-29" d="M 513 4856 
L 1013 4856 
Q 1481 4119 1714 3412 
Q 1947 2706 1947 2009 
Q 1947 1309 1714 600 
Q 1481 -109 1013 -844 
L 513 -844 
Q 928 -128 1133 580 
Q 1338 1288 1338 2009 
Q 1338 2731 1133 3434 
Q 928 4138 513 4856 
z
" transform="scale(0.015625)"/>
      </defs>
      <use xlink:href="#DejaVuSans-6c"/>
      <use xlink:href="#DejaVuSans-73" x="27.783203"/>
      <use xlink:href="#DejaVuSans-20" x="79.882812"/>
      <use xlink:href="#DejaVuSans-64" x="111.669922"/>
      <use xlink:href="#DejaVuSans-75" x="175.146484"/>
      <use xlink:href="#DejaVuSans-72" x="238.525391"/>
      <use xlink:href="#DejaVuSans-61" x="279.638672"/>
      <use xlink:href="#DejaVuSans-74" x="340.917969"/>
      <use xlink:href="#DejaVuSans-69" x="380.126953"/>
      <use xlink:href="#DejaVuSans-6f" x="407.910156"/>
      <use xlink:href="#DejaVuSans-6e" x="469.091797"/>
      <use xlink:href="#DejaVuSans-20" x="532.470703"/>
      <use xlink:href="#DejaVuSans-28" x="564.257812"/>
      <use xlink:href="#DejaVuSans-6d" x="603.271484"/>
      <use xlink:href="#DejaVuSans-73" x="700.683594"/>
      <use xlink:href="#DejaVuSans-29" x="752.783203"/>
     </g>
    </g>
   </g>
   <g id="patch_3">
    <path d="M 93.312 303.637208 
L 93.312 303.637208 
L 93.312 303.637208 
L 93.312 303.637208 
z
" clip-path="url(#p8955bc4874)" style="fill: #3274a1; stroke: #3f3f3f; stroke-width: 0.15; stroke-linejoin: miter"/>
   </g>
   <g id="PolyCollection_1">
    <defs>
     <path id="m45bdaddbd3" d="M 79.031249 -51.162684 
L 79.023151 -51.162684 
L 79.00288 -52.206197 
L 78.842404 -53.249709 
L 78.212514 -54.293222 
L 77.734493 -55.336734 
L 77.52785 -56.380247 
L 76.711911 -57.423759 
L 74.67124 -58.467272 
L 70.548551 -59.510784 
L 64.7424 -60.554297 
L 66.113828 -61.597809 
L 69.210892 -62.641322 
L 70.227383 -63.684834 
L 69.63888 -64.728347 
L 68.306069 -65.771859 
L 67.457526 -66.815372 
L 69.613874 -67.858884 
L 71.981126 -68.902397 
L 73.941601 -69.945909 
L 75.034866 -70.989422 
L 75.64834 -72.032934 
L 76.183551 -73.076447 
L 76.783482 -74.119959 
L 77.211095 -75.163472 
L 77.33185 -76.206984 
L 77.45872 -77.250497 
L 77.467436 -78.29401 
L 77.179088 -79.337522 
L 76.997525 -80.381035 
L 76.938687 -81.424547 
L 76.986041 -82.46806 
L 77.042582 -83.511572 
L 76.981151 -84.555085 
L 77.045279 -85.598597 
L 77.002397 -86.64211 
L 77.330524 -87.685622 
L 77.62358 -88.729135 
L 77.794504 -89.772647 
L 77.910433 -90.81616 
L 78.044756 -91.859672 
L 78.248266 -92.903185 
L 78.352048 -93.946697 
L 78.480001 -94.99021 
L 78.594621 -96.033722 
L 78.659376 -97.077235 
L 78.745618 -98.120747 
L 78.785074 -99.16426 
L 78.859852 -100.207772 
L 78.865012 -101.251285 
L 78.904121 -102.294797 
L 78.932824 -103.33831 
L 78.95996 -104.381822 
L 78.976156 -105.425335 
L 78.971971 -106.468848 
L 79.001285 -107.51236 
L 78.995473 -108.555873 
L 79.006817 -109.599385 
L 79.011073 -110.642898 
L 79.019251 -111.68641 
L 79.018983 -112.729923 
L 79.017588 -113.773435 
L 79.019243 -114.816948 
L 79.019755 -115.86046 
L 79.018655 -116.903973 
L 79.026393 -117.947485 
L 79.025178 -118.990998 
L 79.018103 -120.03451 
L 79.023759 -121.078023 
L 79.023852 -122.121535 
L 79.024274 -123.165048 
L 79.025332 -124.20856 
L 79.027 -125.252073 
L 79.017757 -126.295585 
L 79.02209 -127.339098 
L 79.023624 -128.38261 
L 79.019412 -129.426123 
L 79.023044 -130.469635 
L 79.019192 -131.513148 
L 79.027182 -132.55666 
L 79.024287 -133.600173 
L 79.027124 -134.643686 
L 79.026974 -135.687198 
L 79.023277 -136.730711 
L 79.027185 -137.774223 
L 79.023315 -138.817736 
L 79.024788 -139.861248 
L 79.025638 -140.904761 
L 79.027199 -141.948273 
L 79.0272 -142.991786 
L 79.027197 -144.035298 
L 79.02575 -145.078811 
L 79.0272 -146.122323 
L 79.0272 -147.165836 
L 79.027142 -148.209348 
L 79.026796 -149.252861 
L 79.0272 -150.296373 
L 79.0272 -151.339886 
L 79.025139 -152.383398 
L 79.0272 -153.426911 
L 79.024841 -154.470423 
L 79.029559 -154.470423 
L 79.029559 -154.470423 
L 79.0272 -153.426911 
L 79.029261 -152.383398 
L 79.0272 -151.339886 
L 79.0272 -150.296373 
L 79.027604 -149.252861 
L 79.027258 -148.209348 
L 79.0272 -147.165836 
L 79.0272 -146.122323 
L 79.02865 -145.078811 
L 79.027203 -144.035298 
L 79.0272 -142.991786 
L 79.027201 -141.948273 
L 79.028762 -140.904761 
L 79.029612 -139.861248 
L 79.031085 -138.817736 
L 79.027215 -137.774223 
L 79.031123 -136.730711 
L 79.027426 -135.687198 
L 79.027276 -134.643686 
L 79.030113 -133.600173 
L 79.027218 -132.55666 
L 79.035208 -131.513148 
L 79.031356 -130.469635 
L 79.034988 -129.426123 
L 79.030776 -128.38261 
L 79.03231 -127.339098 
L 79.036643 -126.295585 
L 79.0274 -125.252073 
L 79.029068 -124.20856 
L 79.030126 -123.165048 
L 79.030548 -122.121535 
L 79.030641 -121.078023 
L 79.036297 -120.03451 
L 79.029222 -118.990998 
L 79.028007 -117.947485 
L 79.035745 -116.903973 
L 79.034645 -115.86046 
L 79.035157 -114.816948 
L 79.036812 -113.773435 
L 79.035417 -112.729923 
L 79.035149 -111.68641 
L 79.043327 -110.642898 
L 79.047583 -109.599385 
L 79.058927 -108.555873 
L 79.053115 -107.51236 
L 79.082429 -106.468848 
L 79.078244 -105.425335 
L 79.09444 -104.381822 
L 79.121576 -103.33831 
L 79.150279 -102.294797 
L 79.189388 -101.251285 
L 79.194548 -100.207772 
L 79.269326 -99.16426 
L 79.308782 -98.120747 
L 79.395024 -97.077235 
L 79.459779 -96.033722 
L 79.574399 -94.99021 
L 79.702352 -93.946697 
L 79.806134 -92.903185 
L 80.009644 -91.859672 
L 80.143967 -90.81616 
L 80.259896 -89.772647 
L 80.43082 -88.729135 
L 80.723876 -87.685622 
L 81.052003 -86.64211 
L 81.009121 -85.598597 
L 81.073249 -84.555085 
L 81.011818 -83.511572 
L 81.068359 -82.46806 
L 81.115713 -81.424547 
L 81.056875 -80.381035 
L 80.875312 -79.337522 
L 80.586964 -78.29401 
L 80.59568 -77.250497 
L 80.72255 -76.206984 
L 80.843305 -75.163472 
L 81.270918 -74.119959 
L 81.870849 -73.076447 
L 82.40606 -72.032934 
L 83.019534 -70.989422 
L 84.112799 -69.945909 
L 86.073274 -68.902397 
L 88.440526 -67.858884 
L 90.596874 -66.815372 
L 89.748331 -65.771859 
L 88.41552 -64.728347 
L 87.827017 -63.684834 
L 88.843508 -62.641322 
L 91.940572 -61.597809 
L 93.312 -60.554297 
L 87.505849 -59.510784 
L 83.38316 -58.467272 
L 81.342489 -57.423759 
L 80.52655 -56.380247 
L 80.319907 -55.336734 
L 79.841886 -54.293222 
L 79.211996 -53.249709 
L 79.05152 -52.206197 
L 79.031249 -51.162684 
z
" style="stroke: #3f3f3f; stroke-width: 0.3"/>
    </defs>
    <g clip-path="url(#p8955bc4874)">
     <use xlink:href="#m45bdaddbd3" x="0" y="345.6" style="fill: #3274a1; stroke: #3f3f3f; stroke-width: 0.3"/>
    </g>
   </g>
   <g id="patch_4">
    <path d="M 93.312 303.637208 
L 93.312 303.637208 
L 93.312 303.637208 
L 93.312 303.637208 
z
" clip-path="url(#p8955bc4874)" style="fill: #e1812c; stroke: #3f3f3f; stroke-width: 0.15; stroke-linejoin: miter"/>
   </g>
   <g id="PolyCollection_2">
    <defs>
     <path id="m2af535a379" d="M 107.59922 -50.598902 
L 107.59438 -50.598902 
L 107.57068 -52.001031 
L 107.306751 -53.40316 
L 106.513894 -54.805288 
L 106.416368 -56.207417 
L 105.198243 -57.609546 
L 101.156966 -59.011674 
L 93.312 -60.413803 
L 95.235506 -61.815932 
L 98.31571 -63.21806 
L 98.211809 -64.620189 
L 96.296704 -66.022318 
L 96.812061 -67.424446 
L 100.176988 -68.826575 
L 102.798718 -70.228704 
L 103.887934 -71.630832 
L 104.528033 -73.032961 
L 105.332891 -74.43509 
L 105.964384 -75.837218 
L 106.108156 -77.239347 
L 106.128445 -78.641476 
L 105.701455 -80.043604 
L 105.817196 -81.445733 
L 105.82824 -82.847862 
L 105.766813 -84.24999 
L 105.691678 -85.652119 
L 106.003085 -87.054248 
L 106.197269 -88.456376 
L 106.577437 -89.858505 
L 106.718898 -91.260634 
L 106.808386 -92.662762 
L 107.027174 -94.064891 
L 107.17135 -95.46702 
L 107.264284 -96.869148 
L 107.325382 -98.271277 
L 107.392948 -99.673405 
L 107.464984 -101.075534 
L 107.500146 -102.477663 
L 107.504012 -103.879791 
L 107.531095 -105.28192 
L 107.558839 -106.684049 
L 107.569514 -108.086177 
L 107.579039 -109.488306 
L 107.564148 -110.890435 
L 107.581681 -112.292563 
L 107.581273 -113.694692 
L 107.579968 -115.096821 
L 107.585032 -116.498949 
L 107.593129 -117.901078 
L 107.596663 -119.303207 
L 107.590609 -120.705335 
L 107.581148 -122.107464 
L 107.590396 -123.509593 
L 107.589557 -124.911721 
L 107.593284 -126.31385 
L 107.59552 -127.715979 
L 107.590928 -129.118107 
L 107.59185 -130.520236 
L 107.592528 -131.922365 
L 107.59184 -133.324493 
L 107.596796 -134.726622 
L 107.593997 -136.128751 
L 107.592589 -137.530879 
L 107.593487 -138.933008 
L 107.596689 -140.335137 
L 107.596181 -141.737265 
L 107.596315 -143.139394 
L 107.5968 -144.541523 
L 107.594629 -145.943651 
L 107.59677 -147.34578 
L 107.592612 -148.747909 
L 107.596213 -150.150037 
L 107.596775 -151.552166 
L 107.5968 -152.954295 
L 107.5968 -154.356423 
L 107.59672 -155.758552 
L 107.5968 -157.160681 
L 107.596799 -158.562809 
L 107.595841 -159.964938 
L 107.5968 -161.367067 
L 107.5968 -162.769195 
L 107.596791 -164.171324 
L 107.5968 -165.573453 
L 107.5968 -166.975581 
L 107.5968 -168.37771 
L 107.596059 -169.779839 
L 107.596125 -171.181967 
L 107.594339 -172.584096 
L 107.5968 -173.986225 
L 107.595287 -175.388353 
L 107.5968 -176.790482 
L 107.5968 -178.192611 
L 107.5968 -179.594739 
L 107.5968 -180.996868 
L 107.5968 -182.398996 
L 107.5968 -183.801125 
L 107.5968 -185.203254 
L 107.5968 -186.605382 
L 107.596439 -188.007511 
L 107.59438 -189.40964 
L 107.59922 -189.40964 
L 107.59922 -189.40964 
L 107.597161 -188.007511 
L 107.5968 -186.605382 
L 107.5968 -185.203254 
L 107.5968 -183.801125 
L 107.5968 -182.398996 
L 107.5968 -180.996868 
L 107.5968 -179.594739 
L 107.5968 -178.192611 
L 107.5968 -176.790482 
L 107.598313 -175.388353 
L 107.5968 -173.986225 
L 107.599261 -172.584096 
L 107.597475 -171.181967 
L 107.597541 -169.779839 
L 107.5968 -168.37771 
L 107.5968 -166.975581 
L 107.5968 -165.573453 
L 107.596809 -164.171324 
L 107.5968 -162.769195 
L 107.5968 -161.367067 
L 107.597759 -159.964938 
L 107.596801 -158.562809 
L 107.5968 -157.160681 
L 107.59688 -155.758552 
L 107.5968 -154.356423 
L 107.5968 -152.954295 
L 107.596825 -151.552166 
L 107.597387 -150.150037 
L 107.600988 -148.747909 
L 107.59683 -147.34578 
L 107.598971 -145.943651 
L 107.5968 -144.541523 
L 107.597285 -143.139394 
L 107.597419 -141.737265 
L 107.596911 -140.335137 
L 107.600113 -138.933008 
L 107.601011 -137.530879 
L 107.599603 -136.128751 
L 107.596804 -134.726622 
L 107.60176 -133.324493 
L 107.601072 -131.922365 
L 107.60175 -130.520236 
L 107.602672 -129.118107 
L 107.59808 -127.715979 
L 107.600316 -126.31385 
L 107.604043 -124.911721 
L 107.603204 -123.509593 
L 107.612452 -122.107464 
L 107.602991 -120.705335 
L 107.596937 -119.303207 
L 107.600471 -117.901078 
L 107.608568 -116.498949 
L 107.613632 -115.096821 
L 107.612327 -113.694692 
L 107.611919 -112.292563 
L 107.629452 -110.890435 
L 107.614561 -109.488306 
L 107.624086 -108.086177 
L 107.634761 -106.684049 
L 107.662505 -105.28192 
L 107.689588 -103.879791 
L 107.693454 -102.477663 
L 107.728616 -101.075534 
L 107.800652 -99.673405 
L 107.868218 -98.271277 
L 107.929316 -96.869148 
L 108.02225 -95.46702 
L 108.166426 -94.064891 
L 108.385214 -92.662762 
L 108.474702 -91.260634 
L 108.616163 -89.858505 
L 108.996331 -88.456376 
L 109.190515 -87.054248 
L 109.501922 -85.652119 
L 109.426787 -84.24999 
L 109.36536 -82.847862 
L 109.376404 -81.445733 
L 109.492145 -80.043604 
L 109.065155 -78.641476 
L 109.085444 -77.239347 
L 109.229216 -75.837218 
L 109.860709 -74.43509 
L 110.665567 -73.032961 
L 111.305666 -71.630832 
L 112.394882 -70.228704 
L 115.016612 -68.826575 
L 118.381539 -67.424446 
L 118.896896 -66.022318 
L 116.981791 -64.620189 
L 116.87789 -63.21806 
L 119.958094 -61.815932 
L 121.8816 -60.413803 
L 114.036634 -59.011674 
L 109.995357 -57.609546 
L 108.777232 -56.207417 
L 108.679706 -54.805288 
L 107.886849 -53.40316 
L 107.62292 -52.001031 
L 107.59922 -50.598902 
z
" style="stroke: #3f3f3f; stroke-width: 0.3"/>
    </defs>
    <g clip-path="url(#p8955bc4874)">
     <use xlink:href="#m2af535a379" x="0" y="345.6" style="fill: #e1812c; stroke: #3f3f3f; stroke-width: 0.3"/>
    </g>
   </g>
   <g id="PolyCollection_3">
    <defs>
     <path id="m143b23c71f" d="M 150.458257 -50.112 
L 150.444143 -50.112 
L 150.358846 -52.525765 
L 148.934418 -54.939529 
L 147.672415 -57.353294 
L 136.367378 -59.767059 
L 136.1664 -62.180824 
L 140.509221 -64.594588 
L 140.064077 -67.008353 
L 145.935348 -69.422118 
L 147.202817 -71.835883 
L 145.650424 -74.249647 
L 144.386957 -76.663412 
L 141.447297 -79.077177 
L 139.984872 -81.490942 
L 140.400285 -83.904706 
L 141.584246 -86.318471 
L 145.095025 -88.732236 
L 147.231955 -91.146001 
L 148.840864 -93.559765 
L 149.74879 -95.97353 
L 150.118439 -98.387295 
L 150.308021 -100.801059 
L 150.286477 -103.214824 
L 150.138951 -105.628589 
L 149.79589 -108.042354 
L 148.97099 -110.456118 
L 147.890606 -112.869883 
L 146.297016 -115.283648 
L 144.138904 -117.697413 
L 142.596182 -120.111177 
L 140.324772 -122.524942 
L 138.952507 -124.938707 
L 138.418222 -127.352472 
L 137.620254 -129.766236 
L 139.357189 -132.180001 
L 140.560549 -134.593766 
L 142.153394 -137.00753 
L 144.085838 -139.421295 
L 145.277348 -141.83506 
L 146.924613 -144.248825 
L 147.901552 -146.662589 
L 148.623883 -149.076354 
L 149.279611 -151.490119 
L 149.550662 -153.903884 
L 149.759804 -156.317648 
L 149.970152 -158.731413 
L 150.096756 -161.145178 
L 150.170568 -163.558943 
L 150.235425 -165.972707 
L 150.283187 -168.386472 
L 150.297237 -170.800237 
L 150.345504 -173.214002 
L 150.364753 -175.627766 
L 150.39494 -178.041531 
L 150.403742 -180.455296 
L 150.420499 -182.86906 
L 150.427582 -185.282825 
L 150.429326 -187.69659 
L 150.437616 -190.110355 
L 150.433382 -192.524119 
L 150.443701 -194.937884 
L 150.44384 -197.351649 
L 150.444683 -199.765414 
L 150.444475 -202.179178 
L 150.447504 -204.592943 
L 150.449875 -207.006708 
L 150.446258 -209.420473 
L 150.446597 -211.834237 
L 150.449401 -214.248002 
L 150.446973 -216.661767 
L 150.449003 -219.075531 
L 150.443568 -221.489296 
L 150.447862 -223.903061 
L 150.450291 -226.316826 
L 150.448038 -228.73059 
L 150.448271 -231.144355 
L 150.449489 -233.55812 
L 150.449413 -235.971885 
L 150.448743 -238.385649 
L 150.450398 -240.799414 
L 150.449681 -243.213179 
L 150.445246 -245.626944 
L 150.449268 -248.040708 
L 150.449735 -250.454473 
L 150.449516 -252.868238 
L 150.448502 -255.282003 
L 150.449997 -257.695767 
L 150.448958 -260.109532 
L 150.451199 -262.523297 
L 150.450578 -264.937061 
L 150.451076 -267.350826 
L 150.450257 -269.764591 
L 150.450456 -272.178356 
L 150.449376 -274.59212 
L 150.449897 -277.005885 
L 150.449408 -279.41965 
L 150.451113 -281.833415 
L 150.450444 -284.247179 
L 150.446454 -286.660944 
L 150.449485 -289.074709 
L 150.452915 -289.074709 
L 150.452915 -289.074709 
L 150.455946 -286.660944 
L 150.451956 -284.247179 
L 150.451287 -281.833415 
L 150.452992 -279.41965 
L 150.452503 -277.005885 
L 150.453024 -274.59212 
L 150.451944 -272.178356 
L 150.452143 -269.764591 
L 150.451324 -267.350826 
L 150.451822 -264.937061 
L 150.451201 -262.523297 
L 150.453442 -260.109532 
L 150.452403 -257.695767 
L 150.453898 -255.282003 
L 150.452884 -252.868238 
L 150.452665 -250.454473 
L 150.453132 -248.040708 
L 150.457154 -245.626944 
L 150.452719 -243.213179 
L 150.452002 -240.799414 
L 150.453657 -238.385649 
L 150.452987 -235.971885 
L 150.452911 -233.55812 
L 150.454129 -231.144355 
L 150.454362 -228.73059 
L 150.452109 -226.316826 
L 150.454538 -223.903061 
L 150.458832 -221.489296 
L 150.453397 -219.075531 
L 150.455427 -216.661767 
L 150.452999 -214.248002 
L 150.455803 -211.834237 
L 150.456142 -209.420473 
L 150.452525 -207.006708 
L 150.454896 -204.592943 
L 150.457925 -202.179178 
L 150.457717 -199.765414 
L 150.45856 -197.351649 
L 150.458699 -194.937884 
L 150.469018 -192.524119 
L 150.464784 -190.110355 
L 150.473074 -187.69659 
L 150.474818 -185.282825 
L 150.481901 -182.86906 
L 150.498658 -180.455296 
L 150.50746 -178.041531 
L 150.537647 -175.627766 
L 150.556896 -173.214002 
L 150.605163 -170.800237 
L 150.619213 -168.386472 
L 150.666975 -165.972707 
L 150.731832 -163.558943 
L 150.805644 -161.145178 
L 150.932248 -158.731413 
L 151.142596 -156.317648 
L 151.351738 -153.903884 
L 151.622789 -151.490119 
L 152.278517 -149.076354 
L 153.000848 -146.662589 
L 153.977787 -144.248825 
L 155.625052 -141.83506 
L 156.816562 -139.421295 
L 158.749006 -137.00753 
L 160.341851 -134.593766 
L 161.545211 -132.180001 
L 163.282146 -129.766236 
L 162.484178 -127.352472 
L 161.949893 -124.938707 
L 160.577628 -122.524942 
L 158.306218 -120.111177 
L 156.763496 -117.697413 
L 154.605384 -115.283648 
L 153.011794 -112.869883 
L 151.93141 -110.456118 
L 151.10651 -108.042354 
L 150.763449 -105.628589 
L 150.615923 -103.214824 
L 150.594379 -100.801059 
L 150.783961 -98.387295 
L 151.15361 -95.97353 
L 152.061536 -93.559765 
L 153.670445 -91.146001 
L 155.807375 -88.732236 
L 159.318154 -86.318471 
L 160.502115 -83.904706 
L 160.917528 -81.490942 
L 159.455103 -79.077177 
L 156.515443 -76.663412 
L 155.251976 -74.249647 
L 153.699583 -71.835883 
L 154.967052 -69.422118 
L 160.838323 -67.008353 
L 160.393179 -64.594588 
L 164.736 -62.180824 
L 164.535022 -59.767059 
L 153.229985 -57.353294 
L 151.967982 -54.939529 
L 150.543554 -52.525765 
L 150.458257 -50.112 
z
" style="stroke: #3f3f3f; stroke-width: 0.3"/>
    </defs>
    <g clip-path="url(#p8955bc4874)">
     <use xlink:href="#m143b23c71f" x="0" y="345.6" style="fill: #3274a1; stroke: #3f3f3f; stroke-width: 0.3"/>
    </g>
   </g>
   <g id="PolyCollection_4">
    <defs>
     <path id="mcf20da6535" d="M 179.022932 -50.573276 
L 179.018668 -50.573276 
L 178.945002 -52.983197 
L 178.191556 -55.393117 
L 175.693552 -57.803038 
L 164.736 -60.212959 
L 167.299824 -62.62288 
L 165.883995 -65.032801 
L 166.727403 -67.442721 
L 172.439515 -69.852642 
L 174.000417 -72.262563 
L 174.156477 -74.672484 
L 173.254929 -77.082404 
L 170.374479 -79.492325 
L 168.918612 -81.902246 
L 167.809802 -84.312167 
L 169.029847 -86.722087 
L 171.702196 -89.132008 
L 173.751583 -91.541929 
L 175.794582 -93.95185 
L 177.151614 -96.361771 
L 177.864544 -98.771691 
L 178.284849 -101.181612 
L 178.344358 -103.591533 
L 178.066623 -106.001454 
L 177.249366 -108.411374 
L 175.680575 -110.821295 
L 174.004217 -113.231216 
L 171.896608 -115.641137 
L 168.918622 -118.051057 
L 167.613821 -120.460978 
L 165.336358 -122.870899 
L 164.766511 -125.28082 
L 165.616497 -127.690741 
L 165.689923 -130.100661 
L 168.358396 -132.510582 
L 170.245588 -134.920503 
L 172.00514 -137.330424 
L 173.930825 -139.740344 
L 175.351701 -142.150265 
L 176.392312 -144.560186 
L 177.216145 -146.970107 
L 177.752405 -149.380027 
L 178.19436 -151.789948 
L 178.401707 -154.199869 
L 178.567059 -156.60979 
L 178.717082 -159.019711 
L 178.754421 -161.429631 
L 178.829552 -163.839552 
L 178.87681 -166.249473 
L 178.901468 -168.659394 
L 178.94646 -171.069314 
L 178.94787 -173.479235 
L 178.988172 -175.889156 
L 178.984717 -178.299077 
L 178.993742 -180.708997 
L 179.003123 -183.118918 
L 179.007509 -185.528839 
L 179.008369 -187.93876 
L 179.011573 -190.348681 
L 179.016478 -192.758601 
L 179.01153 -195.168522 
L 179.011211 -197.578443 
L 179.011048 -199.988364 
L 179.018466 -202.398284 
L 179.0185 -204.808205 
L 179.016758 -207.218126 
L 179.015596 -209.628047 
L 179.01812 -212.037967 
L 179.017552 -214.447888 
L 179.020097 -216.857809 
L 179.016978 -219.26773 
L 179.01961 -221.677651 
L 179.01923 -224.087571 
L 179.017671 -226.497492 
L 179.018154 -228.907413 
L 179.019526 -231.317334 
L 179.018652 -233.727254 
L 179.018279 -236.137175 
L 179.018401 -238.547096 
L 179.019267 -240.957017 
L 179.018395 -243.366937 
L 179.019995 -245.776858 
L 179.020792 -248.186779 
L 179.01895 -250.5967 
L 179.020526 -253.006621 
L 179.020149 -255.416541 
L 179.019313 -257.826462 
L 179.020444 -260.236383 
L 179.018652 -262.646304 
L 179.014845 -265.056224 
L 179.018281 -267.466145 
L 179.020202 -269.876066 
L 179.019501 -272.285987 
L 179.0208 -274.695907 
L 179.0208 -277.105828 
L 179.018913 -279.515749 
L 179.020799 -281.92567 
L 179.020725 -284.335591 
L 179.020708 -286.745511 
L 179.019246 -289.155432 
L 179.022354 -289.155432 
L 179.022354 -289.155432 
L 179.020892 -286.745511 
L 179.020875 -284.335591 
L 179.020801 -281.92567 
L 179.022687 -279.515749 
L 179.0208 -277.105828 
L 179.0208 -274.695907 
L 179.022099 -272.285987 
L 179.021398 -269.876066 
L 179.023319 -267.466145 
L 179.026755 -265.056224 
L 179.022948 -262.646304 
L 179.021156 -260.236383 
L 179.022287 -257.826462 
L 179.021451 -255.416541 
L 179.021074 -253.006621 
L 179.02265 -250.5967 
L 179.020808 -248.186779 
L 179.021605 -245.776858 
L 179.023205 -243.366937 
L 179.022333 -240.957017 
L 179.023199 -238.547096 
L 179.023321 -236.137175 
L 179.022948 -233.727254 
L 179.022074 -231.317334 
L 179.023446 -228.907413 
L 179.023929 -226.497492 
L 179.02237 -224.087571 
L 179.02199 -221.677651 
L 179.024622 -219.26773 
L 179.021503 -216.857809 
L 179.024048 -214.447888 
L 179.02348 -212.037967 
L 179.026004 -209.628047 
L 179.024842 -207.218126 
L 179.0231 -204.808205 
L 179.023134 -202.398284 
L 179.030552 -199.988364 
L 179.030389 -197.578443 
L 179.03007 -195.168522 
L 179.025122 -192.758601 
L 179.030027 -190.348681 
L 179.033231 -187.93876 
L 179.034091 -185.528839 
L 179.038477 -183.118918 
L 179.047858 -180.708997 
L 179.056883 -178.299077 
L 179.053428 -175.889156 
L 179.09373 -173.479235 
L 179.09514 -171.069314 
L 179.140132 -168.659394 
L 179.16479 -166.249473 
L 179.212048 -163.839552 
L 179.287179 -161.429631 
L 179.324518 -159.019711 
L 179.474541 -156.60979 
L 179.639893 -154.199869 
L 179.84724 -151.789948 
L 180.289195 -149.380027 
L 180.825455 -146.970107 
L 181.649288 -144.560186 
L 182.689899 -142.150265 
L 184.110775 -139.740344 
L 186.03646 -137.330424 
L 187.796012 -134.920503 
L 189.683204 -132.510582 
L 192.351677 -130.100661 
L 192.425103 -127.690741 
L 193.275089 -125.28082 
L 192.705242 -122.870899 
L 190.427779 -120.460978 
L 189.122978 -118.051057 
L 186.144992 -115.641137 
L 184.037383 -113.231216 
L 182.361025 -110.821295 
L 180.792234 -108.411374 
L 179.974977 -106.001454 
L 179.697242 -103.591533 
L 179.756751 -101.181612 
L 180.177056 -98.771691 
L 180.889986 -96.361771 
L 182.247018 -93.95185 
L 184.290017 -91.541929 
L 186.339404 -89.132008 
L 189.011753 -86.722087 
L 190.231798 -84.312167 
L 189.122988 -81.902246 
L 187.667121 -79.492325 
L 184.786671 -77.082404 
L 183.885123 -74.672484 
L 184.041183 -72.262563 
L 185.602085 -69.852642 
L 191.314197 -67.442721 
L 192.157605 -65.032801 
L 190.741776 -62.62288 
L 193.3056 -60.212959 
L 182.348048 -57.803038 
L 179.850044 -55.393117 
L 179.096598 -52.983197 
L 179.022932 -50.573276 
z
" style="stroke: #3f3f3f; stroke-width: 0.3"/>
    </defs>
    <g clip-path="url(#p8955bc4874)">
     <use xlink:href="#mcf20da6535" x="0" y="345.6" style="fill: #e1812c; stroke: #3f3f3f; stroke-width: 0.3"/>
    </g>
   </g>
   <g id="PolyCollection_5">
    <defs>
     <path id="m0f0893f818" d="M 221.877583 -50.547649 
L 221.872817 -50.547649 
L 221.729867 -52.986303 
L 220.851868 -55.424956 
L 218.810909 -57.86361 
L 207.5904 -60.302263 
L 211.108097 -62.740917 
L 211.099985 -65.17957 
L 211.263895 -67.618224 
L 217.049129 -70.056877 
L 217.902519 -72.49553 
L 217.690945 -74.934184 
L 216.472965 -77.372837 
L 213.530175 -79.811491 
L 212.556407 -82.250144 
L 211.936539 -84.688798 
L 213.54729 -87.127451 
L 216.205695 -89.566105 
L 217.899531 -92.004758 
L 219.672466 -94.443411 
L 220.703941 -96.882065 
L 221.275573 -99.320718 
L 221.587911 -101.759372 
L 221.702186 -104.198025 
L 221.791217 -106.636679 
L 221.837558 -109.075332 
L 221.838669 -111.513986 
L 221.848957 -113.952639 
L 221.849869 -116.391292 
L 221.855747 -118.829946 
L 221.857302 -121.268599 
L 221.860295 -123.707253 
L 221.861634 -126.145906 
L 221.860629 -128.58456 
L 221.855807 -131.023213 
L 221.85118 -133.461867 
L 221.827284 -135.90052 
L 221.787809 -138.339173 
L 221.689263 -140.777827 
L 221.512491 -143.21648 
L 221.250947 -145.655134 
L 220.780034 -148.093787 
L 220.315381 -150.532441 
L 219.627787 -152.971094 
L 218.811718 -155.409748 
L 218.41404 -157.848401 
L 217.641337 -160.287054 
L 217.206564 -162.725708 
L 217.077878 -165.164361 
L 216.829261 -167.603015 
L 217.191238 -170.041668 
L 217.468904 -172.480322 
L 217.928841 -174.918975 
L 218.647347 -177.357629 
L 219.121859 -179.796282 
L 219.690762 -182.234935 
L 220.108865 -184.673589 
L 220.548979 -187.112242 
L 220.90558 -189.550896 
L 221.122036 -191.989549 
L 221.351387 -194.428203 
L 221.483312 -196.866856 
L 221.582975 -199.30551 
L 221.662757 -201.744163 
L 221.711273 -204.182816 
L 221.740014 -206.62147 
L 221.771106 -209.060123 
L 221.787233 -211.498777 
L 221.805376 -213.93743 
L 221.814096 -216.376084 
L 221.821925 -218.814737 
L 221.82921 -221.253391 
L 221.836973 -223.692044 
L 221.848893 -226.130698 
L 221.851648 -228.569351 
L 221.85164 -231.008004 
L 221.859664 -233.446658 
L 221.862156 -235.885311 
L 221.865799 -238.323965 
L 221.868877 -240.762618 
L 221.871241 -243.201272 
L 221.870204 -245.639925 
L 221.871327 -248.078579 
L 221.871428 -250.517232 
L 221.871588 -252.955885 
L 221.871494 -255.394539 
L 221.87164 -257.833192 
L 221.873045 -260.271846 
L 221.872982 -262.710499 
L 221.872928 -265.149153 
L 221.872443 -267.587806 
L 221.87364 -270.02646 
L 221.873475 -272.465113 
L 221.873238 -274.903766 
L 221.872746 -277.34242 
L 221.874233 -279.781073 
L 221.874031 -282.219727 
L 221.873508 -284.65838 
L 221.873612 -287.097034 
L 221.874151 -289.535687 
L 221.87478 -291.974341 
L 221.87562 -291.974341 
L 221.87562 -291.974341 
L 221.876249 -289.535687 
L 221.876788 -287.097034 
L 221.876892 -284.65838 
L 221.876369 -282.219727 
L 221.876167 -279.781073 
L 221.877654 -277.34242 
L 221.877162 -274.903766 
L 221.876925 -272.465113 
L 221.87676 -270.02646 
L 221.877957 -267.587806 
L 221.877472 -265.149153 
L 221.877418 -262.710499 
L 221.877355 -260.271846 
L 221.87876 -257.833192 
L 221.878906 -255.394539 
L 221.878812 -252.955885 
L 221.878972 -250.517232 
L 221.879073 -248.078579 
L 221.880196 -245.639925 
L 221.879159 -243.201272 
L 221.881523 -240.762618 
L 221.884601 -238.323965 
L 221.888244 -235.885311 
L 221.890736 -233.446658 
L 221.89876 -231.008004 
L 221.898752 -228.569351 
L 221.901507 -226.130698 
L 221.913427 -223.692044 
L 221.92119 -221.253391 
L 221.928475 -218.814737 
L 221.936304 -216.376084 
L 221.945024 -213.93743 
L 221.963167 -211.498777 
L 221.979294 -209.060123 
L 222.010386 -206.62147 
L 222.039127 -204.182816 
L 222.087643 -201.744163 
L 222.167425 -199.30551 
L 222.267088 -196.866856 
L 222.399013 -194.428203 
L 222.628364 -191.989549 
L 222.84482 -189.550896 
L 223.201421 -187.112242 
L 223.641535 -184.673589 
L 224.059638 -182.234935 
L 224.628541 -179.796282 
L 225.103053 -177.357629 
L 225.821559 -174.918975 
L 226.281496 -172.480322 
L 226.559162 -170.041668 
L 226.921139 -167.603015 
L 226.672522 -165.164361 
L 226.543836 -162.725708 
L 226.109063 -160.287054 
L 225.33636 -157.848401 
L 224.938682 -155.409748 
L 224.122613 -152.971094 
L 223.435019 -150.532441 
L 222.970366 -148.093787 
L 222.499453 -145.655134 
L 222.237909 -143.21648 
L 222.061137 -140.777827 
L 221.962591 -138.339173 
L 221.923116 -135.90052 
L 221.89922 -133.461867 
L 221.894593 -131.023213 
L 221.889771 -128.58456 
L 221.888766 -126.145906 
L 221.890105 -123.707253 
L 221.893098 -121.268599 
L 221.894653 -118.829946 
L 221.900531 -116.391292 
L 221.901443 -113.952639 
L 221.911731 -111.513986 
L 221.912842 -109.075332 
L 221.959183 -106.636679 
L 222.048214 -104.198025 
L 222.162489 -101.759372 
L 222.474827 -99.320718 
L 223.046459 -96.882065 
L 224.077934 -94.443411 
L 225.850869 -92.004758 
L 227.544705 -89.566105 
L 230.20311 -87.127451 
L 231.813861 -84.688798 
L 231.193993 -82.250144 
L 230.220225 -79.811491 
L 227.277435 -77.372837 
L 226.059455 -74.934184 
L 225.847881 -72.49553 
L 226.701271 -70.056877 
L 232.486505 -67.618224 
L 232.650415 -65.17957 
L 232.642303 -62.740917 
L 236.16 -60.302263 
L 224.939491 -57.86361 
L 222.898532 -55.424956 
L 222.020533 -52.986303 
L 221.877583 -50.547649 
z
" style="stroke: #3f3f3f; stroke-width: 0.3"/>
    </defs>
    <g clip-path="url(#p8955bc4874)">
     <use xlink:href="#m0f0893f818" x="0" y="345.6" style="fill: #3274a1; stroke: #3f3f3f; stroke-width: 0.3"/>
    </g>
   </g>
   <g id="PolyCollection_6">
    <defs>
     <path id="m1dbaa944c7" d="M 250.446811 -51.18831 
L 250.442789 -51.18831 
L 250.223725 -53.620234 
L 249.695929 -56.052157 
L 247.040259 -58.48408 
L 243.117916 -60.916004 
L 245.308617 -63.347927 
L 244.816158 -65.77985 
L 246.797314 -68.211773 
L 247.618917 -70.643697 
L 246.26193 -73.07562 
L 244.237118 -75.507543 
L 241.100985 -77.939466 
L 236.837967 -80.37139 
L 236.16 -82.803313 
L 236.303581 -85.235236 
L 240.053582 -87.66716 
L 243.412191 -90.099083 
L 245.911439 -92.531006 
L 248.016166 -94.962929 
L 249.116544 -97.394853 
L 249.777132 -99.826776 
L 250.098159 -102.258699 
L 250.247506 -104.690622 
L 250.344351 -107.122546 
L 250.383521 -109.554469 
L 250.408593 -111.986392 
L 250.427564 -114.418315 
L 250.431419 -116.850239 
L 250.438604 -119.282162 
L 250.440075 -121.714085 
L 250.442005 -124.146009 
L 250.439524 -126.577932 
L 250.44045 -129.009855 
L 250.436046 -131.441778 
L 250.420839 -133.873702 
L 250.369241 -136.305625 
L 250.27707 -138.737548 
L 250.107826 -141.169471 
L 249.810961 -143.601395 
L 249.426943 -146.033318 
L 248.686703 -148.465241 
L 248.096195 -150.897164 
L 247.361688 -153.329088 
L 246.484515 -155.761011 
L 246.213471 -158.192934 
L 245.405514 -160.624858 
L 245.449916 -163.056781 
L 245.572466 -165.488704 
L 245.461495 -167.920627 
L 246.198452 -170.352551 
L 246.678422 -172.784474 
L 247.247317 -175.216397 
L 247.994796 -177.64832 
L 248.456924 -180.080244 
L 248.965716 -182.512167 
L 249.301886 -184.94409 
L 249.564772 -187.376014 
L 249.834055 -189.807937 
L 249.998831 -192.23986 
L 250.121331 -194.671783 
L 250.21822 -197.103707 
L 250.262039 -199.53563 
L 250.309283 -201.967553 
L 250.340481 -204.399476 
L 250.361959 -206.8314 
L 250.382707 -209.263323 
L 250.387021 -211.695246 
L 250.399324 -214.127169 
L 250.404953 -216.559093 
L 250.412333 -218.991016 
L 250.418946 -221.422939 
L 250.424467 -223.854863 
L 250.431117 -226.286786 
L 250.428161 -228.718709 
L 250.435562 -231.150632 
L 250.437936 -233.582556 
L 250.437155 -236.014479 
L 250.439264 -238.446402 
L 250.4412 -240.878325 
L 250.440154 -243.310249 
L 250.442735 -245.742172 
L 250.442423 -248.174095 
L 250.442912 -250.606019 
L 250.441094 -253.037942 
L 250.44319 -255.469865 
L 250.443043 -257.901788 
L 250.443174 -260.333712 
L 250.443072 -262.765635 
L 250.441874 -265.197558 
L 250.443529 -267.629481 
L 250.442142 -270.061405 
L 250.443371 -272.493328 
L 250.444464 -274.925251 
L 250.443599 -277.357174 
L 250.443586 -279.789098 
L 250.44366 -282.221021 
L 250.443256 -284.652944 
L 250.444277 -287.084868 
L 250.443685 -289.516791 
L 250.444306 -291.948714 
L 250.445294 -291.948714 
L 250.445294 -291.948714 
L 250.445915 -289.516791 
L 250.445323 -287.084868 
L 250.446344 -284.652944 
L 250.44594 -282.221021 
L 250.446014 -279.789098 
L 250.446001 -277.357174 
L 250.445136 -274.925251 
L 250.446229 -272.493328 
L 250.447458 -270.061405 
L 250.446071 -267.629481 
L 250.447726 -265.197558 
L 250.446528 -262.765635 
L 250.446426 -260.333712 
L 250.446557 -257.901788 
L 250.44641 -255.469865 
L 250.448506 -253.037942 
L 250.446688 -250.606019 
L 250.447177 -248.174095 
L 250.446865 -245.742172 
L 250.449446 -243.310249 
L 250.4484 -240.878325 
L 250.450336 -238.446402 
L 250.452445 -236.014479 
L 250.451664 -233.582556 
L 250.454038 -231.150632 
L 250.461439 -228.718709 
L 250.458483 -226.286786 
L 250.465133 -223.854863 
L 250.470654 -221.422939 
L 250.477267 -218.991016 
L 250.484647 -216.559093 
L 250.490276 -214.127169 
L 250.502579 -211.695246 
L 250.506893 -209.263323 
L 250.527641 -206.8314 
L 250.549119 -204.399476 
L 250.580317 -201.967553 
L 250.627561 -199.53563 
L 250.67138 -197.103707 
L 250.768269 -194.671783 
L 250.890769 -192.23986 
L 251.055545 -189.807937 
L 251.324828 -187.376014 
L 251.587714 -184.94409 
L 251.923884 -182.512167 
L 252.432676 -180.080244 
L 252.894804 -177.64832 
L 253.642283 -175.216397 
L 254.211178 -172.784474 
L 254.691148 -170.352551 
L 255.428105 -167.920627 
L 255.317134 -165.488704 
L 255.439684 -163.056781 
L 255.484086 -160.624858 
L 254.676129 -158.192934 
L 254.405085 -155.761011 
L 253.527912 -153.329088 
L 252.793405 -150.897164 
L 252.202897 -148.465241 
L 251.462657 -146.033318 
L 251.078639 -143.601395 
L 250.781774 -141.169471 
L 250.61253 -138.737548 
L 250.520359 -136.305625 
L 250.468761 -133.873702 
L 250.453554 -131.441778 
L 250.44915 -129.009855 
L 250.450076 -126.577932 
L 250.447595 -124.146009 
L 250.449525 -121.714085 
L 250.450996 -119.282162 
L 250.458181 -116.850239 
L 250.462036 -114.418315 
L 250.481007 -111.986392 
L 250.506079 -109.554469 
L 250.545249 -107.122546 
L 250.642094 -104.690622 
L 250.791441 -102.258699 
L 251.112468 -99.826776 
L 251.773056 -97.394853 
L 252.873434 -94.962929 
L 254.978161 -92.531006 
L 257.477409 -90.099083 
L 260.836018 -87.66716 
L 264.586019 -85.235236 
L 264.7296 -82.803313 
L 264.051633 -80.37139 
L 259.788615 -77.939466 
L 256.652482 -75.507543 
L 254.62767 -73.07562 
L 253.270683 -70.643697 
L 254.092286 -68.211773 
L 256.073442 -65.77985 
L 255.580983 -63.347927 
L 257.771684 -60.916004 
L 253.849341 -58.48408 
L 251.193671 -56.052157 
L 250.665875 -53.620234 
L 250.446811 -51.18831 
z
" style="stroke: #3f3f3f; stroke-width: 0.3"/>
    </defs>
    <g clip-path="url(#p8955bc4874)">
     <use xlink:href="#m1dbaa944c7" x="0" y="345.6" style="fill: #e1812c; stroke: #3f3f3f; stroke-width: 0.3"/>
    </g>
   </g>
   <g id="PolyCollection_7">
    <defs>
     <path id="m45747d4e45" d="M 293.304178 -51.342069 
L 293.294222 -51.342069 
L 292.932361 -53.771469 
L 292.262092 -56.200868 
L 288.209265 -58.630267 
L 279.0144 -61.059667 
L 283.997798 -63.489066 
L 281.700816 -65.918466 
L 285.024631 -68.347865 
L 289.155405 -70.777265 
L 289.334182 -73.206664 
L 289.221274 -75.636064 
L 287.687603 -78.065463 
L 285.057302 -80.494863 
L 284.195376 -82.924262 
L 283.660476 -85.353661 
L 285.956729 -87.783061 
L 288.201265 -90.21246 
L 289.752264 -92.64186 
L 291.392293 -95.071259 
L 292.215541 -97.500659 
L 292.747654 -99.930058 
L 293.016948 -102.359458 
L 293.135285 -104.788857 
L 293.214549 -107.218257 
L 293.245491 -109.647656 
L 293.257187 -112.077055 
L 293.269079 -114.506455 
L 293.271638 -116.935854 
L 293.277065 -119.365254 
L 293.280781 -121.794653 
L 293.280344 -124.224053 
L 293.278087 -126.653452 
L 293.279205 -129.082852 
L 293.279883 -131.512251 
L 293.285076 -133.941651 
L 293.279224 -136.37105 
L 293.280532 -138.800449 
L 293.281761 -141.229849 
L 293.284986 -143.659248 
L 293.285395 -146.088648 
L 293.283502 -148.518047 
L 293.286084 -150.947447 
L 293.287761 -153.376846 
L 293.284794 -155.806246 
L 293.286918 -158.235645 
L 293.284746 -160.665044 
L 293.287624 -163.094444 
L 293.285006 -165.523843 
L 293.274861 -167.953243 
L 293.263207 -170.382642 
L 293.22678 -172.812042 
L 293.166817 -175.241441 
L 293.083966 -177.670841 
L 292.909558 -180.10024 
L 292.746338 -182.52964 
L 292.469501 -184.959039 
L 292.142047 -187.388438 
L 291.89231 -189.817838 
L 291.418364 -192.247237 
L 291.220338 -194.676637 
L 290.927872 -197.106036 
L 290.632044 -199.535436 
L 290.704419 -201.964835 
L 290.554471 -204.394235 
L 290.649715 -206.823634 
L 290.849606 -209.253034 
L 290.947147 -211.682433 
L 291.25136 -214.111832 
L 291.489094 -216.541232 
L 291.756492 -218.970631 
L 292.019282 -221.400031 
L 292.222701 -223.82943 
L 292.439036 -226.25883 
L 292.610008 -228.688229 
L 292.744643 -231.117629 
L 292.887153 -233.547028 
L 292.968199 -235.976428 
L 293.062991 -238.405827 
L 293.114032 -240.835226 
L 293.155331 -243.264626 
L 293.184064 -245.694025 
L 293.202557 -248.123425 
L 293.221181 -250.552824 
L 293.24411 -252.982224 
L 293.24637 -255.411623 
L 293.25205 -257.841023 
L 293.261598 -260.270422 
L 293.266517 -262.699821 
L 293.269545 -265.129221 
L 293.265517 -267.55862 
L 293.277286 -269.98802 
L 293.279214 -272.417419 
L 293.279357 -274.846819 
L 293.28384 -277.276218 
L 293.284823 -279.705618 
L 293.286903 -282.135017 
L 293.290488 -284.564417 
L 293.291996 -286.993816 
L 293.292511 -289.423215 
L 293.296362 -291.852615 
L 293.302038 -291.852615 
L 293.302038 -291.852615 
L 293.305889 -289.423215 
L 293.306404 -286.993816 
L 293.307912 -284.564417 
L 293.311497 -282.135017 
L 293.313577 -279.705618 
L 293.31456 -277.276218 
L 293.319043 -274.846819 
L 293.319186 -272.417419 
L 293.321114 -269.98802 
L 293.332883 -267.55862 
L 293.328855 -265.129221 
L 293.331883 -262.699821 
L 293.336802 -260.270422 
L 293.34635 -257.841023 
L 293.35203 -255.411623 
L 293.35429 -252.982224 
L 293.377219 -250.552824 
L 293.395843 -248.123425 
L 293.414336 -245.694025 
L 293.443069 -243.264626 
L 293.484368 -240.835226 
L 293.535409 -238.405827 
L 293.630201 -235.976428 
L 293.711247 -233.547028 
L 293.853757 -231.117629 
L 293.988392 -228.688229 
L 294.159364 -226.25883 
L 294.375699 -223.82943 
L 294.579118 -221.400031 
L 294.841908 -218.970631 
L 295.109306 -216.541232 
L 295.34704 -214.111832 
L 295.651253 -211.682433 
L 295.748794 -209.253034 
L 295.948685 -206.823634 
L 296.043929 -204.394235 
L 295.893981 -201.964835 
L 295.966356 -199.535436 
L 295.670528 -197.106036 
L 295.378062 -194.676637 
L 295.180036 -192.247237 
L 294.70609 -189.817838 
L 294.456353 -187.388438 
L 294.128899 -184.959039 
L 293.852062 -182.52964 
L 293.688842 -180.10024 
L 293.514434 -177.670841 
L 293.431583 -175.241441 
L 293.37162 -172.812042 
L 293.335193 -170.382642 
L 293.323539 -167.953243 
L 293.313394 -165.523843 
L 293.310776 -163.094444 
L 293.313654 -160.665044 
L 293.311482 -158.235645 
L 293.313606 -155.806246 
L 293.310639 -153.376846 
L 293.312316 -150.947447 
L 293.314898 -148.518047 
L 293.313005 -146.088648 
L 293.313414 -143.659248 
L 293.316639 -141.229849 
L 293.317868 -138.800449 
L 293.319176 -136.37105 
L 293.313324 -133.941651 
L 293.318517 -131.512251 
L 293.319195 -129.082852 
L 293.320313 -126.653452 
L 293.318056 -124.224053 
L 293.317619 -121.794653 
L 293.321335 -119.365254 
L 293.326762 -116.935854 
L 293.329321 -114.506455 
L 293.341213 -112.077055 
L 293.352909 -109.647656 
L 293.383851 -107.218257 
L 293.463115 -104.788857 
L 293.581452 -102.359458 
L 293.850746 -99.930058 
L 294.382859 -97.500659 
L 295.206107 -95.071259 
L 296.846136 -92.64186 
L 298.397135 -90.21246 
L 300.641671 -87.783061 
L 302.937924 -85.353661 
L 302.403024 -82.924262 
L 301.541098 -80.494863 
L 298.910797 -78.065463 
L 297.377126 -75.636064 
L 297.264218 -73.206664 
L 297.442995 -70.777265 
L 301.573769 -68.347865 
L 304.897584 -65.918466 
L 302.600602 -63.489066 
L 307.584 -61.059667 
L 298.389135 -58.630267 
L 294.336308 -56.200868 
L 293.666039 -53.771469 
L 293.304178 -51.342069 
z
" style="stroke: #3f3f3f; stroke-width: 0.3"/>
    </defs>
    <g clip-path="url(#p8955bc4874)">
     <use xlink:href="#m45747d4e45" x="0" y="345.6" style="fill: #3274a1; stroke: #3f3f3f; stroke-width: 0.3"/>
    </g>
   </g>
   <g id="PolyCollection_8">
    <defs>
     <path id="m333b4b9f06" d="M 321.876613 -51.649586 
L 321.860987 -51.649586 
L 321.611429 -54.0761 
L 321.133172 -56.502613 
L 318.918475 -58.929126 
L 317.709712 -61.355639 
L 318.906247 -63.782153 
L 318.988257 -66.208666 
L 319.972562 -68.635179 
L 319.145764 -71.061692 
L 316.737592 -73.488206 
L 314.374029 -75.914719 
L 310.618908 -78.341232 
L 307.584 -80.767745 
L 308.394484 -83.194259 
L 309.682006 -85.620772 
L 313.633051 -88.047285 
L 316.627427 -90.473798 
L 318.765487 -92.900312 
L 320.276154 -95.326825 
L 321.028196 -97.753338 
L 321.463161 -100.179851 
L 321.669578 -102.606364 
L 321.767023 -105.032878 
L 321.820535 -107.459391 
L 321.836024 -109.885904 
L 321.851617 -112.312417 
L 321.860696 -114.738931 
L 321.863875 -117.165444 
L 321.865488 -119.591957 
L 321.865541 -122.01847 
L 321.865771 -124.444984 
L 321.866081 -126.871497 
L 321.867851 -129.29801 
L 321.867335 -131.724523 
L 321.867992 -134.151037 
L 321.867215 -136.57755 
L 321.868089 -139.004063 
L 321.868186 -141.430576 
L 321.868171 -143.85709 
L 321.86803 -146.283603 
L 321.867539 -148.710116 
L 321.868259 -151.136629 
L 321.868118 -153.563143 
L 321.868207 -155.989656 
L 321.868252 -158.416169 
L 321.867519 -160.842682 
L 321.865262 -163.269196 
L 321.86313 -165.695709 
L 321.856462 -168.122222 
L 321.845466 -170.548735 
L 321.811615 -172.975249 
L 321.765573 -175.401762 
L 321.691259 -177.828275 
L 321.545708 -180.254788 
L 321.381565 -182.681301 
L 321.14334 -185.107815 
L 320.799743 -187.534328 
L 320.577479 -189.960841 
L 320.097549 -192.387354 
L 319.892824 -194.813868 
L 319.616046 -197.240381 
L 319.264942 -199.666894 
L 319.351054 -202.093407 
L 319.182726 -204.519921 
L 319.366396 -206.946434 
L 319.589349 -209.372947 
L 319.671827 -211.79946 
L 320.075015 -214.225974 
L 320.2959 -216.652487 
L 320.581292 -219.079 
L 320.873143 -221.505513 
L 321.055299 -223.932027 
L 321.251575 -226.35854 
L 321.406455 -228.785053 
L 321.523379 -231.211566 
L 321.616853 -233.63808 
L 321.679161 -236.064593 
L 321.735569 -238.491106 
L 321.767571 -240.917619 
L 321.797061 -243.344133 
L 321.80899 -245.770646 
L 321.826871 -248.197159 
L 321.831647 -250.623672 
L 321.834628 -253.050186 
L 321.844096 -255.476699 
L 321.849602 -257.903212 
L 321.849697 -260.329725 
L 321.850768 -262.756238 
L 321.853817 -265.182752 
L 321.854873 -267.609265 
L 321.859237 -270.035778 
L 321.856486 -272.462291 
L 321.859032 -274.888805 
L 321.862682 -277.315318 
L 321.862341 -279.741831 
L 321.862325 -282.168344 
L 321.862379 -284.594858 
L 321.86485 -287.021371 
L 321.865524 -289.447884 
L 321.867262 -291.874397 
L 321.870338 -291.874397 
L 321.870338 -291.874397 
L 321.872076 -289.447884 
L 321.87275 -287.021371 
L 321.875221 -284.594858 
L 321.875275 -282.168344 
L 321.875259 -279.741831 
L 321.874918 -277.315318 
L 321.878568 -274.888805 
L 321.881114 -272.462291 
L 321.878363 -270.035778 
L 321.882727 -267.609265 
L 321.883783 -265.182752 
L 321.886832 -262.756238 
L 321.887903 -260.329725 
L 321.887998 -257.903212 
L 321.893504 -255.476699 
L 321.902972 -253.050186 
L 321.905953 -250.623672 
L 321.910729 -248.197159 
L 321.92861 -245.770646 
L 321.940539 -243.344133 
L 321.970029 -240.917619 
L 322.002031 -238.491106 
L 322.058439 -236.064593 
L 322.120747 -233.63808 
L 322.214221 -231.211566 
L 322.331145 -228.785053 
L 322.486025 -226.35854 
L 322.682301 -223.932027 
L 322.864457 -221.505513 
L 323.156308 -219.079 
L 323.4417 -216.652487 
L 323.662585 -214.225974 
L 324.065773 -211.79946 
L 324.148251 -209.372947 
L 324.371204 -206.946434 
L 324.554874 -204.519921 
L 324.386546 -202.093407 
L 324.472658 -199.666894 
L 324.121554 -197.240381 
L 323.844776 -194.813868 
L 323.640051 -192.387354 
L 323.160121 -189.960841 
L 322.937857 -187.534328 
L 322.59426 -185.107815 
L 322.356035 -182.681301 
L 322.191892 -180.254788 
L 322.046341 -177.828275 
L 321.972027 -175.401762 
L 321.925985 -172.975249 
L 321.892134 -170.548735 
L 321.881138 -168.122222 
L 321.87447 -165.695709 
L 321.872338 -163.269196 
L 321.870081 -160.842682 
L 321.869348 -158.416169 
L 321.869393 -155.989656 
L 321.869482 -153.563143 
L 321.869341 -151.136629 
L 321.870061 -148.710116 
L 321.86957 -146.283603 
L 321.869429 -143.85709 
L 321.869414 -141.430576 
L 321.869511 -139.004063 
L 321.870385 -136.57755 
L 321.869608 -134.151037 
L 321.870265 -131.724523 
L 321.869749 -129.29801 
L 321.871519 -126.871497 
L 321.871829 -124.444984 
L 321.872059 -122.01847 
L 321.872112 -119.591957 
L 321.873725 -117.165444 
L 321.876904 -114.738931 
L 321.885983 -112.312417 
L 321.901576 -109.885904 
L 321.917065 -107.459391 
L 321.970577 -105.032878 
L 322.068022 -102.606364 
L 322.274439 -100.179851 
L 322.709404 -97.753338 
L 323.461446 -95.326825 
L 324.972113 -92.900312 
L 327.110173 -90.473798 
L 330.104549 -88.047285 
L 334.055594 -85.620772 
L 335.343116 -83.194259 
L 336.1536 -80.767745 
L 333.118692 -78.341232 
L 329.363571 -75.914719 
L 327.000008 -73.488206 
L 324.591836 -71.061692 
L 323.765038 -68.635179 
L 324.749343 -66.208666 
L 324.831353 -63.782153 
L 326.027888 -61.355639 
L 324.819125 -58.929126 
L 322.604428 -56.502613 
L 322.126171 -54.0761 
L 321.876613 -51.649586 
z
" style="stroke: #3f3f3f; stroke-width: 0.3"/>
    </defs>
    <g clip-path="url(#p8955bc4874)">
     <use xlink:href="#m333b4b9f06" x="0" y="345.6" style="fill: #e1812c; stroke: #3f3f3f; stroke-width: 0.3"/>
    </g>
   </g>
   <g id="PolyCollection_9">
    <defs>
     <path id="me573273843" d="M 364.72595 -50.727035 
L 364.72045 -50.727035 
L 364.531731 -53.164458 
L 363.793627 -55.601882 
L 361.238839 -58.039306 
L 350.4384 -60.47673 
L 354.326329 -62.914154 
L 353.383605 -65.351578 
L 354.091817 -67.789002 
L 359.716749 -70.226426 
L 360.417642 -72.66385 
L 360.194139 -75.101273 
L 359.087498 -77.538697 
L 356.107906 -79.976121 
L 355.211499 -82.413545 
L 354.653693 -84.850969 
L 356.45951 -87.288393 
L 358.997181 -89.725817 
L 360.689216 -92.163241 
L 362.492699 -94.600665 
L 363.491663 -97.038089 
L 364.032123 -99.475512 
L 364.377414 -101.912936 
L 364.512852 -104.35036 
L 364.611719 -106.787784 
L 364.654056 -109.225208 
L 364.672624 -111.662632 
L 364.687953 -114.100056 
L 364.691575 -116.53748 
L 364.69949 -118.974904 
L 364.702107 -121.412327 
L 364.704266 -123.849751 
L 364.707293 -126.287175 
L 364.705972 -128.724599 
L 364.706965 -131.162023 
L 364.709244 -133.599447 
L 364.707362 -136.036871 
L 364.71149 -138.474295 
L 364.708661 -140.911719 
L 364.710436 -143.349143 
L 364.712859 -145.786566 
L 364.709906 -148.22399 
L 364.713775 -150.661414 
L 364.714637 -153.098838 
L 364.715266 -155.536262 
L 364.715564 -157.973686 
L 364.71435 -160.41111 
L 364.714126 -162.848534 
L 364.71568 -165.285958 
L 364.716045 -167.723381 
L 364.717233 -170.160805 
L 364.71661 -172.598229 
L 364.7177 -175.035653 
L 364.717285 -177.473077 
L 364.717059 -179.910501 
L 364.71754 -182.347925 
L 364.717283 -184.785349 
L 364.718968 -187.222773 
L 364.718833 -189.660196 
L 364.720625 -192.09762 
L 364.71873 -194.535044 
L 364.718321 -196.972468 
L 364.713769 -199.409892 
L 364.706328 -201.847316 
L 364.693809 -204.28474 
L 364.665956 -206.722164 
L 364.614261 -209.159588 
L 364.543675 -211.597012 
L 364.47192 -214.034435 
L 364.317115 -216.471859 
L 364.15126 -218.909283 
L 364.004867 -221.346707 
L 363.732896 -223.784131 
L 363.581636 -226.221555 
L 363.362657 -228.658979 
L 363.118237 -231.096403 
L 363.03822 -233.533827 
L 362.800561 -235.97125 
L 362.842748 -238.408674 
L 362.859136 -240.846098 
L 362.805158 -243.283522 
L 363.008897 -245.720946 
L 363.034719 -248.15837 
L 363.200121 -250.595794 
L 363.368123 -253.033218 
L 363.477516 -255.470642 
L 363.679413 -257.908065 
L 363.791205 -260.345489 
L 363.932206 -262.782913 
L 364.08757 -265.220337 
L 364.174377 -267.657761 
L 364.278492 -270.095185 
L 364.358807 -272.532609 
L 364.42772 -274.970033 
L 364.49632 -277.407457 
L 364.538249 -279.844881 
L 364.582123 -282.282304 
L 364.614239 -284.719728 
L 364.63118 -287.157152 
L 364.650616 -289.594576 
L 364.693029 -292.032 
L 364.753371 -292.032 
L 364.753371 -292.032 
L 364.795784 -289.594576 
L 364.81522 -287.157152 
L 364.832161 -284.719728 
L 364.864277 -282.282304 
L 364.908151 -279.844881 
L 364.95008 -277.407457 
L 365.01868 -274.970033 
L 365.087593 -272.532609 
L 365.167908 -270.095185 
L 365.272023 -267.657761 
L 365.35883 -265.220337 
L 365.514194 -262.782913 
L 365.655195 -260.345489 
L 365.766987 -257.908065 
L 365.968884 -255.470642 
L 366.078277 -253.033218 
L 366.246279 -250.595794 
L 366.411681 -248.15837 
L 366.437503 -245.720946 
L 366.641242 -243.283522 
L 366.587264 -240.846098 
L 366.603652 -238.408674 
L 366.645839 -235.97125 
L 366.40818 -233.533827 
L 366.328163 -231.096403 
L 366.083743 -228.658979 
L 365.864764 -226.221555 
L 365.713504 -223.784131 
L 365.441533 -221.346707 
L 365.29514 -218.909283 
L 365.129285 -216.471859 
L 364.97448 -214.034435 
L 364.902725 -211.597012 
L 364.832139 -209.159588 
L 364.780444 -206.722164 
L 364.752591 -204.28474 
L 364.740072 -201.847316 
L 364.732631 -199.409892 
L 364.728079 -196.972468 
L 364.72767 -194.535044 
L 364.725775 -192.09762 
L 364.727567 -189.660196 
L 364.727432 -187.222773 
L 364.729117 -184.785349 
L 364.72886 -182.347925 
L 364.729341 -179.910501 
L 364.729115 -177.473077 
L 364.7287 -175.035653 
L 364.72979 -172.598229 
L 364.729167 -170.160805 
L 364.730355 -167.723381 
L 364.73072 -165.285958 
L 364.732274 -162.848534 
L 364.73205 -160.41111 
L 364.730836 -157.973686 
L 364.731134 -155.536262 
L 364.731763 -153.098838 
L 364.732625 -150.661414 
L 364.736494 -148.22399 
L 364.733541 -145.786566 
L 364.735964 -143.349143 
L 364.737739 -140.911719 
L 364.73491 -138.474295 
L 364.739038 -136.036871 
L 364.737156 -133.599447 
L 364.739435 -131.162023 
L 364.740428 -128.724599 
L 364.739107 -126.287175 
L 364.742134 -123.849751 
L 364.744293 -121.412327 
L 364.74691 -118.974904 
L 364.754825 -116.53748 
L 364.758447 -114.100056 
L 364.773776 -111.662632 
L 364.792344 -109.225208 
L 364.834681 -106.787784 
L 364.933548 -104.35036 
L 365.068986 -101.912936 
L 365.414277 -99.475512 
L 365.954737 -97.038089 
L 366.953701 -94.600665 
L 368.757184 -92.163241 
L 370.449219 -89.725817 
L 372.98689 -87.288393 
L 374.792707 -84.850969 
L 374.234901 -82.413545 
L 373.338494 -79.976121 
L 370.358902 -77.538697 
L 369.252261 -75.101273 
L 369.028758 -72.66385 
L 369.729651 -70.226426 
L 375.354583 -67.789002 
L 376.062795 -65.351578 
L 375.120071 -62.914154 
L 379.008 -60.47673 
L 368.207561 -58.039306 
L 365.652773 -55.601882 
L 364.914669 -53.164458 
L 364.72595 -50.727035 
z
" style="stroke: #3f3f3f; stroke-width: 0.3"/>
    </defs>
    <g clip-path="url(#p8955bc4874)">
     <use xlink:href="#me573273843" x="0" y="345.6" style="fill: #3274a1; stroke: #3f3f3f; stroke-width: 0.3"/>
    </g>
   </g>
   <g id="PolyCollection_10">
    <defs>
     <path id="mc94901b7a6" d="M 393.29737 -51.534267 
L 393.28823 -51.534267 
L 393.139775 -53.963473 
L 392.755227 -56.392678 
L 391.159125 -58.821883 
L 390.29792 -61.251089 
L 391.167451 -63.680294 
L 391.379136 -66.109499 
L 391.798342 -68.538705 
L 390.409981 -70.96791 
L 387.785044 -73.397115 
L 385.212954 -75.826321 
L 381.516144 -78.255526 
L 379.008 -80.684731 
L 380.385738 -83.113936 
L 382.301268 -85.543142 
L 386.144347 -87.972347 
L 388.890163 -90.401552 
L 390.741144 -92.830758 
L 392.027808 -95.259963 
L 392.636686 -97.689168 
L 392.983297 -100.118374 
L 393.14058 -102.547579 
L 393.218602 -104.976784 
L 393.256097 -107.40599 
L 393.273677 -109.835195 
L 393.279998 -112.2644 
L 393.283873 -114.693606 
L 393.289202 -117.122811 
L 393.290335 -119.552016 
L 393.291607 -121.981221 
L 393.290877 -124.410427 
L 393.291299 -126.839632 
L 393.29206 -129.268837 
L 393.292005 -131.698043 
L 393.291447 -134.127248 
L 393.291897 -136.556453 
L 393.292656 -138.985659 
L 393.292173 -141.414864 
L 393.292468 -143.844069 
L 393.292382 -146.273275 
L 393.292253 -148.70248 
L 393.292193 -151.131685 
L 393.292421 -153.560891 
L 393.292629 -155.990096 
L 393.292448 -158.419301 
L 393.292199 -160.848506 
L 393.29258 -163.277712 
L 393.292546 -165.706917 
L 393.292196 -168.136122 
L 393.292579 -170.565328 
L 393.292542 -172.994533 
L 393.292601 -175.423738 
L 393.292376 -177.852944 
L 393.292469 -180.282149 
L 393.292607 -182.711354 
L 393.292289 -185.14056 
L 393.292349 -187.569765 
L 393.292257 -189.99897 
L 393.292333 -192.428176 
L 393.291726 -194.857381 
L 393.29059 -197.286586 
L 393.290556 -199.715792 
L 393.28588 -202.144997 
L 393.278886 -204.574202 
L 393.2646 -207.003407 
L 393.240285 -209.432613 
L 393.195769 -211.861818 
L 393.150549 -214.291023 
L 393.053029 -216.720229 
L 392.945966 -219.149434 
L 392.819895 -221.578639 
L 392.597353 -224.007845 
L 392.45269 -226.43705 
L 392.265199 -228.866255 
L 392.017808 -231.295461 
L 391.922754 -233.724666 
L 391.72467 -236.153871 
L 391.684282 -238.583077 
L 391.712113 -241.012282 
L 391.637333 -243.441487 
L 391.771272 -245.870692 
L 391.857154 -248.299898 
L 391.977492 -250.729103 
L 392.173719 -253.158308 
L 392.271177 -255.587514 
L 392.472752 -258.016719 
L 392.5976 -260.445924 
L 392.730095 -262.87513 
L 392.851252 -265.304335 
L 392.93559 -267.73354 
L 393.013315 -270.162746 
L 393.07961 -272.591951 
L 393.128091 -275.021156 
L 393.165103 -277.450362 
L 393.201727 -279.879567 
L 393.22085 -282.308772 
L 393.235851 -284.737977 
L 393.249183 -287.167183 
L 393.257178 -289.596388 
L 393.279523 -292.025593 
L 393.306077 -292.025593 
L 393.306077 -292.025593 
L 393.328422 -289.596388 
L 393.336417 -287.167183 
L 393.349749 -284.737977 
L 393.36475 -282.308772 
L 393.383873 -279.879567 
L 393.420497 -277.450362 
L 393.457509 -275.021156 
L 393.50599 -272.591951 
L 393.572285 -270.162746 
L 393.65001 -267.73354 
L 393.734348 -265.304335 
L 393.855505 -262.87513 
L 393.988 -260.445924 
L 394.112848 -258.016719 
L 394.314423 -255.587514 
L 394.411881 -253.158308 
L 394.608108 -250.729103 
L 394.728446 -248.299898 
L 394.814328 -245.870692 
L 394.948267 -243.441487 
L 394.873487 -241.012282 
L 394.901318 -238.583077 
L 394.86093 -236.153871 
L 394.662846 -233.724666 
L 394.567792 -231.295461 
L 394.320401 -228.866255 
L 394.13291 -226.43705 
L 393.988247 -224.007845 
L 393.765705 -221.578639 
L 393.639634 -219.149434 
L 393.532571 -216.720229 
L 393.435051 -214.291023 
L 393.389831 -211.861818 
L 393.345315 -209.432613 
L 393.321 -207.003407 
L 393.306714 -204.574202 
L 393.29972 -202.144997 
L 393.295044 -199.715792 
L 393.29501 -197.286586 
L 393.293874 -194.857381 
L 393.293267 -192.428176 
L 393.293343 -189.99897 
L 393.293251 -187.569765 
L 393.293311 -185.14056 
L 393.292993 -182.711354 
L 393.293131 -180.282149 
L 393.293224 -177.852944 
L 393.292999 -175.423738 
L 393.293058 -172.994533 
L 393.293021 -170.565328 
L 393.293404 -168.136122 
L 393.293054 -165.706917 
L 393.29302 -163.277712 
L 393.293401 -160.848506 
L 393.293152 -158.419301 
L 393.292971 -155.990096 
L 393.293179 -153.560891 
L 393.293407 -151.131685 
L 393.293347 -148.70248 
L 393.293218 -146.273275 
L 393.293132 -143.844069 
L 393.293427 -141.414864 
L 393.292944 -138.985659 
L 393.293703 -136.556453 
L 393.294153 -134.127248 
L 393.293595 -131.698043 
L 393.29354 -129.268837 
L 393.294301 -126.839632 
L 393.294723 -124.410427 
L 393.293993 -121.981221 
L 393.295265 -119.552016 
L 393.296398 -117.122811 
L 393.301727 -114.693606 
L 393.305602 -112.2644 
L 393.311923 -109.835195 
L 393.329503 -107.40599 
L 393.366998 -104.976784 
L 393.44502 -102.547579 
L 393.602303 -100.118374 
L 393.948914 -97.689168 
L 394.557792 -95.259963 
L 395.844456 -92.830758 
L 397.695437 -90.401552 
L 400.441253 -87.972347 
L 404.284332 -85.543142 
L 406.199862 -83.113936 
L 407.5776 -80.684731 
L 405.069456 -78.255526 
L 401.372646 -75.826321 
L 398.800556 -73.397115 
L 396.175619 -70.96791 
L 394.787258 -68.538705 
L 395.206464 -66.109499 
L 395.418149 -63.680294 
L 396.28768 -61.251089 
L 395.426475 -58.821883 
L 393.830373 -56.392678 
L 393.445825 -53.963473 
L 393.29737 -51.534267 
z
" style="stroke: #3f3f3f; stroke-width: 0.3"/>
    </defs>
    <g clip-path="url(#p8955bc4874)">
     <use xlink:href="#mc94901b7a6" x="0" y="345.6" style="fill: #e1812c; stroke: #3f3f3f; stroke-width: 0.3"/>
    </g>
   </g>
   <g id="patch_5">
    <path d="M 57.6 307.584 
L 57.6 41.472 
" style="fill: none; stroke: #cccccc; stroke-width: 0.8; stroke-linejoin: miter; stroke-linecap: square"/>
   </g>
   <g id="legend_1">
    <g id="patch_6">
     <path d="M 64.6 78.82825 
L 125.120312 78.82825 
Q 127.120312 78.82825 127.120312 76.82825 
L 127.120312 48.472 
Q 127.120312 46.472 125.120312 46.472 
L 64.6 46.472 
Q 62.6 46.472 62.6 48.472 
L 62.6 76.82825 
Q 62.6 78.82825 64.6 78.82825 
z
" style="fill: #ffffff; opacity: 0.8; stroke: #cccccc; stroke-linejoin: miter"/>
    </g>
    <g id="patch_7">
     <path d="M 66.6 58.070437 
L 86.6 58.070437 
L 86.6 51.070437 
L 66.6 51.070437 
z
" style="fill: #3274a1; stroke: #3f3f3f; stroke-width: 0.15; stroke-linejoin: miter"/>
    </g>
    <g id="text_17">
     <!-- batch -->
     <g style="fill: #262626" transform="translate(94.6 58.070437)scale(0.1 -0.1)">
      <defs>
       <path id="DejaVuSans-63" d="M 3122 3366 
L 3122 2828 
Q 2878 2963 2633 3030 
Q 2388 3097 2138 3097 
Q 1578 3097 1268 2742 
Q 959 2388 959 1747 
Q 959 1106 1268 751 
Q 1578 397 2138 397 
Q 2388 397 2633 464 
Q 2878 531 3122 666 
L 3122 134 
Q 2881 22 2623 -34 
Q 2366 -91 2075 -91 
Q 1284 -91 818 406 
Q 353 903 353 1747 
Q 353 2603 823 3093 
Q 1294 3584 2113 3584 
Q 2378 3584 2631 3529 
Q 2884 3475 3122 3366 
z
" transform="scale(0.015625)"/>
       <path id="DejaVuSans-68" d="M 3513 2113 
L 3513 0 
L 2938 0 
L 2938 2094 
Q 2938 2591 2744 2837 
Q 2550 3084 2163 3084 
Q 1697 3084 1428 2787 
Q 1159 2491 1159 1978 
L 1159 0 
L 581 0 
L 581 4863 
L 1159 4863 
L 1159 2956 
Q 1366 3272 1645 3428 
Q 1925 3584 2291 3584 
Q 2894 3584 3203 3211 
Q 3513 2838 3513 2113 
z
" transform="scale(0.015625)"/>
      </defs>
      <use xlink:href="#DejaVuSans-62"/>
      <use xlink:href="#DejaVuSans-61" x="63.476562"/>
      <use xlink:href="#DejaVuSans-74" x="124.755859"/>
      <use xlink:href="#DejaVuSans-63" x="163.964844"/>
      <use xlink:href="#DejaVuSans-68" x="218.945312"/>
     </g>
    </g>
    <g id="patch_8">
     <path d="M 66.6 72.748562 
L 86.6 72.748562 
L 86.6 65.748562 
L 66.6 65.748562 
z
" style="fill: #e1812c; stroke: #3f3f3f; stroke-width: 0.15; stroke-linejoin: miter"/>
    </g>
    <g id="text_18">
     <!-- stride -->
     <g style="fill: #262626" transform="translate(94.6 72.748562)scale(0.1 -0.1)">
      <use xlink:href="#DejaVuSans-73"/>
      <use xlink:href="#DejaVuSans-74" x="52.099609"/>
      <use xlink:href="#DejaVuSans-72" x="91.308594"/>
      <use xlink:href="#DejaVuSans-69" x="132.421875"/>
      <use xlink:href="#DejaVuSans-64" x="160.205078"/>
      <use xlink:href="#DejaVuSans-65" x="223.681641"/>
     </g>
    </g>
   </g>
  </g>
 </g>
 <defs>
  <clipPath id="p8955bc4874">
   <rect x="57.6" y="41.472" width="357.12" height="266.112"/>
  </clipPath>
 </defs>
</svg>
