<?xml version="1.0" encoding="utf-8" standalone="no"?>
<!DOCTYPE svg PUBLIC "-//W3C//DTD SVG 1.1//EN"
  "http://www.w3.org/Graphics/SVG/1.1/DTD/svg11.dtd">
<svg xmlns:xlink="http://www.w3.org/1999/xlink" width="460.8pt" height="345.6pt" viewBox="0 0 460.8 345.6" xmlns="http://www.w3.org/2000/svg" version="1.1">
 <metadata>
  <rdf:RDF xmlns:dc="http://purl.org/dc/elements/1.1/" xmlns:cc="http://creativecommons.org/ns#" xmlns:rdf="http://www.w3.org/1999/02/22-rdf-syntax-ns#">
   <cc:Work>
    <dc:type rdf:resource="http://purl.org/dc/dcmitype/StillImage"/>
    <dc:date>2022-08-02T18:41:25.684705</dc:date>
    <dc:format>image/svg+xml</dc:format>
    <dc:creator>
     <cc:Agent>
      <dc:title>Matplotlib v3.5.2, https://matplotlib.org/</dc:title>
     </cc:Agent>
    </dc:creator>
   </cc:Work>
  </rdf:RDF>
 </metadata>
 <defs>
  <style type="text/css">*{stroke-linejoin: round; stroke-linecap: butt}</style>
 </defs>
 <g id="figure_1">
  <g id="patch_1">
   <path d="M 0 345.6 
L 460.8 345.6 
L 460.8 0 
L 0 0 
z
" style="fill: #ffffff"/>
  </g>
  <g id="axes_1">
   <g id="patch_2">
    <path d="M 57.6 307.584 
L 414.72 307.584 
L 414.72 41.472 
L 57.6 41.472 
z
" style="fill: #ffffff"/>
   </g>
   <g id="matplotlib.axis_1">
    <g id="xtick_1">
     <g id="line2d_1">
      <path d="M 72.854748 307.584 
L 72.854748 41.472 
" clip-path="url(#p37cf3d0678)" style="fill: none; stroke: #cccccc; stroke-width: 0.8; stroke-linecap: round"/>
     </g>
     <g id="text_1">
      <!-- 0 -->
      <g style="fill: #262626" transform="translate(69.673498 322.182437)scale(0.1 -0.1)">
       <defs>
        <path id="DejaVuSans-30" d="M 2034 4250 
Q 1547 4250 1301 3770 
Q 1056 3291 1056 2328 
Q 1056 1369 1301 889 
Q 1547 409 2034 409 
Q 2525 409 2770 889 
Q 3016 1369 3016 2328 
Q 3016 3291 2770 3770 
Q 2525 4250 2034 4250 
z
M 2034 4750 
Q 2819 4750 3233 4129 
Q 3647 3509 3647 2328 
Q 3647 1150 3233 529 
Q 2819 -91 2034 -91 
Q 1250 -91 836 529 
Q 422 1150 422 2328 
Q 422 3509 836 4129 
Q 1250 4750 2034 4750 
z
" transform="scale(0.015625)"/>
       </defs>
       <use xlink:href="#DejaVuSans-30"/>
      </g>
     </g>
    </g>
    <g id="xtick_2">
     <g id="line2d_2">
      <path d="M 117.712177 307.584 
L 117.712177 41.472 
" clip-path="url(#p37cf3d0678)" style="fill: none; stroke: #cccccc; stroke-width: 0.8; stroke-linecap: round"/>
     </g>
     <g id="text_2">
      <!-- 100 -->
      <g style="fill: #262626" transform="translate(108.168427 322.182437)scale(0.1 -0.1)">
       <defs>
        <path id="DejaVuSans-31" d="M 794 531 
L 1825 531 
L 1825 4091 
L 703 3866 
L 703 4441 
L 1819 4666 
L 2450 4666 
L 2450 531 
L 3481 531 
L 3481 0 
L 794 0 
L 794 531 
z
" transform="scale(0.015625)"/>
       </defs>
       <use xlink:href="#DejaVuSans-31"/>
       <use xlink:href="#DejaVuSans-30" x="63.623047"/>
       <use xlink:href="#DejaVuSans-30" x="127.246094"/>
      </g>
     </g>
    </g>
    <g id="xtick_3">
     <g id="line2d_3">
      <path d="M 162.569606 307.584 
L 162.569606 41.472 
" clip-path="url(#p37cf3d0678)" style="fill: none; stroke: #cccccc; stroke-width: 0.8; stroke-linecap: round"/>
     </g>
     <g id="text_3">
      <!-- 200 -->
      <g style="fill: #262626" transform="translate(153.025856 322.182437)scale(0.1 -0.1)">
       <defs>
        <path id="DejaVuSans-32" d="M 1228 531 
L 3431 531 
L 3431 0 
L 469 0 
L 469 531 
Q 828 903 1448 1529 
Q 2069 2156 2228 2338 
Q 2531 2678 2651 2914 
Q 2772 3150 2772 3378 
Q 2772 3750 2511 3984 
Q 2250 4219 1831 4219 
Q 1534 4219 1204 4116 
Q 875 4013 500 3803 
L 500 4441 
Q 881 4594 1212 4672 
Q 1544 4750 1819 4750 
Q 2544 4750 2975 4387 
Q 3406 4025 3406 3419 
Q 3406 3131 3298 2873 
Q 3191 2616 2906 2266 
Q 2828 2175 2409 1742 
Q 1991 1309 1228 531 
z
" transform="scale(0.015625)"/>
       </defs>
       <use xlink:href="#DejaVuSans-32"/>
       <use xlink:href="#DejaVuSans-30" x="63.623047"/>
       <use xlink:href="#DejaVuSans-30" x="127.246094"/>
      </g>
     </g>
    </g>
    <g id="xtick_4">
     <g id="line2d_4">
      <path d="M 207.427035 307.584 
L 207.427035 41.472 
" clip-path="url(#p37cf3d0678)" style="fill: none; stroke: #cccccc; stroke-width: 0.8; stroke-linecap: round"/>
     </g>
     <g id="text_4">
      <!-- 300 -->
      <g style="fill: #262626" transform="translate(197.883285 322.182437)scale(0.1 -0.1)">
       <defs>
        <path id="DejaVuSans-33" d="M 2597 2516 
Q 3050 2419 3304 2112 
Q 3559 1806 3559 1356 
Q 3559 666 3084 287 
Q 2609 -91 1734 -91 
Q 1441 -91 1130 -33 
Q 819 25 488 141 
L 488 750 
Q 750 597 1062 519 
Q 1375 441 1716 441 
Q 2309 441 2620 675 
Q 2931 909 2931 1356 
Q 2931 1769 2642 2001 
Q 2353 2234 1838 2234 
L 1294 2234 
L 1294 2753 
L 1863 2753 
Q 2328 2753 2575 2939 
Q 2822 3125 2822 3475 
Q 2822 3834 2567 4026 
Q 2313 4219 1838 4219 
Q 1578 4219 1281 4162 
Q 984 4106 628 3988 
L 628 4550 
Q 988 4650 1302 4700 
Q 1616 4750 1894 4750 
Q 2613 4750 3031 4423 
Q 3450 4097 3450 3541 
Q 3450 3153 3228 2886 
Q 3006 2619 2597 2516 
z
" transform="scale(0.015625)"/>
       </defs>
       <use xlink:href="#DejaVuSans-33"/>
       <use xlink:href="#DejaVuSans-30" x="63.623047"/>
       <use xlink:href="#DejaVuSans-30" x="127.246094"/>
      </g>
     </g>
    </g>
    <g id="xtick_5">
     <g id="line2d_5">
      <path d="M 252.284464 307.584 
L 252.284464 41.472 
" clip-path="url(#p37cf3d0678)" style="fill: none; stroke: #cccccc; stroke-width: 0.8; stroke-linecap: round"/>
     </g>
     <g id="text_5">
      <!-- 400 -->
      <g style="fill: #262626" transform="translate(242.740714 322.182437)scale(0.1 -0.1)">
       <defs>
        <path id="DejaVuSans-34" d="M 2419 4116 
L 825 1625 
L 2419 1625 
L 2419 4116 
z
M 2253 4666 
L 3047 4666 
L 3047 1625 
L 3713 1625 
L 3713 1100 
L 3047 1100 
L 3047 0 
L 2419 0 
L 2419 1100 
L 313 1100 
L 313 1709 
L 2253 4666 
z
" transform="scale(0.015625)"/>
       </defs>
       <use xlink:href="#DejaVuSans-34"/>
       <use xlink:href="#DejaVuSans-30" x="63.623047"/>
       <use xlink:href="#DejaVuSans-30" x="127.246094"/>
      </g>
     </g>
    </g>
    <g id="xtick_6">
     <g id="line2d_6">
      <path d="M 297.141893 307.584 
L 297.141893 41.472 
" clip-path="url(#p37cf3d0678)" style="fill: none; stroke: #cccccc; stroke-width: 0.8; stroke-linecap: round"/>
     </g>
     <g id="text_6">
      <!-- 500 -->
      <g style="fill: #262626" transform="translate(287.598143 322.182437)scale(0.1 -0.1)">
       <defs>
        <path id="DejaVuSans-35" d="M 691 4666 
L 3169 4666 
L 3169 4134 
L 1269 4134 
L 1269 2991 
Q 1406 3038 1543 3061 
Q 1681 3084 1819 3084 
Q 2600 3084 3056 2656 
Q 3513 2228 3513 1497 
Q 3513 744 3044 326 
Q 2575 -91 1722 -91 
Q 1428 -91 1123 -41 
Q 819 9 494 109 
L 494 744 
Q 775 591 1075 516 
Q 1375 441 1709 441 
Q 2250 441 2565 725 
Q 2881 1009 2881 1497 
Q 2881 1984 2565 2268 
Q 2250 2553 1709 2553 
Q 1456 2553 1204 2497 
Q 953 2441 691 2322 
L 691 4666 
z
" transform="scale(0.015625)"/>
       </defs>
       <use xlink:href="#DejaVuSans-35"/>
       <use xlink:href="#DejaVuSans-30" x="63.623047"/>
       <use xlink:href="#DejaVuSans-30" x="127.246094"/>
      </g>
     </g>
    </g>
    <g id="xtick_7">
     <g id="line2d_7">
      <path d="M 341.999322 307.584 
L 341.999322 41.472 
" clip-path="url(#p37cf3d0678)" style="fill: none; stroke: #cccccc; stroke-width: 0.8; stroke-linecap: round"/>
     </g>
     <g id="text_7">
      <!-- 600 -->
      <g style="fill: #262626" transform="translate(332.455572 322.182437)scale(0.1 -0.1)">
       <defs>
        <path id="DejaVuSans-36" d="M 2113 2584 
Q 1688 2584 1439 2293 
Q 1191 2003 1191 1497 
Q 1191 994 1439 701 
Q 1688 409 2113 409 
Q 2538 409 2786 701 
Q 3034 994 3034 1497 
Q 3034 2003 2786 2293 
Q 2538 2584 2113 2584 
z
M 3366 4563 
L 3366 3988 
Q 3128 4100 2886 4159 
Q 2644 4219 2406 4219 
Q 1781 4219 1451 3797 
Q 1122 3375 1075 2522 
Q 1259 2794 1537 2939 
Q 1816 3084 2150 3084 
Q 2853 3084 3261 2657 
Q 3669 2231 3669 1497 
Q 3669 778 3244 343 
Q 2819 -91 2113 -91 
Q 1303 -91 875 529 
Q 447 1150 447 2328 
Q 447 3434 972 4092 
Q 1497 4750 2381 4750 
Q 2619 4750 2861 4703 
Q 3103 4656 3366 4563 
z
" transform="scale(0.015625)"/>
       </defs>
       <use xlink:href="#DejaVuSans-36"/>
       <use xlink:href="#DejaVuSans-30" x="63.623047"/>
       <use xlink:href="#DejaVuSans-30" x="127.246094"/>
      </g>
     </g>
    </g>
    <g id="xtick_8">
     <g id="line2d_8">
      <path d="M 386.856751 307.584 
L 386.856751 41.472 
" clip-path="url(#p37cf3d0678)" style="fill: none; stroke: #cccccc; stroke-width: 0.8; stroke-linecap: round"/>
     </g>
     <g id="text_8">
      <!-- 700 -->
      <g style="fill: #262626" transform="translate(377.313001 322.182437)scale(0.1 -0.1)">
       <defs>
        <path id="DejaVuSans-37" d="M 525 4666 
L 3525 4666 
L 3525 4397 
L 1831 0 
L 1172 0 
L 2766 4134 
L 525 4134 
L 525 4666 
z
" transform="scale(0.015625)"/>
       </defs>
       <use xlink:href="#DejaVuSans-37"/>
       <use xlink:href="#DejaVuSans-30" x="63.623047"/>
       <use xlink:href="#DejaVuSans-30" x="127.246094"/>
      </g>
     </g>
    </g>
    <g id="text_9">
     <!-- time (ms) -->
     <g style="fill: #262626" transform="translate(211.898281 335.860562)scale(0.1 -0.1)">
      <defs>
       <path id="DejaVuSans-74" d="M 1172 4494 
L 1172 3500 
L 2356 3500 
L 2356 3053 
L 1172 3053 
L 1172 1153 
Q 1172 725 1289 603 
Q 1406 481 1766 481 
L 2356 481 
L 2356 0 
L 1766 0 
Q 1100 0 847 248 
Q 594 497 594 1153 
L 594 3053 
L 172 3053 
L 172 3500 
L 594 3500 
L 594 4494 
L 1172 4494 
z
" transform="scale(0.015625)"/>
       <path id="DejaVuSans-69" d="M 603 3500 
L 1178 3500 
L 1178 0 
L 603 0 
L 603 3500 
z
M 603 4863 
L 1178 4863 
L 1178 4134 
L 603 4134 
L 603 4863 
z
" transform="scale(0.015625)"/>
       <path id="DejaVuSans-6d" d="M 3328 2828 
Q 3544 3216 3844 3400 
Q 4144 3584 4550 3584 
Q 5097 3584 5394 3201 
Q 5691 2819 5691 2113 
L 5691 0 
L 5113 0 
L 5113 2094 
Q 5113 2597 4934 2840 
Q 4756 3084 4391 3084 
Q 3944 3084 3684 2787 
Q 3425 2491 3425 1978 
L 3425 0 
L 2847 0 
L 2847 2094 
Q 2847 2600 2669 2842 
Q 2491 3084 2119 3084 
Q 1678 3084 1418 2786 
Q 1159 2488 1159 1978 
L 1159 0 
L 581 0 
L 581 3500 
L 1159 3500 
L 1159 2956 
Q 1356 3278 1631 3431 
Q 1906 3584 2284 3584 
Q 2666 3584 2933 3390 
Q 3200 3197 3328 2828 
z
" transform="scale(0.015625)"/>
       <path id="DejaVuSans-65" d="M 3597 1894 
L 3597 1613 
L 953 1613 
Q 991 1019 1311 708 
Q 1631 397 2203 397 
Q 2534 397 2845 478 
Q 3156 559 3463 722 
L 3463 178 
Q 3153 47 2828 -22 
Q 2503 -91 2169 -91 
Q 1331 -91 842 396 
Q 353 884 353 1716 
Q 353 2575 817 3079 
Q 1281 3584 2069 3584 
Q 2775 3584 3186 3129 
Q 3597 2675 3597 1894 
z
M 3022 2063 
Q 3016 2534 2758 2815 
Q 2500 3097 2075 3097 
Q 1594 3097 1305 2825 
Q 1016 2553 972 2059 
L 3022 2063 
z
" transform="scale(0.015625)"/>
       <path id="DejaVuSans-20" transform="scale(0.015625)"/>
       <path id="DejaVuSans-28" d="M 1984 4856 
Q 1566 4138 1362 3434 
Q 1159 2731 1159 2009 
Q 1159 1288 1364 580 
Q 1569 -128 1984 -844 
L 1484 -844 
Q 1016 -109 783 600 
Q 550 1309 550 2009 
Q 550 2706 781 3412 
Q 1013 4119 1484 4856 
L 1984 4856 
z
" transform="scale(0.015625)"/>
       <path id="DejaVuSans-73" d="M 2834 3397 
L 2834 2853 
Q 2591 2978 2328 3040 
Q 2066 3103 1784 3103 
Q 1356 3103 1142 2972 
Q 928 2841 928 2578 
Q 928 2378 1081 2264 
Q 1234 2150 1697 2047 
L 1894 2003 
Q 2506 1872 2764 1633 
Q 3022 1394 3022 966 
Q 3022 478 2636 193 
Q 2250 -91 1575 -91 
Q 1294 -91 989 -36 
Q 684 19 347 128 
L 347 722 
Q 666 556 975 473 
Q 1284 391 1588 391 
Q 1994 391 2212 530 
Q 2431 669 2431 922 
Q 2431 1156 2273 1281 
Q 2116 1406 1581 1522 
L 1381 1569 
Q 847 1681 609 1914 
Q 372 2147 372 2553 
Q 372 3047 722 3315 
Q 1072 3584 1716 3584 
Q 2034 3584 2315 3537 
Q 2597 3491 2834 3397 
z
" transform="scale(0.015625)"/>
       <path id="DejaVuSans-29" d="M 513 4856 
L 1013 4856 
Q 1481 4119 1714 3412 
Q 1947 2706 1947 2009 
Q 1947 1309 1714 600 
Q 1481 -109 1013 -844 
L 513 -844 
Q 928 -128 1133 580 
Q 1338 1288 1338 2009 
Q 1338 2731 1133 3434 
Q 928 4138 513 4856 
z
" transform="scale(0.015625)"/>
      </defs>
      <use xlink:href="#DejaVuSans-74"/>
      <use xlink:href="#DejaVuSans-69" x="39.208984"/>
      <use xlink:href="#DejaVuSans-6d" x="66.992188"/>
      <use xlink:href="#DejaVuSans-65" x="164.404297"/>
      <use xlink:href="#DejaVuSans-20" x="225.927734"/>
      <use xlink:href="#DejaVuSans-28" x="257.714844"/>
      <use xlink:href="#DejaVuSans-6d" x="296.728516"/>
      <use xlink:href="#DejaVuSans-73" x="394.140625"/>
      <use xlink:href="#DejaVuSans-29" x="446.240234"/>
     </g>
    </g>
   </g>
   <g id="matplotlib.axis_2">
    <g id="ytick_1">
     <g id="line2d_9">
      <path d="M 57.6 307.584 
L 414.72 307.584 
" clip-path="url(#p37cf3d0678)" style="fill: none; stroke: #cccccc; stroke-width: 0.8; stroke-linecap: round"/>
     </g>
     <g id="text_10">
      <!-- 0.0 -->
      <g style="fill: #262626" transform="translate(34.696875 311.383219)scale(0.1 -0.1)">
       <defs>
        <path id="DejaVuSans-2e" d="M 684 794 
L 1344 794 
L 1344 0 
L 684 0 
L 684 794 
z
" transform="scale(0.015625)"/>
       </defs>
       <use xlink:href="#DejaVuSans-30"/>
       <use xlink:href="#DejaVuSans-2e" x="63.623047"/>
       <use xlink:href="#DejaVuSans-30" x="95.410156"/>
      </g>
     </g>
    </g>
    <g id="ytick_2">
     <g id="line2d_10">
      <path d="M 57.6 254.3616 
L 414.72 254.3616 
" clip-path="url(#p37cf3d0678)" style="fill: none; stroke: #cccccc; stroke-width: 0.8; stroke-linecap: round"/>
     </g>
     <g id="text_11">
      <!-- 0.2 -->
      <g style="fill: #262626" transform="translate(34.696875 258.160819)scale(0.1 -0.1)">
       <use xlink:href="#DejaVuSans-30"/>
       <use xlink:href="#DejaVuSans-2e" x="63.623047"/>
       <use xlink:href="#DejaVuSans-32" x="95.410156"/>
      </g>
     </g>
    </g>
    <g id="ytick_3">
     <g id="line2d_11">
      <path d="M 57.6 201.1392 
L 414.72 201.1392 
" clip-path="url(#p37cf3d0678)" style="fill: none; stroke: #cccccc; stroke-width: 0.8; stroke-linecap: round"/>
     </g>
     <g id="text_12">
      <!-- 0.4 -->
      <g style="fill: #262626" transform="translate(34.696875 204.938419)scale(0.1 -0.1)">
       <use xlink:href="#DejaVuSans-30"/>
       <use xlink:href="#DejaVuSans-2e" x="63.623047"/>
       <use xlink:href="#DejaVuSans-34" x="95.410156"/>
      </g>
     </g>
    </g>
    <g id="ytick_4">
     <g id="line2d_12">
      <path d="M 57.6 147.9168 
L 414.72 147.9168 
" clip-path="url(#p37cf3d0678)" style="fill: none; stroke: #cccccc; stroke-width: 0.8; stroke-linecap: round"/>
     </g>
     <g id="text_13">
      <!-- 0.6 -->
      <g style="fill: #262626" transform="translate(34.696875 151.716019)scale(0.1 -0.1)">
       <use xlink:href="#DejaVuSans-30"/>
       <use xlink:href="#DejaVuSans-2e" x="63.623047"/>
       <use xlink:href="#DejaVuSans-36" x="95.410156"/>
      </g>
     </g>
    </g>
    <g id="ytick_5">
     <g id="line2d_13">
      <path d="M 57.6 94.6944 
L 414.72 94.6944 
" clip-path="url(#p37cf3d0678)" style="fill: none; stroke: #cccccc; stroke-width: 0.8; stroke-linecap: round"/>
     </g>
     <g id="text_14">
      <!-- 0.8 -->
      <g style="fill: #262626" transform="translate(34.696875 98.493619)scale(0.1 -0.1)">
       <defs>
        <path id="DejaVuSans-38" d="M 2034 2216 
Q 1584 2216 1326 1975 
Q 1069 1734 1069 1313 
Q 1069 891 1326 650 
Q 1584 409 2034 409 
Q 2484 409 2743 651 
Q 3003 894 3003 1313 
Q 3003 1734 2745 1975 
Q 2488 2216 2034 2216 
z
M 1403 2484 
Q 997 2584 770 2862 
Q 544 3141 544 3541 
Q 544 4100 942 4425 
Q 1341 4750 2034 4750 
Q 2731 4750 3128 4425 
Q 3525 4100 3525 3541 
Q 3525 3141 3298 2862 
Q 3072 2584 2669 2484 
Q 3125 2378 3379 2068 
Q 3634 1759 3634 1313 
Q 3634 634 3220 271 
Q 2806 -91 2034 -91 
Q 1263 -91 848 271 
Q 434 634 434 1313 
Q 434 1759 690 2068 
Q 947 2378 1403 2484 
z
M 1172 3481 
Q 1172 3119 1398 2916 
Q 1625 2713 2034 2713 
Q 2441 2713 2670 2916 
Q 2900 3119 2900 3481 
Q 2900 3844 2670 4047 
Q 2441 4250 2034 4250 
Q 1625 4250 1398 4047 
Q 1172 3844 1172 3481 
z
" transform="scale(0.015625)"/>
       </defs>
       <use xlink:href="#DejaVuSans-30"/>
       <use xlink:href="#DejaVuSans-2e" x="63.623047"/>
       <use xlink:href="#DejaVuSans-38" x="95.410156"/>
      </g>
     </g>
    </g>
    <g id="ytick_6">
     <g id="line2d_14">
      <path d="M 57.6 41.472 
L 414.72 41.472 
" clip-path="url(#p37cf3d0678)" style="fill: none; stroke: #cccccc; stroke-width: 0.8; stroke-linecap: round"/>
     </g>
     <g id="text_15">
      <!-- 1.0 -->
      <g style="fill: #262626" transform="translate(34.696875 45.271219)scale(0.1 -0.1)">
       <use xlink:href="#DejaVuSans-31"/>
       <use xlink:href="#DejaVuSans-2e" x="63.623047"/>
       <use xlink:href="#DejaVuSans-30" x="95.410156"/>
      </g>
     </g>
    </g>
    <g id="text_16">
     <!-- proportion of creates done -->
     <g style="fill: #262626" transform="translate(28.617187 241.110813)rotate(-90)scale(0.1 -0.1)">
      <defs>
       <path id="DejaVuSans-70" d="M 1159 525 
L 1159 -1331 
L 581 -1331 
L 581 3500 
L 1159 3500 
L 1159 2969 
Q 1341 3281 1617 3432 
Q 1894 3584 2278 3584 
Q 2916 3584 3314 3078 
Q 3713 2572 3713 1747 
Q 3713 922 3314 415 
Q 2916 -91 2278 -91 
Q 1894 -91 1617 61 
Q 1341 213 1159 525 
z
M 3116 1747 
Q 3116 2381 2855 2742 
Q 2594 3103 2138 3103 
Q 1681 3103 1420 2742 
Q 1159 2381 1159 1747 
Q 1159 1113 1420 752 
Q 1681 391 2138 391 
Q 2594 391 2855 752 
Q 3116 1113 3116 1747 
z
" transform="scale(0.015625)"/>
       <path id="DejaVuSans-72" d="M 2631 2963 
Q 2534 3019 2420 3045 
Q 2306 3072 2169 3072 
Q 1681 3072 1420 2755 
Q 1159 2438 1159 1844 
L 1159 0 
L 581 0 
L 581 3500 
L 1159 3500 
L 1159 2956 
Q 1341 3275 1631 3429 
Q 1922 3584 2338 3584 
Q 2397 3584 2469 3576 
Q 2541 3569 2628 3553 
L 2631 2963 
z
" transform="scale(0.015625)"/>
       <path id="DejaVuSans-6f" d="M 1959 3097 
Q 1497 3097 1228 2736 
Q 959 2375 959 1747 
Q 959 1119 1226 758 
Q 1494 397 1959 397 
Q 2419 397 2687 759 
Q 2956 1122 2956 1747 
Q 2956 2369 2687 2733 
Q 2419 3097 1959 3097 
z
M 1959 3584 
Q 2709 3584 3137 3096 
Q 3566 2609 3566 1747 
Q 3566 888 3137 398 
Q 2709 -91 1959 -91 
Q 1206 -91 779 398 
Q 353 888 353 1747 
Q 353 2609 779 3096 
Q 1206 3584 1959 3584 
z
" transform="scale(0.015625)"/>
       <path id="DejaVuSans-6e" d="M 3513 2113 
L 3513 0 
L 2938 0 
L 2938 2094 
Q 2938 2591 2744 2837 
Q 2550 3084 2163 3084 
Q 1697 3084 1428 2787 
Q 1159 2491 1159 1978 
L 1159 0 
L 581 0 
L 581 3500 
L 1159 3500 
L 1159 2956 
Q 1366 3272 1645 3428 
Q 1925 3584 2291 3584 
Q 2894 3584 3203 3211 
Q 3513 2838 3513 2113 
z
" transform="scale(0.015625)"/>
       <path id="DejaVuSans-66" d="M 2375 4863 
L 2375 4384 
L 1825 4384 
Q 1516 4384 1395 4259 
Q 1275 4134 1275 3809 
L 1275 3500 
L 2222 3500 
L 2222 3053 
L 1275 3053 
L 1275 0 
L 697 0 
L 697 3053 
L 147 3053 
L 147 3500 
L 697 3500 
L 697 3744 
Q 697 4328 969 4595 
Q 1241 4863 1831 4863 
L 2375 4863 
z
" transform="scale(0.015625)"/>
       <path id="DejaVuSans-63" d="M 3122 3366 
L 3122 2828 
Q 2878 2963 2633 3030 
Q 2388 3097 2138 3097 
Q 1578 3097 1268 2742 
Q 959 2388 959 1747 
Q 959 1106 1268 751 
Q 1578 397 2138 397 
Q 2388 397 2633 464 
Q 2878 531 3122 666 
L 3122 134 
Q 2881 22 2623 -34 
Q 2366 -91 2075 -91 
Q 1284 -91 818 406 
Q 353 903 353 1747 
Q 353 2603 823 3093 
Q 1294 3584 2113 3584 
Q 2378 3584 2631 3529 
Q 2884 3475 3122 3366 
z
" transform="scale(0.015625)"/>
       <path id="DejaVuSans-61" d="M 2194 1759 
Q 1497 1759 1228 1600 
Q 959 1441 959 1056 
Q 959 750 1161 570 
Q 1363 391 1709 391 
Q 2188 391 2477 730 
Q 2766 1069 2766 1631 
L 2766 1759 
L 2194 1759 
z
M 3341 1997 
L 3341 0 
L 2766 0 
L 2766 531 
Q 2569 213 2275 61 
Q 1981 -91 1556 -91 
Q 1019 -91 701 211 
Q 384 513 384 1019 
Q 384 1609 779 1909 
Q 1175 2209 1959 2209 
L 2766 2209 
L 2766 2266 
Q 2766 2663 2505 2880 
Q 2244 3097 1772 3097 
Q 1472 3097 1187 3025 
Q 903 2953 641 2809 
L 641 3341 
Q 956 3463 1253 3523 
Q 1550 3584 1831 3584 
Q 2591 3584 2966 3190 
Q 3341 2797 3341 1997 
z
" transform="scale(0.015625)"/>
       <path id="DejaVuSans-64" d="M 2906 2969 
L 2906 4863 
L 3481 4863 
L 3481 0 
L 2906 0 
L 2906 525 
Q 2725 213 2448 61 
Q 2172 -91 1784 -91 
Q 1150 -91 751 415 
Q 353 922 353 1747 
Q 353 2572 751 3078 
Q 1150 3584 1784 3584 
Q 2172 3584 2448 3432 
Q 2725 3281 2906 2969 
z
M 947 1747 
Q 947 1113 1208 752 
Q 1469 391 1925 391 
Q 2381 391 2643 752 
Q 2906 1113 2906 1747 
Q 2906 2381 2643 2742 
Q 2381 3103 1925 3103 
Q 1469 3103 1208 2742 
Q 947 2381 947 1747 
z
" transform="scale(0.015625)"/>
      </defs>
      <use xlink:href="#DejaVuSans-70"/>
      <use xlink:href="#DejaVuSans-72" x="63.476562"/>
      <use xlink:href="#DejaVuSans-6f" x="102.339844"/>
      <use xlink:href="#DejaVuSans-70" x="163.521484"/>
      <use xlink:href="#DejaVuSans-6f" x="226.998047"/>
      <use xlink:href="#DejaVuSans-72" x="288.179688"/>
      <use xlink:href="#DejaVuSans-74" x="329.292969"/>
      <use xlink:href="#DejaVuSans-69" x="368.501953"/>
      <use xlink:href="#DejaVuSans-6f" x="396.285156"/>
      <use xlink:href="#DejaVuSans-6e" x="457.466797"/>
      <use xlink:href="#DejaVuSans-20" x="520.845703"/>
      <use xlink:href="#DejaVuSans-6f" x="552.632812"/>
      <use xlink:href="#DejaVuSans-66" x="613.814453"/>
      <use xlink:href="#DejaVuSans-20" x="649.019531"/>
      <use xlink:href="#DejaVuSans-63" x="680.806641"/>
      <use xlink:href="#DejaVuSans-72" x="735.787109"/>
      <use xlink:href="#DejaVuSans-65" x="774.650391"/>
      <use xlink:href="#DejaVuSans-61" x="836.173828"/>
      <use xlink:href="#DejaVuSans-74" x="897.453125"/>
      <use xlink:href="#DejaVuSans-65" x="936.662109"/>
      <use xlink:href="#DejaVuSans-73" x="998.185547"/>
      <use xlink:href="#DejaVuSans-20" x="1050.285156"/>
      <use xlink:href="#DejaVuSans-64" x="1082.072266"/>
      <use xlink:href="#DejaVuSans-6f" x="1145.548828"/>
      <use xlink:href="#DejaVuSans-6e" x="1206.730469"/>
      <use xlink:href="#DejaVuSans-65" x="1270.109375"/>
     </g>
    </g>
   </g>
   <g id="line2d_15">
    <path d="M 78.231169 307.584 
L 78.231169 306.99264 
L 85.555724 306.99264 
L 85.654664 305.21856 
L 85.682777 305.21856 
L 85.682777 304.6272 
L 91.057954 304.6272 
L 91.057954 304.03584 
L 91.45131 304.03584 
L 91.45131 303.44448 
L 91.622769 303.44448 
L 91.709187 301.07904 
L 102.020557 301.07904 
L 102.020557 300.48768 
L 102.416657 300.48768 
L 102.416657 299.89632 
L 105.331962 299.89632 
L 105.331962 299.30496 
L 106.077407 299.30496 
L 106.160474 296.93952 
L 106.216968 296.93952 
L 106.321189 291.02592 
L 106.340998 291.02592 
L 106.448679 280.38144 
L 106.452335 280.38144 
L 106.56254 270.91968 
L 106.571476 270.91968 
L 106.680755 265.59744 
L 106.683063 265.59744 
L 106.791412 260.2752 
L 106.798607 260.2752 
L 106.902802 256.13568 
L 106.93012 256.13568 
L 106.93012 255.54432 
L 107.284596 255.54432 
L 107.284596 254.95296 
L 111.571151 254.95296 
L 111.623279 253.17888 
L 111.726039 253.17888 
L 111.726039 252.58752 
L 119.024036 252.58752 
L 119.049397 251.4048 
L 119.466297 251.4048 
L 119.495482 250.22208 
L 124.937609 250.22208 
L 124.946563 249.03936 
L 125.078101 249.03936 
L 125.135081 247.26528 
L 125.201911 247.26528 
L 125.201911 246.67392 
L 135.795827 246.67392 
L 135.892672 245.4912 
L 139.042535 245.4912 
L 139.042535 244.89984 
L 139.661617 244.89984 
L 139.760411 239.5776 
L 139.775304 239.5776 
L 139.886371 223.01952 
L 139.888389 223.01952 
L 139.999344 193.45152 
L 140.003947 193.45152 
L 140.114004 168.6144 
L 140.117315 168.6144 
L 140.225807 127.2192 
L 140.228427 127.2192 
L 140.339117 88.7808 
L 140.340597 88.7808 
L 140.446757 63.35232 
L 140.463013 63.35232 
L 140.561829 52.70784 
L 145.1717 52.70784 
L 145.196175 50.93376 
L 145.702797 50.93376 
L 145.702797 50.3424 
L 158.48445 50.3424 
L 158.48445 49.75104 
L 158.694799 49.75104 
L 158.694799 49.15968 
L 169.357614 49.15968 
L 169.357614 48.56832 
L 173.410411 48.56832 
L 173.410411 47.97696 
L 173.591094 47.97696 
L 173.591094 47.3856 
L 186.644583 47.3856 
L 186.644583 46.79424 
L 192.330701 46.79424 
L 192.330701 46.20288 
L 202.804743 46.20288 
L 202.804743 45.61152 
L 225.867303 45.61152 
L 225.867303 45.02016 
L 236.741784 45.02016 
L 236.741784 44.4288 
L 259.615192 44.4288 
L 259.615192 43.83744 
L 270.419387 43.83744 
L 270.419387 43.24608 
L 293.187465 43.24608 
L 293.187465 42.65472 
L 303.967798 42.65472 
L 303.967798 42.06336 
L 308.046819 42.06336 
L 308.046819 41.472 
L 308.046819 41.472 
" clip-path="url(#p37cf3d0678)" style="fill: none; stroke: #a6d854; stroke-width: 1.5; stroke-linecap: round"/>
   </g>
   <g id="line2d_16">
    <path d="M 73.832727 307.584 
L 73.832727 306.99264 
L 76.899361 306.99264 
L 76.899361 306.40128 
L 83.229758 306.40128 
L 83.245075 305.21856 
L 90.621526 305.21856 
L 90.621526 304.6272 
L 96.144506 304.6272 
L 96.21647 303.44448 
L 96.586744 303.44448 
L 96.586744 302.85312 
L 96.811745 302.85312 
L 96.811745 302.26176 
L 102.921411 302.26176 
L 102.921411 301.6704 
L 106.016015 301.6704 
L 106.124584 299.30496 
L 106.165557 299.30496 
L 106.274699 296.93952 
L 106.307445 296.93952 
L 106.404543 292.20864 
L 106.439416 292.20864 
L 106.547724 283.33824 
L 106.566542 283.33824 
L 106.645818 279.19872 
L 106.684738 279.19872 
L 106.777147 275.0592 
L 106.80809 275.0592 
L 106.863946 273.28512 
L 108.164741 273.28512 
L 108.164741 272.69376 
L 110.229516 272.69376 
L 110.229516 272.1024 
L 117.012072 272.1024 
L 117.012072 271.51104 
L 129.589658 271.51104 
L 129.589658 270.91968 
L 130.061244 270.91968 
L 130.097581 269.73696 
L 130.265992 269.73696 
L 130.265992 269.1456 
L 136.377319 269.1456 
L 136.377319 268.55424 
L 136.92204 268.55424 
L 136.92204 267.96288 
L 139.629104 267.96288 
L 139.7387 264.41472 
L 139.747986 264.41472 
L 139.853293 254.3616 
L 139.860183 254.3616 
L 139.964512 243.71712 
L 139.976521 243.71712 
L 140.079213 222.42816 
L 140.087839 222.42816 
L 140.195169 194.63424 
L 140.200687 194.63424 
L 140.309376 170.38848 
L 140.317424 170.38848 
L 140.426077 158.56128 
L 140.443029 158.56128 
L 140.548736 149.69088 
L 140.574484 149.69088 
L 140.585788 147.9168 
L 140.78002 147.9168 
L 140.78002 147.32544 
L 141.126972 147.32544 
L 141.126972 146.73408 
L 142.033743 146.73408 
L 142.033743 146.14272 
L 143.666016 146.14272 
L 143.666016 145.55136 
L 144.234522 145.55136 
L 144.234522 144.96 
L 150.391174 144.96 
L 150.391174 144.36864 
L 150.967276 144.36864 
L 150.967276 143.77728 
L 163.719092 143.77728 
L 163.719092 143.18592 
L 170.124682 143.18592 
L 170.124682 142.59456 
L 173.344809 142.59456 
L 173.444886 140.82048 
L 173.494813 140.82048 
L 173.605162 134.90688 
L 173.611576 134.90688 
L 173.722621 122.48832 
L 173.725649 122.48832 
L 173.836474 106.5216 
L 173.842772 106.5216 
L 173.95234 95.87712 
L 173.954018 95.87712 
L 174.062618 88.7808 
L 174.071141 88.7808 
L 174.158388 85.23264 
L 174.206269 85.23264 
L 174.206269 84.64128 
L 175.078264 84.64128 
L 175.078264 84.04992 
L 175.494191 84.04992 
L 175.494191 83.45856 
L 177.618467 83.45856 
L 177.618467 82.8672 
L 183.949652 82.8672 
L 183.949652 82.27584 
L 201.878598 82.27584 
L 201.878598 81.68448 
L 203.854792 81.68448 
L 203.854792 81.09312 
L 207.171541 81.09312 
L 207.171541 80.50176 
L 207.297886 80.50176 
L 207.297886 79.9104 
L 207.656553 79.9104 
L 207.709637 78.72768 
L 208.585259 78.72768 
L 208.585259 78.13632 
L 210.986368 78.13632 
L 210.986368 77.54496 
L 217.805532 77.54496 
L 217.805532 76.9536 
L 237.269469 76.9536 
L 237.269469 76.36224 
L 240.656835 76.36224 
L 240.745429 74.58816 
L 240.787774 74.58816 
L 240.870357 71.63136 
L 240.902849 71.63136 
L 240.988018 67.49184 
L 241.020898 67.49184 
L 241.130844 61.57824 
L 241.132369 61.57824 
L 241.226031 54.48192 
L 241.255951 54.48192 
L 241.351596 50.3424 
L 241.393439 50.3424 
L 241.43574 48.56832 
L 242.13894 48.56832 
L 242.13894 47.97696 
L 245.037804 47.97696 
L 245.037804 47.3856 
L 274.697523 47.3856 
L 274.697523 46.79424 
L 278.451131 46.79424 
L 278.451131 46.20288 
L 285.004384 46.20288 
L 285.004384 45.61152 
L 304.731295 45.61152 
L 304.731295 45.02016 
L 308.057446 45.02016 
L 308.057446 44.4288 
L 308.437819 44.4288 
L 308.437819 43.83744 
L 312.294046 43.83744 
L 312.294046 43.24608 
L 338.397444 43.24608 
L 338.397444 42.65472 
L 342.964919 42.65472 
L 342.964919 42.06336 
L 372.029561 42.06336 
L 372.029561 41.472 
L 372.029561 41.472 
" clip-path="url(#p37cf3d0678)" style="fill: none; stroke: #e78ac3; stroke-width: 1.5; stroke-linecap: round"/>
   </g>
   <g id="line2d_17">
    <path d="M 78.46018 307.584 
L 78.46018 306.99264 
L 90.391471 306.99264 
L 90.404514 305.80992 
L 90.746578 305.80992 
L 90.746578 305.21856 
L 98.767184 305.21856 
L 98.808589 303.44448 
L 100.163867 303.44448 
L 100.230431 301.6704 
L 106.079302 301.6704 
L 106.079302 301.07904 
L 106.536848 301.07904 
L 106.536848 300.48768 
L 106.70673 300.48768 
L 106.70673 299.89632 
L 111.760474 299.89632 
L 111.760474 299.30496 
L 112.113459 299.30496 
L 112.171476 298.12224 
L 123.995268 298.12224 
L 123.995268 297.53088 
L 124.282841 297.53088 
L 124.3495 296.34816 
L 132.554125 296.34816 
L 132.602662 295.16544 
L 132.674529 295.16544 
L 132.674529 294.57408 
L 133.772476 294.57408 
L 133.778416 292.8 
L 139.918634 292.8 
L 139.947209 291.61728 
L 140.256983 291.61728 
L 140.299104 290.43456 
L 145.280217 290.43456 
L 145.280217 289.8432 
L 145.779799 289.8432 
L 145.821551 288.66048 
L 157.376062 288.66048 
L 157.376062 288.06912 
L 157.828366 288.06912 
L 157.884266 286.8864 
L 166.061922 286.8864 
L 166.123072 285.70368 
L 166.204438 285.70368 
L 166.204438 285.11232 
L 167.354826 285.11232 
L 167.411017 283.9296 
L 167.918072 283.9296 
L 167.918072 283.33824 
L 173.259042 283.33824 
L 173.368404 279.19872 
L 173.378286 279.19872 
L 173.488981 264.41472 
L 173.501788 264.41472 
L 173.611666 236.6208 
L 173.61855 236.6208 
L 173.727353 204.096 
L 173.729749 204.096 
L 173.840484 137.86368 
L 173.840989 137.86368 
L 173.950564 92.32896 
L 173.952134 92.32896 
L 174.057056 59.2128 
L 174.06338 59.2128 
L 174.162201 46.20288 
L 174.196181 46.20288 
L 174.25952 43.83744 
L 178.927637 43.83744 
L 178.977226 42.65472 
L 207.00186 42.65472 
L 207.00186 42.06336 
L 207.442499 42.06336 
L 207.442499 41.472 
L 207.442499 41.472 
" clip-path="url(#p37cf3d0678)" style="fill: none; stroke: #8da0cb; stroke-width: 1.5; stroke-linecap: round"/>
   </g>
   <g id="line2d_18">
    <path d="M 79.248746 307.584 
L 79.248746 307.14048 
L 80.933369 307.14048 
L 80.933369 306.69696 
L 86.668642 306.69696 
L 86.729187 305.80992 
L 95.581252 305.80992 
L 95.581252 305.3664 
L 95.853572 305.3664 
L 95.853572 304.92288 
L 99.083108 304.92288 
L 99.132399 304.03584 
L 99.249721 304.03584 
L 99.267855 303.1488 
L 106.365704 303.1488 
L 106.439952 302.26176 
L 106.569556 302.26176 
L 106.569556 301.81824 
L 106.868035 301.81824 
L 106.878599 300.9312 
L 112.685478 300.9312 
L 112.685478 300.48768 
L 114.19917 300.48768 
L 114.19917 300.04416 
L 114.627761 300.04416 
L 114.627761 299.60064 
L 120.256361 299.60064 
L 120.256361 299.15712 
L 129.334481 299.15712 
L 129.334481 298.7136 
L 129.530989 298.7136 
L 129.530989 298.27008 
L 132.589764 298.27008 
L 132.589764 297.82656 
L 132.909058 297.82656 
L 132.943795 296.93952 
L 133.067824 296.93952 
L 133.067824 296.496 
L 139.715298 296.496 
L 139.779646 295.60896 
L 139.987434 295.60896 
L 140.056466 294.2784 
L 140.265619 294.2784 
L 140.321752 293.39136 
L 146.426868 293.39136 
L 146.426868 292.94784 
L 146.908456 292.94784 
L 146.908456 292.50432 
L 147.922534 292.50432 
L 147.922534 292.0608 
L 153.915472 292.0608 
L 153.988347 291.17376 
L 163.007577 291.17376 
L 163.106438 290.28672 
L 166.512969 290.28672 
L 166.58866 288.51264 
L 173.514869 288.51264 
L 173.546748 287.6256 
L 173.725981 287.6256 
L 173.823752 285.85152 
L 173.84017 285.85152 
L 173.929939 282.30336 
L 173.995255 282.30336 
L 174.060631 280.52928 
L 174.114657 280.52928 
L 174.114657 280.08576 
L 180.362878 280.08576 
L 180.362878 279.64224 
L 181.891558 279.64224 
L 181.891558 279.19872 
L 187.519779 279.19872 
L 187.548369 278.31168 
L 196.599181 278.31168 
L 196.599181 277.86816 
L 196.836381 277.86816 
L 196.836381 277.42464 
L 199.866363 277.42464 
L 199.866363 276.98112 
L 200.351392 276.98112 
L 200.422249 276.09408 
L 206.938762 276.09408 
L 206.938762 275.65056 
L 207.052978 275.65056 
L 207.144523 271.21536 
L 207.169868 271.21536 
L 207.279297 258.35328 
L 207.283177 258.35328 
L 207.391822 232.62912 
L 207.400255 232.62912 
L 207.503517 206.46144 
L 207.518455 206.46144 
L 207.629383 186.94656 
L 207.634703 186.94656 
L 207.732155 180.29376 
L 207.747277 180.29376 
L 207.795961 178.07616 
L 207.885344 178.07616 
L 207.885344 177.63264 
L 213.856646 177.63264 
L 213.856646 177.18912 
L 215.648638 177.18912 
L 215.648638 176.7456 
L 221.257203 176.7456 
L 221.257203 176.30208 
L 230.563801 176.30208 
L 230.563801 175.85856 
L 233.623231 175.85856 
L 233.623231 175.41504 
L 233.816462 175.41504 
L 233.816462 174.97152 
L 240.598117 174.97152 
L 240.698239 170.97984 
L 240.712136 170.97984 
L 240.821821 159.89184 
L 240.832587 159.89184 
L 240.940918 143.4816 
L 240.943788 143.4816 
L 241.054766 111.54816 
L 241.055483 111.54816 
L 241.166506 80.50176 
L 241.17209 80.50176 
L 241.273087 67.63968 
L 241.284929 67.63968 
L 241.389241 54.33408 
L 241.396534 54.33408 
L 241.477547 45.9072 
L 241.514151 45.9072 
L 241.514151 45.46368 
L 247.308405 45.46368 
L 247.308405 45.02016 
L 254.928008 45.02016 
L 254.928008 44.57664 
L 267.121722 44.57664 
L 267.121722 44.13312 
L 274.397957 44.13312 
L 274.397957 43.6896 
L 274.662104 43.6896 
L 274.662104 43.24608 
L 281.186848 43.24608 
L 281.186848 42.80256 
L 308.62239 42.80256 
L 308.62239 42.35904 
L 314.571139 42.35904 
L 314.571139 41.91552 
L 341.713954 41.91552 
L 341.713954 41.472 
L 341.713954 41.472 
" clip-path="url(#p37cf3d0678)" style="fill: none; stroke: #fc8d62; stroke-width: 1.5; stroke-linecap: round"/>
   </g>
   <g id="line2d_19">
    <path d="M 75.125046 307.584 
L 75.125046 307.13974 
L 82.276499 307.13974 
L 82.276499 306.695479 
L 82.96572 306.695479 
L 82.96572 306.251219 
L 84.513898 306.251219 
L 84.513898 305.806958 
L 87.729422 305.806958 
L 87.729422 305.362698 
L 95.429464 305.362698 
L 95.429464 304.918437 
L 96.716432 304.918437 
L 96.716432 304.474177 
L 106.388233 304.474177 
L 106.388233 304.029917 
L 108.561354 304.029917 
L 108.561354 303.585656 
L 115.876229 303.585656 
L 115.876229 303.141396 
L 116.883871 303.141396 
L 116.883871 302.697135 
L 117.927863 302.697135 
L 117.927863 302.252875 
L 121.19865 302.252875 
L 121.19865 301.808614 
L 128.89229 301.808614 
L 128.89229 301.364354 
L 130.594388 301.364354 
L 130.594388 300.920093 
L 142.112829 300.920093 
L 142.112829 300.475833 
L 149.367515 300.475833 
L 149.367515 300.031573 
L 150.409262 300.031573 
L 150.409262 299.587312 
L 151.779407 299.587312 
L 151.779407 299.143052 
L 154.981443 299.143052 
L 154.981443 298.698791 
L 162.440721 298.698791 
L 162.440721 298.254531 
L 164.0085 298.254531 
L 164.0085 297.81027 
L 173.802911 297.81027 
L 173.802911 297.36601 
L 173.918368 297.36601 
L 173.918368 296.92175 
L 183.382164 296.92175 
L 183.382164 296.477489 
L 185.452413 296.477489 
L 185.452413 296.033229 
L 188.480684 296.033229 
L 188.480684 295.588968 
L 197.963669 295.588968 
L 197.963669 295.144708 
L 209.474473 295.144708 
L 209.474473 294.700447 
L 216.993737 294.700447 
L 216.993737 294.256187 
L 217.876381 294.256187 
L 217.876381 293.811927 
L 218.841012 293.811927 
L 218.841012 293.367666 
L 222.35689 293.367666 
L 222.35689 292.923406 
L 229.974798 292.923406 
L 229.974798 292.479145 
L 231.42452 292.479145 
L 231.42452 292.034885 
L 240.874988 292.034885 
L 240.874988 291.590624 
L 243.385404 291.590624 
L 243.385404 291.146364 
L 250.460857 291.146364 
L 250.460857 290.702104 
L 251.227237 290.702104 
L 251.227237 290.257843 
L 252.411054 290.257843 
L 252.411054 289.813583 
L 263.578851 289.813583 
L 263.578851 289.369322 
L 264.928907 289.369322 
L 264.928907 288.925062 
L 276.911696 288.925062 
L 276.911696 288.480801 
L 284.093653 288.480801 
L 284.093653 288.036541 
L 286.040404 288.036541 
L 286.040404 287.59228 
L 289.615144 287.59228 
L 289.615144 287.14802 
L 297.206147 287.14802 
L 297.206147 286.70376 
L 298.968812 286.70376 
L 298.968812 286.259499 
L 308.322519 286.259499 
L 308.322519 285.815239 
L 310.387926 285.815239 
L 310.387926 285.370978 
L 317.583149 285.370978 
L 317.583149 284.926718 
L 323.092658 284.926718 
L 323.092658 284.482457 
L 331.045609 284.482457 
L 331.045609 284.038197 
L 332.339608 284.038197 
L 332.339608 283.593937 
L 341.816815 283.593937 
L 341.910953 280.039853 
L 341.93383 280.039853 
L 342.028928 275.597249 
L 342.065995 275.597249 
L 342.138739 274.708728 
L 342.18871 274.708728 
L 342.279681 272.487426 
L 344.389595 272.487426 
L 344.389595 272.043165 
L 353.485144 272.043165 
L 353.485144 271.598905 
L 356.800828 271.598905 
L 356.800828 271.154644 
L 364.503553 271.154644 
L 364.503553 270.710384 
L 365.802888 270.710384 
L 365.802888 270.266124 
L 375.182202 270.266124 
L 375.288334 265.379259 
L 375.296835 265.379259 
L 375.407924 239.612154 
L 375.409135 239.612154 
L 375.519485 208.513923 
L 375.525451 208.513923 
L 375.636518 162.310838 
L 375.63737 162.310838 
L 375.747809 114.330711 
L 375.749424 114.330711 
L 375.860401 77.012835 
L 375.861522 77.012835 
L 375.971782 54.799813 
L 375.972814 54.799813 
L 376.080202 44.137563 
L 376.097028 44.137563 
L 376.097028 43.693302 
L 377.710946 43.693302 
L 377.710946 43.249042 
L 384.988149 43.249042 
L 384.988149 42.804781 
L 386.914948 42.804781 
L 386.914948 42.360521 
L 390.460592 42.360521 
L 390.460592 41.91626 
L 398.487273 41.91626 
L 398.487273 41.472 
L 398.487273 41.472 
" clip-path="url(#p37cf3d0678)" style="fill: none; stroke: #66c2a5; stroke-width: 1.5; stroke-linecap: round"/>
   </g>
   <g id="patch_3">
    <path d="M 57.6 307.584 
L 57.6 41.472 
" style="fill: none; stroke: #cccccc; stroke-width: 0.8; stroke-linejoin: miter; stroke-linecap: square"/>
   </g>
   <g id="patch_4">
    <path d="M 414.72 307.584 
L 414.72 41.472 
" style="fill: none; stroke: #cccccc; stroke-width: 0.8; stroke-linejoin: miter; stroke-linecap: square"/>
   </g>
   <g id="patch_5">
    <path d="M 57.6 307.584 
L 414.72 307.584 
" style="fill: none; stroke: #cccccc; stroke-width: 0.8; stroke-linejoin: miter; stroke-linecap: square"/>
   </g>
   <g id="patch_6">
    <path d="M 57.6 41.472 
L 414.72 41.472 
" style="fill: none; stroke: #cccccc; stroke-width: 0.8; stroke-linejoin: miter; stroke-linecap: square"/>
   </g>
   <g id="legend_1">
    <g id="patch_7">
     <path d="M 246.112938 249.3616 
L 354.152 249.3616 
Q 356.152 249.3616 356.152 247.3616 
L 356.152 189.6491 
Q 356.152 187.6491 354.152 187.6491 
L 246.112938 187.6491 
Q 244.112938 187.6491 244.112938 189.6491 
L 244.112938 247.3616 
Q 244.112938 249.3616 246.112938 249.3616 
z
" style="fill: #ffffff; opacity: 0.8; stroke: #cccccc; stroke-linejoin: miter"/>
    </g>
    <g id="text_17">
     <!-- number of ministries -->
     <g style="fill: #262626" transform="translate(248.112938 199.247537)scale(0.1 -0.1)">
      <defs>
       <path id="DejaVuSans-75" d="M 544 1381 
L 544 3500 
L 1119 3500 
L 1119 1403 
Q 1119 906 1312 657 
Q 1506 409 1894 409 
Q 2359 409 2629 706 
Q 2900 1003 2900 1516 
L 2900 3500 
L 3475 3500 
L 3475 0 
L 2900 0 
L 2900 538 
Q 2691 219 2414 64 
Q 2138 -91 1772 -91 
Q 1169 -91 856 284 
Q 544 659 544 1381 
z
M 1991 3584 
L 1991 3584 
z
" transform="scale(0.015625)"/>
       <path id="DejaVuSans-62" d="M 3116 1747 
Q 3116 2381 2855 2742 
Q 2594 3103 2138 3103 
Q 1681 3103 1420 2742 
Q 1159 2381 1159 1747 
Q 1159 1113 1420 752 
Q 1681 391 2138 391 
Q 2594 391 2855 752 
Q 3116 1113 3116 1747 
z
M 1159 2969 
Q 1341 3281 1617 3432 
Q 1894 3584 2278 3584 
Q 2916 3584 3314 3078 
Q 3713 2572 3713 1747 
Q 3713 922 3314 415 
Q 2916 -91 2278 -91 
Q 1894 -91 1617 61 
Q 1341 213 1159 525 
L 1159 0 
L 581 0 
L 581 4863 
L 1159 4863 
L 1159 2969 
z
" transform="scale(0.015625)"/>
      </defs>
      <use xlink:href="#DejaVuSans-6e"/>
      <use xlink:href="#DejaVuSans-75" x="63.378906"/>
      <use xlink:href="#DejaVuSans-6d" x="126.757812"/>
      <use xlink:href="#DejaVuSans-62" x="224.169922"/>
      <use xlink:href="#DejaVuSans-65" x="287.646484"/>
      <use xlink:href="#DejaVuSans-72" x="349.169922"/>
      <use xlink:href="#DejaVuSans-20" x="390.283203"/>
      <use xlink:href="#DejaVuSans-6f" x="422.070312"/>
      <use xlink:href="#DejaVuSans-66" x="483.251953"/>
      <use xlink:href="#DejaVuSans-20" x="518.457031"/>
      <use xlink:href="#DejaVuSans-6d" x="550.244141"/>
      <use xlink:href="#DejaVuSans-69" x="647.65625"/>
      <use xlink:href="#DejaVuSans-6e" x="675.439453"/>
      <use xlink:href="#DejaVuSans-69" x="738.818359"/>
      <use xlink:href="#DejaVuSans-73" x="766.601562"/>
      <use xlink:href="#DejaVuSans-74" x="818.701172"/>
      <use xlink:href="#DejaVuSans-72" x="857.910156"/>
      <use xlink:href="#DejaVuSans-69" x="899.023438"/>
      <use xlink:href="#DejaVuSans-65" x="926.806641"/>
      <use xlink:href="#DejaVuSans-73" x="988.330078"/>
     </g>
    </g>
    <g id="line2d_20">
     <path d="M 255.769969 210.425662 
L 265.769969 210.425662 
L 265.769969 210.425662 
L 275.769969 210.425662 
L 275.769969 210.425662 
" style="fill: none; stroke: #66c2a5; stroke-width: 1.5; stroke-linecap: round"/>
    </g>
    <g id="text_18">
     <!-- 1 -->
     <g style="fill: #262626" transform="translate(283.769969 213.925662)scale(0.1 -0.1)">
      <use xlink:href="#DejaVuSans-31"/>
     </g>
    </g>
    <g id="line2d_21">
     <path d="M 255.769969 225.103787 
L 265.769969 225.103787 
L 265.769969 225.103787 
L 275.769969 225.103787 
L 275.769969 225.103787 
" style="fill: none; stroke: #fc8d62; stroke-width: 1.5; stroke-linecap: round"/>
    </g>
    <g id="text_19">
     <!-- 2 -->
     <g style="fill: #262626" transform="translate(283.769969 228.603787)scale(0.1 -0.1)">
      <use xlink:href="#DejaVuSans-32"/>
     </g>
    </g>
    <g id="line2d_22">
     <path d="M 255.769969 239.781912 
L 265.769969 239.781912 
L 265.769969 239.781912 
L 275.769969 239.781912 
L 275.769969 239.781912 
" style="fill: none; stroke: #8da0cb; stroke-width: 1.5; stroke-linecap: round"/>
    </g>
    <g id="text_20">
     <!-- 3 -->
     <g style="fill: #262626" transform="translate(283.769969 243.281912)scale(0.1 -0.1)">
      <use xlink:href="#DejaVuSans-33"/>
     </g>
    </g>
    <g id="line2d_23">
     <path d="M 310.132469 210.425662 
L 320.132469 210.425662 
L 320.132469 210.425662 
L 330.132469 210.425662 
L 330.132469 210.425662 
" style="fill: none; stroke: #e78ac3; stroke-width: 1.5; stroke-linecap: round"/>
    </g>
    <g id="text_21">
     <!-- 4 -->
     <g style="fill: #262626" transform="translate(338.132469 213.925662)scale(0.1 -0.1)">
      <use xlink:href="#DejaVuSans-34"/>
     </g>
    </g>
    <g id="line2d_24">
     <path d="M 310.132469 225.103787 
L 320.132469 225.103787 
L 320.132469 225.103787 
L 330.132469 225.103787 
L 330.132469 225.103787 
" style="fill: none; stroke: #a6d854; stroke-width: 1.5; stroke-linecap: round"/>
    </g>
    <g id="text_22">
     <!-- 5 -->
     <g style="fill: #262626" transform="translate(338.132469 228.603787)scale(0.1 -0.1)">
      <use xlink:href="#DejaVuSans-35"/>
     </g>
    </g>
   </g>
  </g>
 </g>
 <defs>
  <clipPath id="p37cf3d0678">
   <rect x="57.6" y="41.472" width="357.12" height="266.112"/>
  </clipPath>
 </defs>
</svg>
