<?xml version="1.0" encoding="UTF-8" standalone="no"?>
<!-- Created with Inkscape (http://www.inkscape.org/) -->

<svg
   version="1.1"
   id="svg25"
   xml:space="preserve"
   width="529.98517"
   height="191.12"
   viewBox="0 0 529.98517 191.12"
   sodipodi:docname="gfs_arch.svg"
   inkscape:version="1.1.1 (3bf5ae0d25, 2021-09-20)"
   xmlns:inkscape="http://www.inkscape.org/namespaces/inkscape"
   xmlns:sodipodi="http://sodipodi.sourceforge.net/DTD/sodipodi-0.dtd"
   xmlns="http://www.w3.org/2000/svg"
   xmlns:svg="http://www.w3.org/2000/svg"><defs
     id="defs29"><clipPath
       clipPathUnits="userSpaceOnUse"
       id="clipPath41"><path
         d="M 0,0 H 612 V 792 H 0 Z"
         id="path39" /></clipPath><clipPath
       clipPathUnits="userSpaceOnUse"
       id="clipPath65"><path
         d="m 104.04,593.58 h 401.7 v 144.566 h -401.7 z m 325.36,70.683 v 2.057 h -5.177 l 4.114,-1.028 -4.114,-1.029"
         clip-rule="evenodd"
         id="path63" /></clipPath><clipPath
       clipPathUnits="userSpaceOnUse"
       id="clipPath71"><path
         d="M 0,0 H 612 V 792 H 0 Z"
         id="path69" /></clipPath><clipPath
       clipPathUnits="userSpaceOnUse"
       id="clipPath81"><path
         d="M 0,0 H 612 V 792 H 0 Z"
         id="path79" /></clipPath><clipPath
       clipPathUnits="userSpaceOnUse"
       id="clipPath91"><path
         d="m 104.04,593.58 h 401.7 v 144.566 h -401.7 z m 327.931,77.883 v 8.228 h -4.8 l 4.114,-4.114 -4.114,-4.114"
         clip-rule="evenodd"
         id="path89" /></clipPath><clipPath
       clipPathUnits="userSpaceOnUse"
       id="clipPath97"><path
         d="M 0,0 H 612 V 792 H 0 Z"
         id="path95" /></clipPath><clipPath
       clipPathUnits="userSpaceOnUse"
       id="clipPath107"><path
         d="M 0,0 H 612 V 792 H 0 Z"
         id="path105" /></clipPath><clipPath
       clipPathUnits="userSpaceOnUse"
       id="clipPath139"><path
         d="m 104.04,593.58 h 401.7 v 144.566 h -401.7 z m 17.828,115.939 h -8.228 v -4.8 l 4.114,4.114 4.114,-4.114"
         clip-rule="evenodd"
         id="path137" /></clipPath><clipPath
       clipPathUnits="userSpaceOnUse"
       id="clipPath145"><path
         d="M 0,0 H 612 V 792 H 0 Z"
         id="path143" /></clipPath><clipPath
       clipPathUnits="userSpaceOnUse"
       id="clipPath155"><path
         d="M 0,0 H 612 V 792 H 0 Z"
         id="path153" /></clipPath><clipPath
       clipPathUnits="userSpaceOnUse"
       id="clipPath165"><path
         d="m 104.04,593.58 h 401.7 v 144.566 h -401.7 z m 142.795,42.399 v 2.057 h -5.177 l 4.114,-1.029 -4.114,-1.028"
         clip-rule="evenodd"
         id="path163" /></clipPath><clipPath
       clipPathUnits="userSpaceOnUse"
       id="clipPath171"><path
         d="M 0,0 H 612 V 792 H 0 Z"
         id="path169" /></clipPath><clipPath
       clipPathUnits="userSpaceOnUse"
       id="clipPath181"><path
         d="m 104.04,593.58 h 401.7 v 144.566 h -401.7 z"
         id="path179" /></clipPath><clipPath
       clipPathUnits="userSpaceOnUse"
       id="clipPath193"><path
         d="m 104.04,593.58 h 401.7 v 144.566 h -401.7 z m 142.795,124.681 v 2.057 h -5.177 l 4.114,-1.028 -4.114,-1.029"
         clip-rule="evenodd"
         id="path191" /></clipPath><clipPath
       clipPathUnits="userSpaceOnUse"
       id="clipPath199"><path
         d="M 0,0 H 612 V 792 H 0 Z"
         id="path197" /></clipPath><clipPath
       clipPathUnits="userSpaceOnUse"
       id="clipPath209"><path
         d="M 0,0 H 612 V 792 H 0 Z"
         id="path207" /></clipPath><clipPath
       clipPathUnits="userSpaceOnUse"
       id="clipPath219"><path
         d="m 104.04,593.58 h 401.7 v 144.566 h -401.7 z m 46.627,119.024 v -2.057 h 5.177 l -4.114,1.029 4.114,1.028"
         clip-rule="evenodd"
         id="path217" /></clipPath><clipPath
       clipPathUnits="userSpaceOnUse"
       id="clipPath225"><path
         d="M 0,0 H 612 V 792 H 0 Z"
         id="path223" /></clipPath><clipPath
       clipPathUnits="userSpaceOnUse"
       id="clipPath235"><path
         d="m 104.04,593.58 h 401.7 v 144.566 h -401.7 z"
         id="path233" /></clipPath><clipPath
       clipPathUnits="userSpaceOnUse"
       id="clipPath247"><path
         d="M 0,0 H 612 V 792 H 0 Z"
         id="path245" /></clipPath><clipPath
       clipPathUnits="userSpaceOnUse"
       id="clipPath257"><path
         d="m 104.04,593.58 h 401.7 v 144.566 h -401.7 z m 151.023,77.369 h -2.057 v -5.177 l 1.029,4.114 1.028,-4.114"
         clip-rule="evenodd"
         id="path255" /></clipPath><clipPath
       clipPathUnits="userSpaceOnUse"
       id="clipPath263"><path
         d="M 0,0 H 612 V 792 H 0 Z"
         id="path261" /></clipPath><clipPath
       clipPathUnits="userSpaceOnUse"
       id="clipPath273"><path
         d="M 0,0 H 612 V 792 H 0 Z"
         id="path271" /></clipPath><clipPath
       clipPathUnits="userSpaceOnUse"
       id="clipPath283"><path
         d="m 104.04,593.58 h 401.7 v 144.566 h -401.7 z m 156.68,45.484 h 2.057 v 5.177 l -1.028,-4.114 -1.029,4.114"
         clip-rule="evenodd"
         id="path281" /></clipPath><clipPath
       clipPathUnits="userSpaceOnUse"
       id="clipPath289"><path
         d="M 0,0 H 612 V 792 H 0 Z"
         id="path287" /></clipPath><clipPath
       clipPathUnits="userSpaceOnUse"
       id="clipPath299"><path
         d="M 0,0 H 612 V 792 H 0 Z"
         id="path297" /></clipPath><clipPath
       clipPathUnits="userSpaceOnUse"
       id="clipPath309"><path
         d="m 104.04,593.58 h 401.7 v 144.566 h -401.7 z m 274.962,45.484 h 2.057 v 5.177 l -1.029,-4.114 -1.028,4.114"
         clip-rule="evenodd"
         id="path307" /></clipPath><clipPath
       clipPathUnits="userSpaceOnUse"
       id="clipPath315"><path
         d="M 0,0 H 612 V 792 H 0 Z"
         id="path313" /></clipPath><clipPath
       clipPathUnits="userSpaceOnUse"
       id="clipPath325"><path
         d="M 0,0 H 612 V 792 H 0 Z"
         id="path323" /></clipPath><clipPath
       clipPathUnits="userSpaceOnUse"
       id="clipPath335"><path
         d="m 104.04,593.58 h 401.7 v 144.566 h -401.7 z m 269.305,77.369 h -2.057 v -5.177 l 1.028,4.114 1.029,-4.114"
         clip-rule="evenodd"
         id="path333" /></clipPath><clipPath
       clipPathUnits="userSpaceOnUse"
       id="clipPath341"><path
         d="M 0,0 H 612 V 792 H 0 Z"
         id="path339" /></clipPath><clipPath
       clipPathUnits="userSpaceOnUse"
       id="clipPath351"><path
         d="M 0,0 H 612 V 792 H 0 Z"
         id="path349" /></clipPath><clipPath
       clipPathUnits="userSpaceOnUse"
       id="clipPath363"><path
         d="m 104.04,593.58 h 401.7 v 144.566 h -401.7 z m 222.369,129.79 0.24,2.057 -5.177,0.548 4.012,-1.474 -4.217,-0.583"
         clip-rule="evenodd"
         id="path361" /></clipPath><clipPath
       clipPathUnits="userSpaceOnUse"
       id="clipPath369"><path
         d="M 0,0 H 612 V 792 H 0 Z"
         id="path367" /></clipPath><clipPath
       clipPathUnits="userSpaceOnUse"
       id="clipPath379"><path
         d="M 0,0 H 612 V 792 H 0 Z"
         id="path377" /></clipPath></defs><sodipodi:namedview
     id="namedview27"
     pagecolor="#ffffff"
     bordercolor="#666666"
     borderopacity="1.0"
     inkscape:pageshadow="2"
     inkscape:pageopacity="0.0"
     inkscape:pagecheckerboard="0"
     showgrid="false"
     inkscape:zoom="2.4547855"
     inkscape:cx="232.81057"
     inkscape:cy="63.549341"
     inkscape:window-width="3840"
     inkscape:window-height="1014"
     inkscape:window-x="0"
     inkscape:window-y="50"
     inkscape:window-maximized="0"
     inkscape:current-layer="g31" /><g
     id="g31"
     inkscape:groupmode="layer"
     inkscape:label="gfs"
     transform="matrix(1.3333333,0,0,-1.3333333,-139.69133,983.22331)"><g
       id="g33" /><g
       id="g35"><g
         id="g37"
         clip-path="url(#clipPath41)"><path
           d="m 266.923,595.92 c 0,-0.946 -2.304,-1.714 -5.143,-1.714 -2.839,0 -5.143,0.768 -5.143,1.714 0,0.946 2.304,1.714 5.143,1.714 2.839,0 5.143,-0.768 5.143,-1.714 z"
           style="fill:#ffffff;fill-opacity:1;fill-rule:evenodd;stroke:#000000;stroke-width:0.257;stroke-linecap:butt;stroke-linejoin:miter;stroke-miterlimit:10;stroke-dasharray:none;stroke-opacity:1"
           id="path43" /><path
           d="m 287.443,595.92 c 0,-0.946 -2.304,-1.714 -5.143,-1.714 -2.839,0 -5.143,0.768 -5.143,1.714 0,0.946 2.304,1.714 5.143,1.714 2.839,0 5.143,-0.768 5.143,-1.714 z"
           style="fill:#ffffff;fill-opacity:1;fill-rule:evenodd;stroke:#000000;stroke-width:0.257;stroke-linecap:butt;stroke-linejoin:miter;stroke-miterlimit:10;stroke-dasharray:none;stroke-opacity:1"
           id="path45" /><path
           d="m 359.443,595.92 c 0,-0.946 -2.304,-1.714 -5.143,-1.714 -2.839,0 -5.143,0.768 -5.143,1.714 0,0.946 2.304,1.714 5.143,1.714 2.839,0 5.143,-0.768 5.143,-1.714 z"
           style="fill:#ffffff;fill-opacity:1;fill-rule:evenodd;stroke:#000000;stroke-width:0.257;stroke-linecap:butt;stroke-linejoin:miter;stroke-miterlimit:10;stroke-dasharray:none;stroke-opacity:1"
           id="path47" /><path
           d="m 380.023,595.92 c 0,-0.946 -2.304,-1.714 -5.143,-1.714 -2.839,0 -5.143,0.768 -5.143,1.714 0,0.946 2.304,1.714 5.143,1.714 2.839,0 5.143,-0.768 5.143,-1.714 z"
           style="fill:#ffffff;fill-opacity:1;fill-rule:evenodd;stroke:#000000;stroke-width:0.257;stroke-linecap:butt;stroke-linejoin:miter;stroke-miterlimit:10;stroke-dasharray:none;stroke-opacity:1"
           id="path49" /><path
           d="m 256.606,595.9 h 10.285 v 3.428 h -10.285 z"
           style="fill:#ffffff;fill-opacity:1;fill-rule:evenodd;stroke:none"
           id="path51" /><path
           d="m 277.177,595.9 h 10.285 v 3.428 h -10.285 z"
           style="fill:#ffffff;fill-opacity:1;fill-rule:evenodd;stroke:none"
           id="path53" /><path
           d="m 349.174,595.9 h 10.285 v 3.428 h -10.285 z"
           style="fill:#ffffff;fill-opacity:1;fill-rule:evenodd;stroke:none"
           id="path55" /><path
           d="m 369.745,595.9 h 10.285 v 3.428 h -10.285 z"
           style="fill:#ffffff;fill-opacity:1;fill-rule:evenodd;stroke:none"
           id="path57" /></g></g><g
       id="g59"><g
         id="g61"
         clip-path="url(#clipPath65)"><g
           id="g67"
           clip-path="url(#clipPath71)"><path
             d="m 410.886,665.292 h 18"
             style="fill:none;stroke:#000000;stroke-width:0.257;stroke-linecap:butt;stroke-linejoin:miter;stroke-miterlimit:10;stroke-dasharray:none;stroke-opacity:1"
             id="path73" /></g></g></g><g
       id="g75"><g
         id="g77"
         clip-path="url(#clipPath81)"><path
           d="m 424.223,664.263 4.114,1.029 -4.114,1.028 z"
           style="fill:#000000;fill-opacity:1;fill-rule:evenodd;stroke:#000000;stroke-width:0.257;stroke-linecap:butt;stroke-linejoin:miter;stroke-miterlimit:10;stroke-dasharray:none;stroke-opacity:1"
           id="path83" /></g></g><g
       id="g85"><g
         id="g87"
         clip-path="url(#clipPath91)"><g
           id="g93"
           clip-path="url(#clipPath97)"><path
             d="m 410.886,675.577 h 20.571"
             style="fill:none;stroke:#000000;stroke-width:3.6;stroke-linecap:butt;stroke-linejoin:miter;stroke-miterlimit:10;stroke-dasharray:none;stroke-opacity:1"
             id="path99" /></g></g></g><g
       id="g101"><g
         id="g103"
         clip-path="url(#clipPath107)"><path
           d="m 427.171,671.463 4.114,4.114 -4.114,4.114 z"
           style="fill:#000000;fill-opacity:1;fill-rule:evenodd;stroke:#000000;stroke-width:0.257;stroke-linecap:butt;stroke-linejoin:miter;stroke-miterlimit:10;stroke-dasharray:none;stroke-opacity:1"
           id="path109" /><text
           transform="matrix(1,0,0,-1,410.8862,688.4338)"
           style="font-variant:normal;font-weight:normal;font-size:8.2283px;font-family:Times;-inkscape-font-specification:Times-Roman;writing-mode:lr-tb;fill:#000000;fill-opacity:1;fill-rule:nonzero;stroke:none"
           id="text113"><tspan
             x="0 5.0274911 8.6808567 12.795007 16.448372 20.562521 24.676672"
             y="0"
             sodipodi:role="line"
             id="tspan111">Legend:</tspan></text><text
           transform="matrix(1,0,0,-1,444.3137,673.0057)"
           style="font-variant:normal;font-weight:normal;font-size:8.2283px;font-family:Times;-inkscape-font-specification:Times-Roman;writing-mode:lr-tb;fill:#000000;fill-opacity:1;fill-rule:nonzero;stroke:none"
           id="text117"><tspan
             x="0 5.9408326 9.5941982 11.881665 15.53503 17.592106 23.993723 27.647087 30.847897 34.048706 37.702072 41.816219 45.469585"
             y="0"
             sodipodi:role="line"
             id="tspan115">Data messages</tspan></text><text
           transform="matrix(1,0,0,-1,444.3137,662.7204)"
           style="font-variant:normal;font-weight:normal;font-size:8.2283px;font-family:Times;-inkscape-font-specification:Times-Roman;writing-mode:lr-tb;fill:#000000;fill-opacity:1;fill-rule:nonzero;stroke:none"
           id="text121"><tspan
             x="0 5.488276 9.6024265 13.716577 16.004044 18.744068 22.858217 25.145685 27.202761 33.604378 37.257744 40.458549 43.659359 47.312725 51.426876 55.080238"
             y="0"
             sodipodi:role="line"
             id="tspan119">Control messages</tspan></text><path
           d="m 277.177,706.433 -10.286,-10.285 m 10.286,10.285 v -10.285 m 0,10.285 10.285,-10.285 m -20.571,0 -10.285,-10.286 m 10.285,10.286 v -10.286 m 0,10.286 10.286,-10.286 m 0,0 -10.286,-10.285 m 10.286,10.285 v -10.285 m 0,10.285 10.285,-10.285"
           style="fill:none;stroke:#000000;stroke-width:0.514;stroke-linecap:butt;stroke-linejoin:miter;stroke-miterlimit:10;stroke-dasharray:none;stroke-opacity:1"
           id="path123" /><path
           d="m 266.923,604.5 c 0,-0.946 -2.304,-1.714 -5.143,-1.714 -2.839,0 -5.143,0.768 -5.143,1.714 0,0.946 2.304,1.714 5.143,1.714 2.839,0 5.143,-0.768 5.143,-1.714 z m -10.317,-0.029 V 595.9 m 10.285,8.571 V 595.9 m 20.552,8.6 c 0,-0.946 -2.304,-1.714 -5.143,-1.714 -2.839,0 -5.143,0.768 -5.143,1.714 0,0.946 2.304,1.714 5.143,1.714 2.839,0 5.143,-0.768 5.143,-1.714 z m -10.266,-0.029 V 595.9 m 10.285,8.571 V 595.9"
           style="fill:none;stroke:#000000;stroke-width:0.257;stroke-linecap:butt;stroke-linejoin:miter;stroke-miterlimit:10;stroke-dasharray:none;stroke-opacity:1"
           id="path125" /><path
           d="m 295.176,598.437 h 12.857"
           style="fill:#000000;fill-opacity:1;fill-rule:evenodd;stroke:#000000;stroke-width:1.029;stroke-linecap:butt;stroke-linejoin:miter;stroke-miterlimit:10;stroke-dasharray:1.543;stroke-dashoffset:0;stroke-opacity:1"
           id="path127" /><path
           d="m 359.443,604.5 c 0,-0.946 -2.304,-1.714 -5.143,-1.714 -2.839,0 -5.143,0.768 -5.143,1.714 0,0.946 2.304,1.714 5.143,1.714 2.839,0 5.143,-0.768 5.143,-1.714 z m -10.269,-0.029 V 595.9 m 10.285,8.571 V 595.9 m 20.564,8.6 c 0,-0.946 -2.304,-1.714 -5.143,-1.714 -2.839,0 -5.143,0.768 -5.143,1.714 0,0.946 2.304,1.714 5.143,1.714 2.839,0 5.143,-0.768 5.143,-1.714 z m -10.278,-0.029 V 595.9 m 10.285,8.571 V 595.9"
           style="fill:none;stroke:#000000;stroke-width:0.257;stroke-linecap:butt;stroke-linejoin:miter;stroke-miterlimit:10;stroke-dasharray:none;stroke-opacity:1"
           id="path129" /><path
           d="m 387.744,598.437 h 12.857"
           style="fill:#000000;fill-opacity:1;fill-rule:evenodd;stroke:#000000;stroke-width:1.029;stroke-linecap:butt;stroke-linejoin:miter;stroke-miterlimit:10;stroke-dasharray:1.543;stroke-dashoffset:0;stroke-opacity:1"
           id="path131" /></g></g><g
       id="g133"><g
         id="g135"
         clip-path="url(#clipPath139)"><g
           id="g141"
           clip-path="url(#clipPath145)"><path
             d="M 246.321,631.864 H 117.754 v 77.141"
             style="fill:none;stroke:#000000;stroke-width:3.6;stroke-linecap:butt;stroke-linejoin:miter;stroke-miterlimit:10;stroke-dasharray:none;stroke-opacity:1"
             id="path147" /></g></g></g><g
       id="g149"><g
         id="g151"
         clip-path="url(#clipPath155)"><path
           d="m 121.868,704.719 -4.114,4.114 -4.114,-4.114 z"
           style="fill:#000000;fill-opacity:1;fill-rule:evenodd;stroke:#000000;stroke-width:0.257;stroke-linecap:butt;stroke-linejoin:miter;stroke-miterlimit:10;stroke-dasharray:none;stroke-opacity:1"
           id="path157" /></g></g><g
       id="g159"><g
         id="g161"
         clip-path="url(#clipPath165)"><g
           id="g167"
           clip-path="url(#clipPath171)"><path
             d="M 135.753,709.005 V 637.007 H 246.321"
             style="fill:none;stroke:#000000;stroke-width:0.257;stroke-linecap:butt;stroke-linejoin:miter;stroke-miterlimit:10;stroke-dasharray:none;stroke-opacity:1"
             id="path173" /></g></g></g><g
       id="g175"><g
         id="g177"
         clip-path="url(#clipPath181)"><path
           d="m 241.658,635.979 4.114,1.028 -4.114,1.029 z"
           style="fill:#000000;fill-opacity:1;fill-rule:evenodd;stroke:#000000;stroke-width:0.257;stroke-linecap:butt;stroke-linejoin:miter;stroke-miterlimit:10;stroke-dasharray:none;stroke-opacity:1"
           id="path183" /><path
           d="m 104.897,721.861 h 46.284 m -46.284,15.428 h 46.284 v -28.285 h -46.284 z"
           style="fill:none;stroke:#000000;stroke-width:0.257;stroke-linecap:butt;stroke-linejoin:miter;stroke-miterlimit:10;stroke-dasharray:none;stroke-opacity:1"
           id="path185" /></g></g><g
       id="g187"><g
         id="g189"
         clip-path="url(#clipPath193)"><g
           id="g195"
           clip-path="url(#clipPath199)"><path
             d="m 151.181,719.29 h 95.14"
             style="fill:none;stroke:#000000;stroke-width:0.257;stroke-linecap:butt;stroke-linejoin:miter;stroke-miterlimit:10;stroke-dasharray:none;stroke-opacity:1"
             id="path201" /></g></g></g><g
       id="g203"><g
         id="g205"
         clip-path="url(#clipPath209)"><path
           d="m 241.658,718.261 4.114,1.029 -4.114,1.028 z"
           style="fill:#000000;fill-opacity:1;fill-rule:evenodd;stroke:#000000;stroke-width:0.257;stroke-linecap:butt;stroke-linejoin:miter;stroke-miterlimit:10;stroke-dasharray:none;stroke-opacity:1"
           id="path211" /></g></g><g
       id="g213"><g
         id="g215"
         clip-path="url(#clipPath219)"><g
           id="g221"
           clip-path="url(#clipPath225)"><path
             d="m 246.321,711.576 h -95.14"
             style="fill:none;stroke:#000000;stroke-width:0.257;stroke-linecap:butt;stroke-linejoin:miter;stroke-miterlimit:10;stroke-dasharray:none;stroke-opacity:1"
             id="path227" /></g></g></g><g
       id="g229"><g
         id="g231"
         clip-path="url(#clipPath235)"><path
           d="m 155.844,712.604 -4.114,-1.028 4.114,-1.029 z"
           style="fill:#000000;fill-opacity:1;fill-rule:evenodd;stroke:#000000;stroke-width:0.257;stroke-linecap:butt;stroke-linejoin:miter;stroke-miterlimit:10;stroke-dasharray:none;stroke-opacity:1"
           id="path237" /><path
           d="M 246.321,737.289 H 387.745 V 670.434 H 246.321 Z"
           style="fill:none;stroke:#000000;stroke-width:0.257;stroke-linecap:butt;stroke-linejoin:miter;stroke-miterlimit:10;stroke-dasharray:none;stroke-opacity:1"
           id="path239" /></g></g><g
       id="g241"><g
         id="g243"
         clip-path="url(#clipPath247)"><path
           d="M 449.456,626.722 H 436.6"
           style="fill:none;stroke:#000000;stroke-width:1.029;stroke-linecap:butt;stroke-linejoin:miter;stroke-miterlimit:10;stroke-dasharray:1.543;stroke-dashoffset:0;stroke-opacity:1"
           id="path249" /></g></g><g
       id="g251"><g
         id="g253"
         clip-path="url(#clipPath257)"><g
           id="g259"
           clip-path="url(#clipPath263)"><path
             d="m 254.035,639.578 v 30.856"
             style="fill:none;stroke:#000000;stroke-width:0.257;stroke-linecap:butt;stroke-linejoin:miter;stroke-miterlimit:10;stroke-dasharray:none;stroke-opacity:1"
             id="path265" /></g></g></g><g
       id="g267"><g
         id="g269"
         clip-path="url(#clipPath273)"><path
           d="m 255.063,665.772 -1.028,4.114 -1.029,-4.114 z"
           style="fill:#000000;fill-opacity:1;fill-rule:evenodd;stroke:#000000;stroke-width:0.257;stroke-linecap:butt;stroke-linejoin:miter;stroke-miterlimit:10;stroke-dasharray:none;stroke-opacity:1"
           id="path275" /></g></g><g
       id="g277"><g
         id="g279"
         clip-path="url(#clipPath283)"><g
           id="g285"
           clip-path="url(#clipPath289)"><path
             d="M 261.749,670.434 V 639.578"
             style="fill:none;stroke:#000000;stroke-width:0.257;stroke-linecap:butt;stroke-linejoin:miter;stroke-miterlimit:10;stroke-dasharray:none;stroke-opacity:1"
             id="path291" /></g></g></g><g
       id="g293"><g
         id="g295"
         clip-path="url(#clipPath299)"><path
           d="m 260.72,644.241 1.029,-4.114 1.028,4.114 z"
           style="fill:#000000;fill-opacity:1;fill-rule:evenodd;stroke:#000000;stroke-width:0.257;stroke-linecap:butt;stroke-linejoin:miter;stroke-miterlimit:10;stroke-dasharray:none;stroke-opacity:1"
           id="path301" /></g></g><g
       id="g303"><g
         id="g305"
         clip-path="url(#clipPath309)"><g
           id="g311"
           clip-path="url(#clipPath315)"><path
             d="M 380.03,670.434 V 639.578"
             style="fill:none;stroke:#000000;stroke-width:0.257;stroke-linecap:butt;stroke-linejoin:miter;stroke-miterlimit:10;stroke-dasharray:none;stroke-opacity:1"
             id="path317" /></g></g></g><g
       id="g319"><g
         id="g321"
         clip-path="url(#clipPath325)"><path
           d="m 379.002,644.241 1.028,-4.114 1.029,4.114 z"
           style="fill:#000000;fill-opacity:1;fill-rule:evenodd;stroke:#000000;stroke-width:0.257;stroke-linecap:butt;stroke-linejoin:miter;stroke-miterlimit:10;stroke-dasharray:none;stroke-opacity:1"
           id="path327" /></g></g><g
       id="g329"><g
         id="g331"
         clip-path="url(#clipPath335)"><g
           id="g337"
           clip-path="url(#clipPath341)"><path
             d="m 372.316,639.578 v 30.856"
             style="fill:none;stroke:#000000;stroke-width:0.257;stroke-linecap:butt;stroke-linejoin:miter;stroke-miterlimit:10;stroke-dasharray:none;stroke-opacity:1"
             id="path343" /></g></g></g><g
       id="g345"><g
         id="g347"
         clip-path="url(#clipPath351)"><path
           d="m 373.345,665.772 -1.029,4.114 -1.028,-4.114 z"
           style="fill:#000000;fill-opacity:1;fill-rule:evenodd;stroke:#000000;stroke-width:0.257;stroke-linecap:butt;stroke-linejoin:miter;stroke-miterlimit:10;stroke-dasharray:none;stroke-opacity:1"
           id="path353" /><path
           d="m 338.889,626.722 h 77.14 m -77.14,12.856 h 77.14 v -25.713 h -77.14 z m -92.568,-12.856 h 77.14 m -77.14,12.856 h 77.14 v -25.713 h -77.14 z m 5.142,-25.713 v -12.857 h 5.143 m 15.428,12.857 v -12.857 h 5.143 m 66.854,12.857 v -12.857 h 5.143 m 15.428,12.857 v -12.857 h 5.143 m -41.142,120.853 h 41.141 v -10.285 h -41.141 z m 0,-10.285 h 41.141 v -10.285 h -41.141 z m 0,-10.285 h 41.141 v -10.285 h -41.141 z m 0,-10.286 h 41.141 V 680.72 h -41.141 z"
           style="fill:none;stroke:#000000;stroke-width:0.257;stroke-linecap:butt;stroke-linejoin:miter;stroke-miterlimit:10;stroke-dasharray:none;stroke-opacity:1"
           id="path355" /></g></g><g
       id="g357"><g
         id="g359"
         clip-path="url(#clipPath363)"><g
           id="g365"
           clip-path="url(#clipPath369)"><path
             d="m 287.462,675.577 0.034,0.034 0.103,0.069 0.172,0.137 0.24,0.172 0.308,0.274 0.412,0.343 0.445,0.377 0.549,0.445 0.548,0.48 0.617,0.515 0.618,0.583 0.651,0.617 0.686,0.651 0.72,0.754 0.754,0.789 0.788,0.857 0.858,0.994 0.891,1.063 0.891,1.131 0.892,1.166 0.788,1.097 0.686,0.995 0.617,0.891 0.48,0.754 0.377,0.652 0.275,0.514 0.24,0.446 0.205,0.411 0.172,0.377 0.137,0.343 0.171,0.377 0.172,0.411 0.24,0.446 0.274,0.549 0.343,0.583 0.377,0.685 0.411,0.72 0.446,0.754 0.411,0.686 0.172,0.309 0.171,0.274 0.275,0.411 0.137,0.275 0.068,0.068 0.035,0.035 v -0.035 l -0.069,-0.137 -0.034,-0.103 -0.206,-0.411 -0.069,-0.172 -0.102,-0.171 -0.069,-0.171 -0.103,-0.172 -0.068,-0.171 -0.103,-0.172 -0.069,-0.171 -0.103,-0.172 -0.205,-0.411 -0.069,-0.103 -0.034,-0.068 -0.035,-0.069 -0.034,-0.034 v 0.034 l 0.034,0.069 0.035,0.137 0.068,0.137 0.137,0.411 0.103,0.275 0.137,0.308 0.275,0.686 0.308,0.754 0.309,0.789 0.274,0.72 0.274,0.685 0.275,0.652 0.24,0.583 0.205,0.548 0.412,1.029 0.205,0.48 0.206,0.514 0.206,0.548 0.24,0.583 0.274,0.652 0.274,0.685 0.275,0.72 0.308,0.789 0.309,0.754 0.274,0.686 0.137,0.308 0.103,0.275 0.137,0.411 0.069,0.172 0.034,0.102 0.034,0.069 v 0.069 l -0.034,-0.035 -0.034,-0.034 -0.035,-0.069 -0.068,-0.068 -0.069,-0.103 -0.068,-0.137 -0.069,-0.137 -0.103,-0.137 -0.068,-0.138 -0.103,-0.171 -0.069,-0.171 -0.102,-0.138 -0.069,-0.171 -0.103,-0.171 -0.206,-0.412 -0.068,-0.103 -0.034,-0.103 -0.069,-0.137 v -0.034 l 0.034,0.034 0.069,0.035 0.137,0.205 0.137,0.137 0.137,0.206 0.172,0.206 0.171,0.24 0.48,0.617 0.48,0.686 0.48,0.651 0.411,0.617 0.343,0.549 0.309,0.514 0.274,0.48 0.24,0.411 0.412,0.823 0.274,0.412 0.274,0.48 0.377,0.514 0.48,0.617 0.583,0.651 0.686,0.755 0.754,0.754 0.857,0.754 0.96,0.72 0.891,0.617 0.789,0.446 0.754,0.343 0.652,0.206 0.617,0.171 0.583,0.103 0.548,0.034 0.48,0.034 h 0.446 l 0.343,-0.034 0.651,-0.068"
             style="fill:none;stroke:#000000;stroke-width:0.257;stroke-linecap:butt;stroke-linejoin:miter;stroke-miterlimit:10;stroke-dasharray:1.543;stroke-dashoffset:0;stroke-opacity:1"
             id="path371" /></g></g></g><path
       d="m 321.267,723.918 4.217,0.583 -4.012,1.474 z"
       style="fill:#000000;fill-opacity:1;fill-rule:evenodd;stroke:#000000;stroke-width:0.257;stroke-linecap:butt;stroke-linejoin:miter;stroke-miterlimit:10;stroke-dasharray:none;stroke-opacity:1"
       id="path381" /><text
       transform="scale(1,-1)"
       style="font-variant:normal;font-weight:normal;font-size:8.2283px;font-family:Times;-inkscape-font-specification:Times-Roman;writing-mode:lr-tb;fill:#000000;fill-opacity:1;fill-rule:nonzero;stroke:none"
       id="text385"
       x="110.0398"
       y="-727.00391"><tspan
         x="110.0398 115.98063 120.09478 124.20893 126.4964 128.78387 132.43723 136.09059 138.37807 140.66553 144.77968"
         y="-727.00391"
         sodipodi:role="line"
         id="tspan383">Application</tspan></text><text
       transform="scale(1,-1)"
       style="font-variant:normal;font-weight:normal;font-size:8.2283px;font-family:Times;-inkscape-font-specification:Times-Roman;writing-mode:lr-tb;fill:#000000;fill-opacity:1;fill-rule:nonzero;stroke:none"
       id="text389"
       x="156.32401"
       y="-721.86121"><tspan
         x="156.32401 159.06403 161.80405 164.09152 166.37898 170.03235 172.08942 176.20357 179.85693 186.25856 189.91193 191.96899 194.02608 197.67943 201.79358 205.90773 210.02188 214.13603 216.19312 218.48058 222.59473 226.70888 230.36224 234.47639"
         y="-721.86121"
         sodipodi:role="line"
         id="tspan387">(file name, chunk index)</tspan></text><text
       transform="scale(1,-1)"
       style="font-variant:normal;font-weight:normal;font-size:8.2283px;font-family:Times;-inkscape-font-specification:Times-Roman;writing-mode:lr-tb;fill:#000000;fill-opacity:1;fill-rule:nonzero;stroke:none"
       id="text393"
       x="166.60941"
       y="-701.29053"><tspan
         x="166.60941 169.34943 173.00279 177.11694 181.23109 185.34525 189.4594 191.51646 195.63062 199.28398 203.39813 207.51228 209.79974 213.45311"
         y="-701.29053"
         sodipodi:role="line"
         id="tspan391">(chunk handle,</tspan></text><text
       transform="scale(1,-1)"
       style="font-variant:normal;font-weight:normal;font-size:8.2283px;font-family:Times;-inkscape-font-specification:Times-Roman;writing-mode:lr-tb;fill:#000000;fill-opacity:1;fill-rule:nonzero;stroke:none"
       id="text397"
       x="169.18069"
       y="-693.57642"><tspan
         x="169.18069 172.83406 176.94821 181.06236 185.17651 189.29066 191.34773 193.63521 197.74936 201.40273 205.05609 207.34355 209.63103 213.74518 217.85933 221.06013"
         y="-693.57642"
         sodipodi:role="line"
         id="tspan395">chunk locations)</tspan></text><text
       transform="scale(1,-1)"
       style="font-variant:normal;font-weight:bold;font-size:8.2283px;font-family:Times;-inkscape-font-specification:Times-Bold;writing-mode:lr-tb;fill:#000000;fill-opacity:1;fill-rule:nonzero;stroke:none"
       id="text401"
       x="251.4637"
       y="-724.43262"><tspan
         x="251.4637 257.86533 262.89282 267.46774 269.52481 276.379 280.49313 283.69394 286.43399 290.08734"
         y="-724.43262"
         sodipodi:role="line"
         id="tspan399">GFS master</tspan></text><text
       transform="scale(1,-1)"
       style="font-variant:normal;font-weight:normal;font-size:8.2283px;font-family:Times;-inkscape-font-specification:Times-Roman;writing-mode:lr-tb;fill:#000000;fill-opacity:1;fill-rule:nonzero;stroke:none"
       id="text405"
       x="251.4637"
       y="-711.57581"><tspan
         x="251.4637 256.03864 258.32611 260.61356 264.26694 266.32401 270.43817 274.09152 280.49313 284.14651 287.34732 291.46146 295.11484 298.76819"
         y="-711.57581"
         sodipodi:role="line"
         id="tspan403">File namespace</tspan></text><text
       transform="scale(1,-1)"
       style="font-variant:normal;font-weight:normal;font-size:8.2283px;font-family:Times;-inkscape-font-specification:Times-Roman;writing-mode:lr-tb;fill:#000000;fill-opacity:1;fill-rule:nonzero;stroke:none"
       id="text409"
       x="328.604"
       y="-724.43262"><tspan
         x="328.604 330.89148 333.6315 337.74564 341.8598 344.14725 348.26141 351.91476"
         y="-724.43262"
         sodipodi:role="line"
         id="tspan407">/foo/bar</tspan></text><text
       transform="scale(1,-1)"
       style="font-variant:normal;font-weight:normal;font-size:8.2283px;font-family:Times;-inkscape-font-specification:Times-Roman;writing-mode:lr-tb;fill:#000000;fill-opacity:1;fill-rule:nonzero;stroke:none"
       id="text413"
       x="264.3204"
       y="-660.14899"><tspan
         x="264.3204 267.06042 271.17456 274.3754 276.66284 279.40286 283.51703 287.17038 289.45786 291.74533 295.85947 299.97363 303.17444 305.23151 307.51898 311.63312 313.69019 317.34357 321.4577 325.57187 329.686 333.80017 337.00098 340.65433 343.39435 347.50851 351.16187"
         y="-660.14899"
         sodipodi:role="line"
         id="tspan411">Instructions to chunkserver</tspan></text><text
       transform="scale(1,-1)"
       style="font-variant:normal;font-weight:normal;font-size:8.2283px;font-family:Times;-inkscape-font-specification:Times-Roman;writing-mode:lr-tb;fill:#000000;fill-opacity:1;fill-rule:nonzero;stroke:none"
       id="text417"
       x="308.03329"
       y="-644.72089"><tspan
         x="308.03329 313.52158 317.63571 321.74988 325.86401 329.97818 333.17899 336.83234 339.57239 343.68652 347.33987 350.07993 352.13699 355.3378 357.62527 361.27863 363.5661"
         y="-644.72089"
         sodipodi:role="line"
         id="tspan415">Chunkserver state</tspan></text><text
       transform="scale(1,-1)"
       style="font-variant:normal;font-weight:bold;font-size:8.2283px;font-family:Times;-inkscape-font-specification:Times-Bold;writing-mode:lr-tb;fill:#000000;fill-opacity:1;fill-rule:nonzero;stroke:none"
       id="text421"
       x="344.0321"
       y="-629.29279"><tspan
         x="344.0321 350.43372 355.46121 360.03613 362.09323 365.74658 370.32153 374.89645 379.47137 384.04633 387.24713 390.90048 394.55386 398.668 402.32138"
         y="-629.29279"
         sodipodi:role="line"
         id="tspan419">GFS chunkserver</tspan></text><text
       transform="scale(1,-1)"
       style="font-variant:normal;font-weight:bold;font-size:8.2283px;font-family:Times;-inkscape-font-specification:Times-Bold;writing-mode:lr-tb;fill:#000000;fill-opacity:1;fill-rule:nonzero;stroke:none"
       id="text425"
       x="251.4637"
       y="-629.29279"><tspan
         x="251.4637 257.86533 262.89282 267.46774 269.52481 273.17819 277.75311 282.32806 286.90298 291.47794 294.67874 298.33209 301.98547 306.09961 309.75299"
         y="-629.29279"
         sodipodi:role="line"
         id="tspan423">GFS chunkserver</tspan></text><text
       transform="scale(1,-1)"
       style="font-variant:normal;font-weight:normal;font-size:8.2283px;font-family:Times;-inkscape-font-specification:Times-Roman;writing-mode:lr-tb;fill:#000000;fill-opacity:1;fill-rule:nonzero;stroke:none"
       id="text429"
       x="146.0386"
       y="-639.57819"><tspan
         x="146.0386 148.77863 152.43199 156.54614 160.66029 164.77444 168.8886 170.94566 175.05981 178.71318 182.82733 186.94148 189.22894 192.88231 194.93939 196.99646 201.11061 205.22476 207.51222 211.16559 213.22267 215.96269 219.61606 223.73021 227.84436 231.49773"
         y="-639.57819"
         sodipodi:role="line"
         id="tspan427">(chunk handle, byte range)</tspan></text><text
       transform="scale(1,-1)"
       style="font-variant:normal;font-weight:normal;font-size:8.2283px;font-family:Times;-inkscape-font-specification:Times-Roman;writing-mode:lr-tb;fill:#000000;fill-opacity:1;fill-rule:nonzero;stroke:none"
       id="text433"
       x="148.61"
       y="-621.5788"><tspan
         x="148.61 152.26337 156.37752 160.49167 164.60582 168.71997 170.77704 174.89119 178.54456 180.83202"
         y="-621.5788"
         sodipodi:role="line"
         id="tspan431">chunk data</tspan></text><text
       transform="scale(1,-1)"
       style="font-variant:normal;font-weight:normal;font-size:8.2283px;font-family:Times;-inkscape-font-specification:Times-Roman;writing-mode:lr-tb;fill:#000000;fill-opacity:1;fill-rule:nonzero;stroke:none"
       id="text437"
       x="331.17542"
       y="-714.14722"><tspan
         x="331.17542 334.82877 338.9429 343.05707 347.1712 351.28537 353.34244 357.4566 361.10995 363.84998"
         y="-714.14722"
         sodipodi:role="line"
         id="tspan435">chunk 2ef0</tspan></text><text
       transform="scale(1,-1)"
       style="font-variant:normal;font-weight:normal;font-size:8.2283px;font-family:Times;-inkscape-font-specification:Times-Roman;writing-mode:lr-tb;fill:#000000;fill-opacity:1;fill-rule:nonzero;stroke:none"
       id="text441"
       x="256.60641"
       y="-616.4361"
       inkscape:transform-center-x="0.42806963"
       inkscape:transform-center-y="0.81612497"><tspan
         x="256.60641 261.63388 263.92136 268.03552 272.14966 276.26379 278.32089 281.06091 283.34839 285.63583 289.28922 291.34628 294.54709 298.66125 301.86206 304.14951 307.80289"
         y="-616.4361"
         sodipodi:role="line"
         id="tspan439">Linux file system</tspan></text><text
       transform="scale(1,-1)"
       style="font-variant:normal;font-weight:normal;font-size:8.2283px;font-family:Times;-inkscape-font-specification:Times-Roman;writing-mode:lr-tb;fill:#000000;fill-opacity:1;fill-rule:nonzero;stroke:none"
       id="text441-3"
       x="259.5231"
       y="-616.41064"
       inkscape:transform-center-x="0.42806963"
       inkscape:transform-center-y="0.81612497"><tspan
         x="349.51682 354.54431 356.83179 360.94595 365.06009 369.17426 371.23132 373.97134 376.25882 378.5463 382.19962 384.25671 387.45752 391.57169 394.77249 397.05994 400.71332"
         sodipodi:role="line"
         id="tspan439-6">Linux file system</tspan></text><text
       transform="scale(1,-1)"
       style="font-variant:normal;font-weight:bold;font-size:8.2283px;font-family:Times;-inkscape-font-specification:Times-Bold;writing-mode:lr-tb;fill:#000000;fill-opacity:1;fill-rule:nonzero;stroke:none"
       id="text445"
       x="110.0398"
       y="-711.57581"><tspan
         x="110.0398 116.44141 121.46891 126.04385 128.10092 131.75429 134.04175 136.32922 139.98259 144.55753"
         y="-711.57581"
         sodipodi:role="line"
         id="tspan443">GFS client</tspan></text></g></svg>
