<?xml version="1.0" encoding="UTF-8" standalone="no"?>
<!-- Created with Inkscape (http://www.inkscape.org/) -->

<svg
   version="1.1"
   id="svg25"
   xml:space="preserve"
   width="219.89999"
   height="83.040001"
   viewBox="0 0 219.89999 83.040001"
   sodipodi:docname="raft_terms.svg"
   inkscape:version="1.1.1 (3bf5ae0d25, 2021-09-20)"
   xmlns:inkscape="http://www.inkscape.org/namespaces/inkscape"
   xmlns:sodipodi="http://sodipodi.sourceforge.net/DTD/sodipodi-0.dtd"
   xmlns="http://www.w3.org/2000/svg"
   xmlns:svg="http://www.w3.org/2000/svg"><defs
     id="defs29"><clipPath
       clipPathUnits="userSpaceOnUse"
       id="clipPath295"><path
         d="m 3286.8,6212.4 h 2084 v 868 h -2084 z"
         id="path293" /></clipPath><clipPath
       clipPathUnits="userSpaceOnUse"
       id="clipPath397"><path
         d="m 3502.8,4776 h 1652 v 628 h -1652 z"
         id="path395" /></clipPath></defs><sodipodi:namedview
     id="namedview27"
     pagecolor="#ffffff"
     bordercolor="#666666"
     borderopacity="1.0"
     inkscape:pageshadow="2"
     inkscape:pageopacity="0.0"
     inkscape:pagecheckerboard="0"
     showgrid="false"
     inkscape:zoom="1.7357955"
     inkscape:cx="-59.050736"
     inkscape:cy="146.04255"
     inkscape:window-width="3840"
     inkscape:window-height="2069"
     inkscape:window-x="0"
     inkscape:window-y="50"
     inkscape:window-maximized="1"
     inkscape:current-layer="g31" /><g
     id="g31"
     inkscape:groupmode="layer"
     inkscape:label="raft"
     transform="matrix(1.3333333,0,0,-1.3333333,-467.03999,720.37198)"><g
       id="g391"
       transform="scale(0.1)"><g
         id="g393"
         clip-path="url(#clipPath397)"><path
           d="m 3548.18,5153.08 h 117.266 v 165.094 H 3548.18 Z"
           style="fill:#2b83ba;fill-opacity:1;fill-rule:nonzero;stroke:none"
           id="path399" /><path
           d="m 3665.18,5153.08 h 231.531 v 165.094 H 3665.18 Z"
           style="fill:#abdda4;fill-opacity:1;fill-rule:nonzero;stroke:none"
           id="path401" /><path
           d="m 4005.55,5153.08 h 445.125 v 165.094 H 4005.55 Z"
           style="fill:#abdda4;fill-opacity:1;fill-rule:nonzero;stroke:none"
           id="path403" /><path
           d="m 3923.88,5153.08 h 81.8281 v 165.094 H 3923.88 Z"
           style="fill:#2b83ba;fill-opacity:1;fill-rule:nonzero;stroke:none"
           id="path405" /><path
           d="m 4477.6,5153.08 h 111.359 v 165.094 H 4477.6 Z"
           style="fill:#2b83ba;fill-opacity:1;fill-rule:nonzero;stroke:none"
           id="path407" /><path
           d="m 4727.85,5153.08 h 363.312 v 165.094 H 4727.85 Z"
           style="fill:#abdda4;fill-opacity:1;fill-rule:nonzero;stroke:none"
           id="path409" /><path
           d="m 4618.8,5153.08 h 109.062 v 165.094 H 4618.8 Z"
           style="fill:#2b83ba;fill-opacity:1;fill-rule:nonzero;stroke:none"
           id="path411" /><path
           d="M 3520.3,5087.93 H 5139.33"
           style="fill:none;stroke:#000000;stroke-width:9.6;stroke-linecap:butt;stroke-linejoin:miter;stroke-miterlimit:4;stroke-dasharray:none;stroke-opacity:1"
           id="path413" /><path
           d="m 5089.11,5111.16 62.94,-23.14 -62.94,-23.14 c 10.07,13.66 10,32.35 0,46.28"
           style="fill:#000000;fill-opacity:1;fill-rule:evenodd;stroke:none"
           id="path415" /><path
           d="m 4967.69,5004.71 h -6.63 v 11.06 h -6.37 v -11.06 h -5.44 v -5.25 h 5.44 v -30.38 c 0,-4.06 2.81,-6.37 7.81,-6.37 1.5,0 3.06,0.12 5.19,0.5 v 5.37 c -0.81,-0.19 -1.81,-0.31 -3.06,-0.31 -2.75,0 -3.57,0.81 -3.57,3.62 v 27.57 h 6.63 z m 41.19,-22.25 c 0,6.12 -0.44,9.81 -1.56,12.81 -2.63,6.62 -8.76,10.56 -16.32,10.56 -11.18,0 -18.44,-8.56 -18.44,-21.81 0,-13.19 7,-21.31 18.32,-21.31 9.18,0 15.56,5.18 17.18,13.93 h -6.43 c -1.81,-5.25 -5.38,-8.06 -10.57,-8.06 -4.06,0 -7.5,1.88 -9.68,5.25 -1.5,2.31 -2.06,4.63 -2.13,8.63 z m -29.44,5.18 c 0.5,7.44 5.06,12.32 11.5,12.32 6.31,0 11.12,-5.25 11.12,-11.82 0,-0.18 0,-0.31 -0.06,-0.5 z m 38.12,17.07 v -40.25 h 6.44 v 20.87 c 0,5.75 1.44,9.56 4.56,11.75 2,1.5 3.88,1.94 8.38,2 v 6.56 c -1.12,0.13 -1.62,0.19 -2.5,0.19 -4.12,0 -7.31,-2.44 -11,-8.44 v 7.32 z m 25.71,0 v -40.25 h 6.44 v 25.25 c 0,5.87 4.25,10.56 9.43,10.56 4.82,0 7.5,-2.94 7.5,-8.06 v -27.75 h 6.44 v 25.25 c 0,5.87 4.19,10.56 9.44,10.56 4.69,0 7.44,-3 7.44,-8.06 v -27.75 h 6.5 v 30.18 c 0,7.25 -4.19,11.19 -11.69,11.19 -5.38,0 -8.63,-1.56 -12.38,-6.12 -2.37,4.31 -5.62,6.12 -10.81,6.12 -5.37,0 -8.94,-2 -12.37,-6.81 v 5.69 z m 92.29,-11.19 c -0.06,7.87 -5.24,12.31 -14.56,12.31 -9.37,0 -15.44,-4.81 -15.44,-12.25 0,-6.31 3.19,-9.31 12.76,-11.62 l 6,-1.44 c 4.43,-1.06 6.18,-2.69 6.18,-5.63 0,-3.75 -3.75,-6.31 -9.37,-6.31 -3.44,0 -6.38,1 -8,2.69 -1,1.19 -1.44,2.31 -1.81,5.19 h -6.76 c 0.32,-9.32 5.5,-13.75 16.07,-13.75 10.12,0 16.56,5 16.56,12.75 0,6 -3.37,9.25 -11.37,11.18 l -6.13,1.5 c -5.25,1.19 -7.44,2.88 -7.44,5.75 0,3.69 3.31,6.07 8.5,6.07 5.13,0 7.94,-2.25 8.07,-6.44"
           style="fill:#000000;fill-opacity:1;fill-rule:nonzero;stroke:none"
           id="path417" /><path
           d="m 3621.54,5388.6 h -6.88 l 2.44,11.06 h -6.5 l -2.38,-11.06 h -5.43 l -1.07,-5.13 h 5.44 l -6.06,-28.43 c -0.19,-0.75 -0.25,-1.63 -0.25,-2.38 0,-3.75 2.62,-6.06 6.87,-6.06 1.5,0 3.88,0.19 4.94,0.5 l 1.25,5.62 c -2.37,-0.56 -2.75,-0.62 -3.69,-0.62 -1.68,0 -2.75,0.87 -2.75,2.06 0,0.25 0.07,0.63 0.13,1.13 l 6,28.18 h 6.87 z m 36.43,-22.25 0.25,1.25 c 0.69,3.69 1.07,6.94 1.07,9 0,7.37 -6.38,13.12 -14.69,13.12 -6.69,0 -13.13,-3.12 -17,-8.25 -3.56,-4.87 -6.44,-13.62 -6.44,-19.81 0,-4.19 1.81,-8.37 4.75,-11.25 2.69,-2.62 6.13,-3.81 10.5,-3.81 9.19,0 17.13,5.69 19.5,13.94 h -6.44 c -2.81,-5.25 -6.87,-8.07 -12,-8.07 -6.06,0 -9.56,3.82 -9.56,10.32 0,1.62 0.13,2.37 0.44,3.56 z m -28.25,5.5 c 2,7.06 7.69,12 13.88,12 5.44,0 8.94,-3.69 8.94,-9.44 0,-0.81 -0.13,-1.31 -0.25,-2.56 z m 41.57,16.75 -8.5,-40.25 h 6.43 l 4.44,20.87 c 2,9.38 7.5,14.07 15.94,13.75 l 1.37,6.57 c -1,0.12 -1.62,0.18 -2.43,0.18 -4.5,0 -7.94,-2 -12.69,-7.43 l 1.31,6.31 z m 25.82,0 -8.56,-40.25 h 6.44 l 5.44,25.25 c 1.18,5.87 6.43,10.62 11.56,10.62 3.74,0 6.31,-2.12 6.31,-5.31 0,-0.81 -0.07,-1.81 -0.31,-2.81 l -5.94,-27.75 h 6.5 l 5.38,25.25 c 1.18,6 6.5,10.62 12.06,10.62 3.56,0 5.81,-2.25 5.81,-5.93 0,-1.13 0,-1.13 -0.69,-3.75 l -5.56,-26.19 h 6.5 l 6.06,28.62 c 0.19,0.88 0.44,3.38 0.44,4.25 0,2 -0.94,4.13 -2.44,5.94 -1.68,1.81 -3.75,2.56 -7.31,2.56 -5,0 -9.37,-2 -13.87,-6.37 -1.25,4.31 -4.25,6.37 -9.32,6.37 -5.25,0 -8.75,-1.5 -13.68,-6.12 l 1,5 z m 99.55,-1.44 -8.31,-38.81 h 6.75 l 11.62,54.44 h -4.43 c -4.19,-8.25 -5.75,-9.25 -16.82,-10.82 l -1,-4.81"
           style="fill:#000000;fill-opacity:1;fill-rule:nonzero;stroke:none"
           id="path419" /><path
           d="m 3539.1,4908.05 c 0,6.13 -0.44,9.81 -1.56,12.81 -2.63,6.63 -8.75,10.57 -16.32,10.57 -11.18,0 -18.43,-8.57 -18.43,-21.82 0,-13.18 7,-21.31 18.31,-21.31 9.19,0 15.56,5.19 17.19,13.93 h -6.44 c -1.81,-5.24 -5.38,-8.05 -10.56,-8.05 -4.07,0 -7.5,1.87 -9.69,5.25 -1.5,2.3 -2.06,4.62 -2.13,8.62 z m -29.44,5.18 c 0.5,7.45 5.06,12.32 11.5,12.32 6.31,0 11.13,-5.25 11.13,-11.82 0,-0.18 0,-0.3 -0.07,-0.5 z m 44.5,32.82 h -6.44 v -56 h 6.44 z m 44.8,-38 c 0,6.13 -0.44,9.81 -1.57,12.81 -2.62,6.63 -8.75,10.57 -16.31,10.57 -11.19,0 -18.44,-8.57 -18.44,-21.82 0,-13.18 7,-21.31 18.32,-21.31 9.18,0 15.56,5.19 17.18,13.93 h -6.43 c -1.82,-5.24 -5.38,-8.05 -10.57,-8.05 -4.06,0 -7.5,1.87 -9.68,5.25 -1.5,2.3 -2.07,4.62 -2.13,8.62 z m -29.44,5.18 c 0.5,7.45 5.06,12.32 11.5,12.32 6.31,0 11.12,-5.25 11.12,-11.82 0,-0.18 0,-0.3 -0.06,-0.5 z m 69,3.57 c -0.31,3.88 -1.19,6.43 -2.69,8.69 -2.75,3.74 -7.62,5.94 -13.25,5.94 -10.81,0 -17.87,-8.57 -17.87,-21.94 0,-13 6.93,-21.19 17.81,-21.19 9.62,0 15.69,5.75 16.44,15.56 h -6.44 c -1.06,-6.43 -4.38,-9.68 -9.81,-9.68 -7.07,0 -11.32,5.81 -11.32,15.31 0,10.06 4.13,16.06 11.13,16.06 5.37,0 8.75,-3.19 9.56,-8.75 z m 21.7,13.5 h -6.62 v 11.06 h -6.38 v -11.06 h -5.43 v -5.25 h 5.43 v -30.37 c 0,-4.07 2.82,-6.38 7.82,-6.38 1.5,0 3.06,0.13 5.18,0.5 v 5.38 c -0.81,-0.19 -1.81,-0.32 -3.06,-0.32 -2.75,0 -3.56,0.82 -3.56,3.63 v 27.56 h 6.62 z m 13.32,0 h -6.38 v -40.25 h 6.38 z m 0,15.75 h -6.44 v -8.06 h 6.44 z m 26.46,-14.62 c -11.25,0 -18.12,-8.07 -18.12,-21.57 0,-13.5 6.75,-21.56 18.25,-21.56 11.25,0 18.19,8.06 18.19,21.25 0,13.94 -6.69,21.88 -18.32,21.88 z m 0.13,-5.88 c 7.19,0 11.5,-5.94 11.5,-15.94 0,-9.43 -4.44,-15.43 -11.5,-15.43 -7.19,0 -11.57,5.93 -11.57,15.68 0,9.69 4.38,15.69 11.57,15.69 z m 27.12,4.75 v -40.25 h 6.44 v 22.18 c 0,8.26 4.31,13.63 10.94,13.63 5.06,0 8.31,-3.06 8.31,-7.93 v -27.88 h 6.38 v 30.44 c 0,6.69 -5,10.94 -12.76,10.94 -6,0 -9.87,-2.25 -13.37,-7.88 v 6.75"
           style="fill:#000000;fill-opacity:1;fill-rule:nonzero;stroke:none"
           id="path421" /><path
           d="m 3830.27,4932.99 v -40.26 h 6.44 v 22.2 c 0,8.25 4.31,13.62 10.93,13.62 5.07,0 8.32,-3.06 8.32,-7.94 v -27.88 h 6.37 v 30.45 c 0,6.68 -5,10.93 -12.75,10.93 -6,0 -9.87,-2.25 -13.37,-7.88 v 6.76 z m 58.25,1.12 c -11.25,0 -18.13,-8.06 -18.13,-21.56 0,-13.5 6.75,-21.56 18.25,-21.56 11.25,0 18.19,8.06 18.19,21.24 0,13.95 -6.69,21.88 -18.31,21.88 z m 0.12,-5.88 c 7.19,0 11.5,-5.93 11.5,-15.93 0,-9.44 -4.43,-15.44 -11.5,-15.44 -7.18,0 -11.56,5.94 -11.56,15.69 0,9.68 4.38,15.68 11.56,15.68 z m 27.07,4.76 v -40.26 h 6.43 v 20.88 c 0,5.75 1.44,9.57 4.57,11.75 2,1.5 3.87,1.94 8.37,2 v 6.57 c -1.12,0.12 -1.62,0.18 -2.5,0.18 -4.12,0 -7.31,-2.43 -11,-8.43 v 7.31 z m 25.72,0 v -40.26 h 6.43 v 25.26 c 0,5.87 4.25,10.56 9.44,10.56 4.81,0 7.5,-2.94 7.5,-8.06 v -27.76 h 6.43 v 25.26 c 0,5.87 4.2,10.56 9.45,10.56 4.68,0 7.43,-3 7.43,-8.06 v -27.76 h 6.5 v 30.2 c 0,7.25 -4.18,11.18 -11.68,11.18 -5.38,0 -8.63,-1.56 -12.38,-6.12 -2.37,4.31 -5.62,6.12 -10.82,6.12 -5.37,0 -8.93,-2 -12.37,-6.81 v 5.69 z m 99.79,-36.5 c -0.75,-0.13 -1,-0.13 -1.43,-0.13 -2.19,0 -3.44,1.13 -3.44,3.13 v 23.69 c 0,7.12 -5.19,10.93 -15.13,10.93 -5.81,0 -10.68,-1.68 -13.37,-4.68 -1.81,-2.07 -2.63,-4.38 -2.75,-8.32 h 6.44 c 0.56,4.88 3.43,7.12 9.43,7.12 5.75,0 9,-2.18 9,-6 v -1.68 c 0,-2.69 -1.62,-3.87 -6.68,-4.44 -9.07,-1.18 -10.44,-1.5 -12.88,-2.5 -4.69,-1.88 -7.06,-5.5 -7.06,-10.75 0,-7.31 5.06,-11.87 13.19,-11.87 5.06,0 9.12,1.74 13.68,5.87 0.44,-4.06 2.44,-5.87 6.57,-5.87 1.31,0 2.31,0.12 4.43,0.69 z m -11.25,8.94 c 0,-2.2 -0.62,-3.5 -2.5,-5.25 -2.62,-2.38 -5.81,-3.63 -9.56,-3.63 -5,0 -7.87,2.44 -7.87,6.5 0,4.18 2.81,6.38 9.62,7.38 6.81,0.87 8.19,1.18 10.31,2.18 z m 24.57,43.3 h -6.44 v -56 h 6.44"
           style="fill:#000000;fill-opacity:1;fill-rule:nonzero;stroke:none"
           id="path423" /><path
           d="m 3803.02,4838.11 c -11.25,0 -18.13,-8.06 -18.13,-21.56 0,-13.5 6.75,-21.56 18.25,-21.56 11.25,0 18.19,8.06 18.19,21.24 0,13.95 -6.69,21.88 -18.31,21.88 z m 0.12,-5.88 c 7.19,0 11.5,-5.93 11.5,-15.93 0,-9.44 -4.43,-15.44 -11.5,-15.44 -7.18,0 -11.56,5.94 -11.56,15.69 0,9.68 4.38,15.68 11.56,15.68 z m 25.88,-52.24 h 6.5 v 21 c 3.37,-4.19 7.12,-6 12.31,-6 10.38,0 17.25,8.37 17.25,21.19 0,13.5 -6.62,21.93 -17.31,21.93 -5.44,0 -9.81,-2.43 -12.81,-7.18 v 6.06 h -5.94 z m 17.69,52.19 c 7.06,0 11.68,-6.25 11.68,-15.88 0,-9.12 -4.68,-15.31 -11.68,-15.31 -6.75,0 -11.19,6.12 -11.19,15.56 0,9.44 4.44,15.63 11.19,15.63 z m 60.31,-17.45 c 0,6.13 -0.44,9.82 -1.56,12.82 -2.63,6.63 -8.75,10.56 -16.32,10.56 -11.18,0 -18.43,-8.56 -18.43,-21.81 0,-13.19 7,-21.31 18.31,-21.31 9.19,0 15.56,5.19 17.19,13.94 h -6.44 c -1.81,-5.25 -5.38,-8.07 -10.56,-8.07 -4.07,0 -7.5,1.87 -9.69,5.25 -1.5,2.32 -2.06,4.62 -2.13,8.62 z m -29.44,5.2 c 0.5,7.43 5.06,12.3 11.5,12.3 6.31,0 11.13,-5.24 11.13,-11.8 0,-0.2 0,-0.32 -0.07,-0.5 z m 38.13,17.06 v -40.26 h 6.43 v 20.88 c 0,5.75 1.44,9.57 4.57,11.75 2,1.5 3.87,1.94 8.37,2 v 6.57 c -1.12,0.12 -1.62,0.18 -2.5,0.18 -4.12,0 -7.31,-2.43 -11,-8.43 v 7.31 z m 61.47,-36.5 c -0.75,-0.13 -1,-0.13 -1.45,-0.13 -2.18,0 -3.43,1.13 -3.43,3.13 v 23.69 c 0,7.12 -5.19,10.93 -15.12,10.93 -5.82,0 -10.69,-1.68 -13.38,-4.68 -1.81,-2.07 -2.62,-4.38 -2.75,-8.32 h 6.44 c 0.56,4.88 3.44,7.12 9.44,7.12 5.75,0 9,-2.18 9,-6 v -1.68 c 0,-2.69 -1.63,-3.87 -6.7,-4.44 -9.05,-1.18 -10.43,-1.5 -12.87,-2.5 -4.68,-1.88 -7.06,-5.5 -7.06,-10.75 0,-7.31 5.06,-11.87 13.19,-11.87 5.06,0 9.12,1.74 13.69,5.87 0.43,-4.06 2.43,-5.87 6.55,-5.87 1.32,0 2.32,0.12 4.45,0.69 z m -11.25,8.94 c 0,-2.2 -0.63,-3.5 -2.5,-5.25 -2.63,-2.38 -5.82,-3.63 -9.57,-3.63 -5,0 -7.87,2.44 -7.87,6.5 0,4.18 2.81,6.38 9.62,7.38 6.82,0.87 8.19,1.18 10.32,2.18 z m 32.37,27.56 h -6.62 v 11.06 h -6.38 v -11.06 h -5.44 v -5.26 h 5.44 v -30.37 c 0,-4.06 2.81,-6.37 7.81,-6.37 1.5,0 3.07,0.12 5.19,0.5 v 5.37 c -0.81,-0.18 -1.81,-0.31 -3.07,-0.31 -2.74,0 -3.55,0.81 -3.55,3.63 v 27.55 h 6.62 z m 13.3,0 h -6.38 v -40.26 h 6.38 z m 0,15.74 h -6.44 v -8.05 h 6.44 z m 26.48,-14.62 c -11.25,0 -18.12,-8.06 -18.12,-21.56 0,-13.5 6.75,-21.56 18.25,-21.56 11.25,0 18.18,8.06 18.18,21.24 0,13.95 -6.68,21.88 -18.31,21.88 z m 0.13,-5.88 c 7.18,0 11.5,-5.93 11.5,-15.93 0,-9.44 -4.44,-15.44 -11.5,-15.44 -7.19,0 -11.57,5.94 -11.57,15.69 0,9.68 4.38,15.68 11.57,15.68 z m 27.12,4.76 v -40.26 h 6.44 v 22.2 c 0,8.25 4.31,13.62 10.94,13.62 5.06,0 8.31,-3.06 8.31,-7.94 v -27.88 h 6.37 v 30.45 c 0,6.68 -5,10.93 -12.75,10.93 -6,0 -9.87,-2.25 -13.37,-7.88 v 6.76"
           style="fill:#000000;fill-opacity:1;fill-rule:nonzero;stroke:none"
           id="path425" /><path
           d="m 3635.19,4964.6 c -3.63,91.61 -41.56,61.5 -38.81,155.84"
           style="fill:none;stroke:#d7191c;stroke-width:9.6;stroke-linecap:round;stroke-linejoin:miter;stroke-miterlimit:4;stroke-dasharray:none;stroke-opacity:1"
           id="path427" /><path
           d="m 3597.02,5142.58 18.23,-33.75 -38.39,1.11"
           style="fill:#d7191c;fill-opacity:1;fill-rule:evenodd;stroke:none"
           id="path429" /><path
           d="m 3597.02,5142.58 18.23,-33.75 -38.39,1.11 z"
           style="fill:none;stroke:#d7191c;stroke-width:4.8;stroke-linecap:butt;stroke-linejoin:miter;stroke-miterlimit:4;stroke-dasharray:none;stroke-opacity:1"
           id="path431" /><path
           d="m 3881.96,4956.02 c -11.69,83.56 -101.25,73.27 -98.52,167.62"
           style="fill:none;stroke:#d7191c;stroke-width:9.6;stroke-linecap:round;stroke-linejoin:miter;stroke-miterlimit:4;stroke-dasharray:none;stroke-opacity:1"
           id="path433" /><path
           d="m 3784.1,5145.79 18.22,-33.77 -38.38,1.12"
           style="fill:#d7191c;fill-opacity:1;fill-rule:evenodd;stroke:none"
           id="path435" /><path
           d="m 3784.1,5145.79 18.22,-33.77 -38.38,1.12 z"
           style="fill:none;stroke:#d7191c;stroke-width:4.8;stroke-linecap:butt;stroke-linejoin:miter;stroke-miterlimit:4;stroke-dasharray:none;stroke-opacity:1"
           id="path437" /><path
           d="m 4078.97,5388.6 h -6.87 l 2.44,11.06 h -6.5 l -2.38,-11.06 h -5.44 l -1.06,-5.13 h 5.44 l -6.06,-28.43 c -0.19,-0.75 -0.25,-1.63 -0.25,-2.38 0,-3.75 2.62,-6.06 6.87,-6.06 1.5,0 3.88,0.19 4.94,0.5 l 1.25,5.62 c -2.38,-0.56 -2.75,-0.62 -3.69,-0.62 -1.69,0 -2.75,0.87 -2.75,2.06 0,0.25 0.06,0.63 0.13,1.13 l 6,28.18 h 6.87 z m 36.42,-22.25 0.25,1.25 c 0.69,3.69 1.07,6.94 1.07,9 0,7.37 -6.38,13.12 -14.69,13.12 -6.69,0 -13.13,-3.12 -17,-8.25 -3.56,-4.87 -6.44,-13.62 -6.44,-19.81 0,-4.19 1.81,-8.37 4.75,-11.25 2.69,-2.62 6.13,-3.81 10.5,-3.81 9.19,0 17.13,5.69 19.5,13.94 h -6.44 c -2.81,-5.25 -6.87,-8.07 -12,-8.07 -6.06,0 -9.56,3.82 -9.56,10.32 0,1.62 0.13,2.37 0.44,3.56 z m -28.25,5.5 c 2,7.06 7.69,12 13.88,12 5.44,0 8.94,-3.69 8.94,-9.44 0,-0.81 -0.13,-1.31 -0.25,-2.56 z m 41.57,16.75 -8.5,-40.25 h 6.43 l 4.44,20.87 c 2,9.38 7.5,14.07 15.94,13.75 l 1.37,6.57 c -1,0.12 -1.62,0.18 -2.43,0.18 -4.5,0 -7.94,-2 -12.69,-7.43 l 1.31,6.31 z m 25.84,0 -8.56,-40.25 h 6.44 l 5.43,25.25 c 1.19,5.87 6.44,10.62 11.57,10.62 3.75,0 6.3,-2.12 6.3,-5.31 0,-0.81 -0.05,-1.81 -0.3,-2.81 l -5.94,-27.75 h 6.5 l 5.37,25.25 c 1.19,6 6.5,10.62 12.07,10.62 3.56,0 5.8,-2.25 5.8,-5.93 0,-1.13 0,-1.13 -0.68,-3.75 l -5.56,-26.19 h 6.5 l 6.06,28.62 c 0.18,0.88 0.44,3.38 0.44,4.25 0,2 -0.94,4.13 -2.44,5.94 -1.69,1.81 -3.75,2.56 -7.32,2.56 -5,0 -9.37,-2 -13.87,-6.37 -1.25,4.31 -4.25,6.37 -9.31,6.37 -5.25,0 -8.75,-1.5 -13.69,-6.12 l 1,5 z m 111.59,-33.56 h -28.93 c 1.31,3.75 5.5,7.5 12.5,11 l 8.62,4.37 c 10.19,5.13 15.19,11.5 15.19,19.19 0,3.37 -1.13,6.62 -3.25,8.94 -2.56,2.87 -6.25,4.25 -11.5,4.25 -11.81,0 -18.56,-5.88 -21.56,-18.88 h 6.75 c 0.93,3.44 1.81,5.75 3.18,7.69 2.44,3.37 6.25,5.31 10.69,5.31 5.38,0 8.94,-3.31 8.94,-8.25 0,-4.87 -3.69,-9.5 -10.06,-12.75 l -8,-4 c -13.32,-7.06 -16.82,-11.19 -20.19,-23.56 h 36.19"
           style="fill:#000000;fill-opacity:1;fill-rule:nonzero;stroke:none"
           id="path439" /><path
           d="m 4297.33,4932.99 v -40.26 h 6.44 v 22.2 c 0,8.25 4.31,13.62 10.94,13.62 5.06,0 8.31,-3.06 8.31,-7.94 v -27.88 h 6.37 v 30.45 c 0,6.68 -5,10.93 -12.75,10.93 -6,0 -9.87,-2.25 -13.37,-7.88 v 6.76 z m 58.25,1.12 c -11.25,0 -18.12,-8.06 -18.12,-21.56 0,-13.5 6.75,-21.56 18.25,-21.56 11.25,0 18.18,8.06 18.18,21.24 0,13.95 -6.68,21.88 -18.31,21.88 z m 0.13,-5.88 c 7.18,0 11.5,-5.93 11.5,-15.93 0,-9.44 -4.44,-15.44 -11.5,-15.44 -7.19,0 -11.57,5.94 -11.57,15.69 0,9.68 4.38,15.68 11.57,15.68 z m 82.42,-17.5 c 0,6.13 -0.44,9.82 -1.57,12.82 -2.62,6.63 -8.74,10.56 -16.31,10.56 -11.19,0 -18.43,-8.56 -18.43,-21.81 0,-13.19 7,-21.31 18.31,-21.31 9.19,0 15.56,5.19 17.19,13.94 h -6.44 c -1.82,-5.25 -5.38,-8.07 -10.56,-8.07 -4.07,0 -7.5,1.87 -9.69,5.25 -1.5,2.32 -2.07,4.62 -2.13,8.62 z m -29.44,5.2 c 0.5,7.43 5.06,12.3 11.5,12.3 6.31,0 11.13,-5.24 11.13,-11.8 0,-0.2 0,-0.32 -0.07,-0.5 z m 38.19,17.06 v -40.26 h 6.44 v 25.26 c 0,5.87 4.24,10.56 9.43,10.56 4.81,0 7.5,-2.94 7.5,-8.06 v -27.76 h 6.44 v 25.26 c 0,5.87 4.19,10.56 9.44,10.56 4.69,0 7.43,-3 7.43,-8.06 v -27.76 h 6.5 v 30.2 c 0,7.25 -4.18,11.18 -11.68,11.18 -5.38,0 -8.63,-1.56 -12.38,-6.12 -2.37,4.31 -5.62,6.12 -10.81,6.12 -5.37,0 -8.94,-2 -12.37,-6.81 v 5.69 z m 98.05,-22.26 c 0,6.13 -0.44,9.82 -1.57,12.82 -2.63,6.63 -8.75,10.56 -16.31,10.56 -11.19,0 -18.44,-8.56 -18.44,-21.81 0,-13.19 7,-21.31 18.32,-21.31 9.18,0 15.56,5.19 17.18,13.94 h -6.43 c -1.82,-5.25 -5.38,-8.07 -10.57,-8.07 -4.06,0 -7.5,1.87 -9.68,5.25 -1.5,2.32 -2.07,4.62 -2.13,8.62 z m -29.44,5.2 c 0.5,7.43 5.06,12.3 11.5,12.3 6.31,0 11.12,-5.24 11.12,-11.8 0,-0.2 0,-0.32 -0.06,-0.5 z m 38.12,17.06 v -40.26 h 6.44 v 20.88 c 0,5.75 1.44,9.57 4.56,11.75 2,1.5 3.88,1.94 8.38,2 v 6.57 c -1.13,0.12 -1.63,0.18 -2.5,0.18 -4.13,0 -7.31,-2.43 -11,-8.43 v 7.31 z m 51.97,0 v -5.81 c -3.19,4.75 -7.12,6.93 -12.25,6.93 -10.25,0 -17.12,-8.88 -17.12,-21.93 0,-6.63 1.75,-12 5.06,-15.82 3,-3.37 7.31,-5.37 11.5,-5.37 5.06,0 8.62,2.12 12.25,7.19 v -2.07 c 0,-5.43 -0.75,-8.75 -2.31,-11 -1.69,-2.38 -5,-3.75 -8.94,-3.75 -2.94,0 -5.5,0.75 -7.31,2.19 -1.44,1.13 -2.07,2.18 -2.44,4.56 h -6.5 c 0.69,-7.56 6.56,-12.12 16,-12.12 6,0 11.19,1.94 13.75,5.12 3.12,3.69 4.25,8.82 4.25,18.25 v 33.63 z m -11.56,-4.76 c 6.87,0 11,-5.87 11,-15.93 0,-9.57 -4.19,-15.44 -10.94,-15.44 -7,0 -11.19,5.94 -11.19,15.69 0,9.68 4.25,15.68 11.13,15.68 z m 34.19,4.76 h -6.38 v -40.26 h 6.38 z m 0,15.74 h -6.44 v -8.05 h 6.44 z m 10.97,-15.74 v -40.26 h 6.43 v 22.2 c 0,8.25 4.32,13.62 10.94,13.62 5.06,0 8.31,-3.06 8.31,-7.94 v -27.88 h 6.37 v 30.45 c 0,6.68 -5,10.93 -12.74,10.93 -6,0 -9.88,-2.25 -13.38,-7.88 v 6.76 z m 69,0 v -5.81 c -3.19,4.75 -7.13,6.93 -12.25,6.93 -10.25,0 -17.13,-8.88 -17.13,-21.93 0,-6.63 1.75,-12 5.06,-15.82 3,-3.37 7.32,-5.37 11.5,-5.37 5.07,0 8.63,2.12 12.25,7.19 v -2.07 c 0,-5.43 -0.75,-8.75 -2.31,-11 -1.69,-2.38 -5,-3.75 -8.94,-3.75 -2.93,0 -5.5,0.75 -7.31,2.19 -1.44,1.13 -2.06,2.18 -2.44,4.56 h -6.5 c 0.69,-7.56 6.57,-12.12 16,-12.12 6,0 11.19,1.94 13.75,5.12 3.13,3.69 4.25,8.82 4.25,18.25 v 33.63 z m -11.57,-4.76 c 6.88,0 11,-5.87 11,-15.93 0,-9.57 -4.18,-15.44 -10.93,-15.44 -7,0 -11.19,5.94 -11.19,15.69 0,9.68 4.24,15.68 11.12,15.68"
           style="fill:#000000;fill-opacity:1;fill-rule:nonzero;stroke:none"
           id="path441" /><path
           d="M 4410.44,4852.73 H 4404 v -56 h 6.44 z m 44.78,-38 c 0,6.13 -0.43,9.82 -1.56,12.82 -2.62,6.63 -8.75,10.56 -16.31,10.56 -11.19,0 -18.44,-8.56 -18.44,-21.81 0,-13.19 7,-21.31 18.31,-21.31 9.19,0 15.57,5.19 17.19,13.94 h -6.44 c -1.81,-5.25 -5.37,-8.07 -10.56,-8.07 -4.06,0 -7.5,1.87 -9.69,5.25 -1.5,2.32 -2.06,4.62 -2.12,8.62 z m -29.43,5.2 c 0.5,7.43 5.06,12.3 11.5,12.3 6.31,0 11.12,-5.24 11.12,-11.8 0,-0.2 0,-0.32 -0.06,-0.5 z m 73.93,-19.44 c -0.75,-0.13 -1,-0.13 -1.43,-0.13 -2.19,0 -3.44,1.13 -3.44,3.13 v 23.69 c 0,7.12 -5.19,10.93 -15.13,10.93 -5.81,0 -10.68,-1.68 -13.37,-4.68 -1.81,-2.07 -2.63,-4.38 -2.75,-8.32 h 6.44 c 0.56,4.88 3.43,7.12 9.43,7.12 5.75,0 9,-2.18 9,-6 v -1.68 c 0,-2.69 -1.62,-3.87 -6.68,-4.44 -9.07,-1.18 -10.44,-1.5 -12.88,-2.5 -4.69,-1.88 -7.06,-5.5 -7.06,-10.75 0,-7.31 5.06,-11.87 13.19,-11.87 5.06,0 9.12,1.74 13.68,5.87 0.44,-4.06 2.44,-5.87 6.57,-5.87 1.31,0 2.31,0.12 4.43,0.69 z m -11.25,8.94 c 0,-2.2 -0.62,-3.5 -2.5,-5.25 -2.62,-2.38 -5.81,-3.63 -9.56,-3.63 -5,0 -7.87,2.44 -7.87,6.5 0,4.18 2.81,6.38 9.62,7.38 6.81,0.87 8.19,1.18 10.31,2.18 z m 50.88,43.3 h -6.38 v -20.8 c -2.68,4.06 -6.93,6.18 -12.37,6.18 -10.44,0 -17.25,-8.38 -17.25,-21.18 0,-13.57 6.69,-21.94 17.5,-21.94 5.56,0 9.37,2.06 12.81,7.06 v -5.32 h 5.69 z m -17.63,-20.55 c 6.88,0 11.25,-6.19 11.25,-15.75 0,-9.32 -4.43,-15.44 -11.18,-15.44 -7.07,0 -11.75,6.19 -11.75,15.56 0,9.38 4.68,15.63 11.68,15.63 z m 61.75,-17.45 c 0,6.13 -0.43,9.82 -1.56,12.82 -2.62,6.63 -8.75,10.56 -16.31,10.56 -11.19,0 -18.44,-8.56 -18.44,-21.81 0,-13.19 7,-21.31 18.31,-21.31 9.19,0 15.57,5.19 17.19,13.94 h -6.44 c -1.81,-5.25 -5.37,-8.07 -10.56,-8.07 -4.06,0 -7.5,1.87 -9.69,5.25 -1.5,2.32 -2.06,4.62 -2.12,8.62 z m -29.43,5.2 c 0.5,7.43 5.06,12.3 11.5,12.3 6.31,0 11.12,-5.24 11.12,-11.8 0,-0.2 0,-0.32 -0.06,-0.5 z m 38.12,17.06 v -40.26 h 6.44 v 20.88 c 0,5.75 1.44,9.57 4.56,11.75 2,1.5 3.88,1.94 8.38,2 v 6.57 c -1.13,0.12 -1.63,0.18 -2.5,0.18 -4.13,0 -7.32,-2.43 -11,-8.43 v 7.31"
           style="fill:#000000;fill-opacity:1;fill-rule:nonzero;stroke:none"
           id="path443" /><path
           d="m 4499.86,4950.06 c -3.63,91.6 27.18,74.46 29.93,168.8"
           style="fill:none;stroke:#d7191c;stroke-width:9.6;stroke-linecap:round;stroke-linejoin:miter;stroke-miterlimit:4;stroke-dasharray:none;stroke-opacity:1"
           id="path445" /><path
           d="m 4530.43,5141.02 18.23,-33.77 -38.39,1.11"
           style="fill:#d7191c;fill-opacity:1;fill-rule:evenodd;stroke:none"
           id="path447" /><path
           d="m 4530.43,5141.02 18.23,-33.77 -38.39,1.11 z"
           style="fill:none;stroke:#d7191c;stroke-width:4.8;stroke-linecap:butt;stroke-linejoin:miter;stroke-miterlimit:4;stroke-dasharray:none;stroke-opacity:1"
           id="path449" /><path
           d="m 4526.41,5388.6 h -6.87 l 2.43,11.06 h -6.5 l -2.37,-11.06 h -5.44 l -1.06,-5.13 h 5.44 l -6.07,-28.43 c -0.18,-0.75 -0.25,-1.63 -0.25,-2.38 0,-3.75 2.63,-6.06 6.88,-6.06 1.5,0 3.87,0.19 4.94,0.5 l 1.25,5.62 c -2.38,-0.56 -2.75,-0.62 -3.69,-0.62 -1.69,0 -2.75,0.87 -2.75,2.06 0,0.25 0.06,0.63 0.12,1.13 l 6,28.18 h 6.88 z m 15.42,-15.31 c 1.63,0.18 2.44,0.18 3.5,0.18 6.38,0 10.13,-2.62 10.13,-7 0,-8.31 -6,-14 -14.63,-14 -5.44,0 -9.06,3 -9.06,7.69 0,0.63 0.12,1.81 0.25,3 l 0.19,1 h -6.82 c -0.31,-2.31 -0.37,-3.37 -0.37,-4.75 0,-8.31 5.25,-12.81 14.81,-12.81 6.94,0 12.75,2.31 16.69,6.56 3.56,3.81 5.69,9.31 5.69,14.31 0,4.38 -1.69,6.94 -6,9.07 6.56,3.68 9.37,8.25 9.37,15.06 0,6.75 -5.5,11.19 -14,11.19 -6.37,0 -11.75,-2.32 -15.5,-6.5 -2.19,-2.63 -3.62,-5.57 -5.06,-11.07 h 6.75 c 0.81,3.38 1.5,5.19 2.62,6.75 2.32,3.13 6,4.94 10.32,4.94 5,0 8.12,-2.56 8.12,-6.69 0,-2.93 -1,-5.75 -2.62,-7.56 -2.07,-2.37 -6.13,-3.56 -11.75,-3.56 h -1.38"
           style="fill:#000000;fill-opacity:1;fill-rule:nonzero;stroke:none"
           id="path451" /><path
           d="m 4779.25,5388.6 h -6.87 l 2.44,11.06 h -6.5 l -2.38,-11.06 h -5.44 l -1.06,-5.13 h 5.44 l -6.06,-28.43 c -0.19,-0.75 -0.26,-1.63 -0.26,-2.38 0,-3.75 2.63,-6.06 6.88,-6.06 1.5,0 3.88,0.19 4.94,0.5 l 1.25,5.62 c -2.38,-0.56 -2.75,-0.62 -3.69,-0.62 -1.69,0 -2.75,0.87 -2.75,2.06 0,0.25 0.06,0.63 0.13,1.13 l 6,28.18 h 6.87 z m 36.43,-22.25 0.25,1.25 c 0.68,3.69 1.06,6.94 1.06,9 0,7.37 -6.38,13.12 -14.69,13.12 -6.69,0 -13.12,-3.12 -17,-8.25 -3.57,-4.87 -6.44,-13.62 -6.44,-19.81 0,-4.19 1.82,-8.37 4.75,-11.25 2.69,-2.62 6.12,-3.81 10.5,-3.81 9.19,0 17.12,5.69 19.5,13.94 h -6.43 c -2.82,-5.25 -6.88,-8.07 -12,-8.07 -6.07,0 -9.57,3.82 -9.57,10.32 0,1.62 0.12,2.37 0.44,3.56 z m -28.25,5.5 c 2,7.06 7.68,12 13.87,12 5.43,0 8.93,-3.69 8.93,-9.44 0,-0.81 -0.12,-1.31 -0.24,-2.56 z m 41.56,16.75 -8.5,-40.25 h 6.44 l 4.43,20.87 c 2,9.38 7.5,14.07 15.94,13.75 l 1.38,6.57 c -1,0.12 -1.63,0.18 -2.45,0.18 -4.5,0 -7.93,-2 -12.68,-7.43 l 1.31,6.31 z m 25.84,0 -8.56,-40.25 h 6.44 l 5.43,25.25 c 1.19,5.87 6.44,10.62 11.57,10.62 3.75,0 6.31,-2.12 6.31,-5.31 0,-0.81 -0.06,-1.81 -0.31,-2.81 l -5.94,-27.75 h 6.5 l 5.37,25.25 c 1.19,6 6.5,10.62 12.07,10.62 3.56,0 5.81,-2.25 5.81,-5.93 0,-1.13 0,-1.13 -0.69,-3.75 l -5.56,-26.19 h 6.5 l 6.06,28.62 c 0.19,0.88 0.44,3.38 0.44,4.25 0,2 -0.94,4.13 -2.44,5.94 -1.69,1.81 -3.75,2.56 -7.31,2.56 -5,0 -9.38,-2 -13.88,-6.37 -1.25,4.31 -4.25,6.37 -9.31,6.37 -5.25,0 -8.75,-1.5 -13.69,-6.12 l 1,5 z m 99.16,-27.19 -2.76,-13.06 h 6.76 l 2.74,13.06 h 8.13 l 1.32,6 h -8.13 l 7.5,35.38 h -5.06 l -31.94,-34.32 -1.56,-7.06 z m 1.31,6 h -17 l 22,23.63"
           style="fill:#000000;fill-opacity:1;fill-rule:nonzero;stroke:none"
           id="path453" /></g></g></g></svg>
