<?xml version="1.0" encoding="UTF-8" standalone="no"?>
<!-- Created with Inkscape (http://www.inkscape.org/) -->

<svg
   version="1.1"
   id="svg1318"
   xml:space="preserve"
   width="277.29865"
   height="207.45599"
   viewBox="0 0 277.29865 207.45599"
   sodipodi:docname="raft_entries.svg"
   inkscape:version="1.1.1 (3bf5ae0d25, 2021-09-20)"
   xmlns:inkscape="http://www.inkscape.org/namespaces/inkscape"
   xmlns:sodipodi="http://sodipodi.sourceforge.net/DTD/sodipodi-0.dtd"
   xmlns="http://www.w3.org/2000/svg"
   xmlns:svg="http://www.w3.org/2000/svg"><defs
     id="defs1322"><clipPath
       clipPathUnits="userSpaceOnUse"
       id="clipPath1454"><path
         d="m 3286.8,5516.4 h 2084 v 1564 h -2084 z"
         id="path1452" /></clipPath></defs><sodipodi:namedview
     id="namedview1320"
     pagecolor="#ffffff"
     bordercolor="#666666"
     borderopacity="1.0"
     inkscape:pageshadow="2"
     inkscape:pageopacity="0.0"
     inkscape:pagecheckerboard="0"
     showgrid="false"
     inkscape:zoom="1.1931818"
     inkscape:cx="286.20952"
     inkscape:cy="425.33333"
     inkscape:window-width="3840"
     inkscape:window-height="2069"
     inkscape:window-x="0"
     inkscape:window-y="50"
     inkscape:window-maximized="1"
     inkscape:current-layer="g1324" /><g
     id="g1324"
     inkscape:groupmode="layer"
     inkscape:label="raft"
     transform="matrix(1.3333333,0,0,-1.3333333,-438.31199,943.51331)"><g
       id="g1448"
       transform="scale(0.1)"><g
         id="g1450"
         clip-path="url(#clipPath1454)"><path
           d="m 5032.82,6857.3 h 6.81 v -57.75 h -6.81 z m 56.79,-35.25 v -3.37 h -31.38 c 0.29,-4.67 1.71,-8.25 4.26,-10.75 2.53,-2.47 6.07,-3.69 10.62,-3.69 2.62,0 5.16,0.31 7.62,0.94 2.46,0.66 4.9,1.64 7.32,2.94 v -6.44 c -2.47,-1.05 -4.99,-1.84 -7.56,-2.38 -2.55,-0.53 -5.16,-0.81 -7.81,-0.81 -6.63,0 -11.88,1.9 -15.76,5.75 -3.87,3.88 -5.81,9.1 -5.81,15.69 0,6.78 1.83,12.19 5.5,16.19 3.66,4 8.62,6 14.88,6 5.57,0 10,-1.82 13.24,-5.44 3.26,-3.59 4.88,-8.47 4.88,-14.63 z m -6.81,2 c -0.05,3.75 -1.09,6.72 -3.12,8.94 -2.05,2.2 -4.76,3.31 -8.13,3.31 -3.8,0 -6.84,-1.09 -9.13,-3.25 -2.29,-2.12 -3.6,-5.16 -3.93,-9.06 z m 37.43,-3.62 c -5.54,0 -9.37,-0.63 -11.5,-1.88 -2.12,-1.25 -3.18,-3.4 -3.18,-6.43 0,-2.43 0.78,-4.36 2.37,-5.82 1.63,-1.42 3.81,-2.12 6.57,-2.12 3.78,0 6.81,1.33 9.06,4 2.28,2.7 3.44,6.28 3.44,10.75 v 1.5 z m 13.63,2.81 v -23.69 h -6.87 v 6.31 c -1.55,-2.54 -3.49,-4.41 -5.81,-5.62 -2.35,-1.15 -5.18,-1.75 -8.5,-1.75 -4.26,0 -7.66,1.19 -10.19,3.56 -2.5,2.38 -3.76,5.58 -3.76,9.63 0,4.66 1.57,8.18 4.69,10.56 3.13,2.38 7.79,3.56 14,3.56 h 9.57 v 0.63 c 0,3.16 -1.05,5.59 -3.13,7.31 -2.04,1.71 -4.92,2.56 -8.63,2.56 -2.37,0 -4.68,-0.29 -6.93,-0.87 -2.25,-0.55 -4.42,-1.38 -6.5,-2.5 v 6.31 c 2.5,0.95 4.91,1.65 7.25,2.12 2.37,0.5 4.66,0.76 6.87,0.76 6,0 10.47,-1.57 13.44,-4.69 3,-3.13 4.5,-7.86 4.5,-14.19 z m 41.93,11.56 v 22.5 h 6.8 v -57.75 h -6.8 v 6.25 c -1.43,-2.5 -3.24,-4.35 -5.44,-5.56 -2.17,-1.15 -4.8,-1.75 -7.88,-1.75 -5,0 -9.09,2 -12.25,6 -3.17,4 -4.75,9.27 -4.75,15.81 0,6.54 1.58,11.82 4.75,15.82 3.16,4 7.25,6 12.25,6 3.08,0 5.71,-0.61 7.88,-1.82 2.2,-1.21 4.01,-3.04 5.44,-5.5 z m -23.25,-14.5 c 0,-5.04 1.01,-9 3.05,-11.87 2.09,-2.84 4.95,-4.25 8.57,-4.25 3.57,0 6.4,1.41 8.5,4.25 2.07,2.87 3.13,6.83 3.13,11.87 0,5 -1.06,8.94 -3.13,11.82 -2.1,2.87 -4.93,4.31 -8.5,4.31 -3.62,0 -6.48,-1.44 -8.57,-4.31 -2.04,-2.88 -3.05,-6.82 -3.05,-11.82 z m 80.18,1.75 v -3.37 h -31.37 c 0.28,-4.67 1.7,-8.25 4.24,-10.75 2.54,-2.47 6.09,-3.69 10.63,-3.69 2.63,0 5.16,0.31 7.63,0.94 2.45,0.66 4.88,1.64 7.31,2.94 v -6.44 c -2.47,-1.05 -4.98,-1.84 -7.57,-2.38 -2.54,-0.53 -5.15,-0.81 -7.8,-0.81 -6.63,0 -11.88,1.9 -15.75,5.75 -3.88,3.88 -5.82,9.1 -5.82,15.69 0,6.78 1.83,12.19 5.5,16.19 3.66,4 8.63,6 14.87,6 5.59,0 10,-1.82 13.26,-5.44 3.24,-3.59 4.87,-8.47 4.87,-14.63 z m -6.81,2 c -0.05,3.75 -1.09,6.72 -3.12,8.94 -2.06,2.2 -4.75,3.31 -8.13,3.31 -3.8,0 -6.84,-1.09 -9.12,-3.25 -2.31,-2.12 -3.62,-5.16 -3.95,-9.06 z m 42.63,10.69 c -0.75,0.45 -1.6,0.78 -2.5,1 -0.93,0.21 -1.93,0.31 -3,0.31 -3.88,0 -6.86,-1.28 -8.95,-3.81 -2.04,-2.5 -3.05,-6.11 -3.05,-10.81 v -21.88 h -6.88 v 41.57 h 6.88 v -6.44 c 1.45,2.5 3.32,4.34 5.62,5.56 2.28,1.25 5.07,1.88 8.38,1.88 0.45,0 0.96,-0.05 1.55,-0.13 0.59,-0.04 1.21,-0.13 1.88,-0.25"
           style="fill:#000000;fill-opacity:1;fill-rule:nonzero;stroke:none"
           id="path1456" /><path
           d="m 5051.8,6219.24 v -5.69 h -6.5 c -2.47,0 -4.17,-0.5 -5.12,-1.5 -0.97,-0.96 -1.45,-2.73 -1.45,-5.31 v -3.69 h 11.26 v -5.31 h -11.26 v -36.25 h -6.87 v 36.25 h -6.5 v 5.31 h 6.5 v 2.88 c 0,4.62 1.08,8 3.25,10.12 2.16,2.13 5.58,3.19 10.25,3.19 z m 22.06,-21 c -3.67,0 -6.56,-1.44 -8.68,-4.31 -2.13,-2.84 -3.19,-6.74 -3.19,-11.69 0,-4.97 1.06,-8.88 3.19,-11.75 2.12,-2.87 5.01,-4.31 8.68,-4.31 3.66,0 6.56,1.44 8.69,4.31 2.13,2.87 3.18,6.78 3.18,11.75 0,4.91 -1.05,8.81 -3.18,11.69 -2.13,2.87 -5.03,4.31 -8.69,4.31 z m 0,5.81 c 5.96,0 10.63,-1.93 14,-5.81 3.37,-3.84 5.06,-9.17 5.06,-16 0,-6.79 -1.69,-12.12 -5.06,-16 -3.37,-3.88 -8.04,-5.81 -14,-5.81 -5.97,0 -10.63,1.93 -14,5.81 -3.37,3.88 -5.06,9.21 -5.06,16 0,6.83 1.69,12.16 5.06,16 3.37,3.88 8.03,5.81 14,5.81 z m 30.87,15.19 h 6.82 v -57.75 h -6.82 z m 21.32,0 h 6.81 v -57.75 h -6.81 z m 37.36,-21 c -3.68,0 -6.56,-1.44 -8.69,-4.31 -2.13,-2.84 -3.18,-6.74 -3.18,-11.69 0,-4.97 1.05,-8.88 3.18,-11.75 2.13,-2.87 5.01,-4.31 8.69,-4.31 3.65,0 6.56,1.44 8.68,4.31 2.13,2.87 3.2,6.78 3.2,11.75 0,4.91 -1.07,8.81 -3.2,11.69 -2.12,2.87 -5.03,4.31 -8.68,4.31 z m 0,5.81 c 5.95,0 10.63,-1.93 14,-5.81 3.38,-3.84 5.06,-9.17 5.06,-16 0,-6.79 -1.68,-12.12 -5.06,-16 -3.37,-3.88 -8.05,-5.81 -14,-5.81 -5.97,0 -10.62,1.93 -14,5.81 -3.37,3.88 -5.06,9.21 -5.06,16 0,6.83 1.69,12.16 5.06,16 3.38,3.88 8.03,5.81 14,5.81 z m 26.89,-1 h 6.81 l 8.57,-32.43 8.5,32.43 h 8.05 l 8.5,-32.43 8.5,32.43 h 6.82 l -10.82,-41.56 h -8.05 l -8.95,34.06 -9,-34.06 h -8.05 z m 102.34,-19.06 v -3.37 h -31.37 c 0.28,-4.67 1.7,-8.26 4.25,-10.76 2.53,-2.46 6.07,-3.68 10.62,-3.68 2.63,0 5.16,0.31 7.63,0.94 2.45,0.65 4.89,1.64 7.31,2.93 v -6.43 c -2.47,-1.05 -4.99,-1.85 -7.56,-2.38 -2.55,-0.53 -5.16,-0.81 -7.81,-0.81 -6.63,0 -11.88,1.91 -15.75,5.75 -3.88,3.87 -5.82,9.09 -5.82,15.68 0,6.79 1.83,12.19 5.5,16.19 3.66,4 8.63,6 14.88,6 5.57,0 10,-1.81 13.25,-5.43 3.25,-3.6 4.87,-8.47 4.87,-14.63 z m -6.81,2 c -0.04,3.75 -1.1,6.72 -3.12,8.94 -2.05,2.2 -4.75,3.31 -8.13,3.31 -3.79,0 -6.85,-1.09 -9.12,-3.25 -2.3,-2.13 -3.61,-5.15 -3.94,-9.06 z m 42.63,10.69 c -0.75,0.45 -1.6,0.78 -2.5,1 -0.92,0.2 -1.92,0.31 -3,0.31 -3.88,0 -6.87,-1.28 -8.94,-3.81 -2.05,-2.5 -3.06,-6.11 -3.06,-10.82 v -21.87 h -6.88 v 41.56 h 6.88 v -6.43 c 1.45,2.5 3.33,4.34 5.62,5.56 2.28,1.25 5.08,1.87 8.38,1.87 0.45,0 0.96,-0.04 1.56,-0.12 0.57,-0.05 1.2,-0.13 1.87,-0.25 z m 34.09,5.12 v -6.44 c -1.97,1 -3.99,1.76 -6.06,2.26 -2.1,0.5 -4.24,0.74 -6.44,0.74 -3.37,0 -5.92,-0.52 -7.63,-1.56 -1.71,-1.04 -2.56,-2.61 -2.56,-4.68 0,-1.6 0.6,-2.85 1.82,-3.76 1.24,-0.87 3.68,-1.73 7.31,-2.56 l 2.37,-0.5 c 4.83,-1.04 8.27,-2.53 10.32,-4.44 2.03,-1.87 3.05,-4.52 3.05,-7.93 0,-3.84 -1.52,-6.88 -4.55,-9.13 -3.05,-2.25 -7.26,-3.37 -12.63,-3.37 -2.22,0 -4.53,0.23 -6.94,0.69 -2.42,0.4 -4.97,1.03 -7.62,1.87 v 7.06 c 2.5,-1.29 4.97,-2.28 7.43,-2.93 2.46,-0.67 4.9,-1 7.31,-1 3.21,0 5.66,0.53 7.38,1.62 1.75,1.12 2.62,2.69 2.62,4.69 0,1.87 -0.62,3.28 -1.87,4.25 -1.25,1 -4,1.95 -8.25,2.87 l -2.38,0.57 c -4.21,0.87 -7.24,2.22 -9.12,4.06 -1.88,1.87 -2.81,4.41 -2.81,7.62 0,3.91 1.38,6.94 4.12,9.06 2.79,2.13 6.72,3.19 11.81,3.19 2.54,0 4.91,-0.19 7.13,-0.56 2.2,-0.37 4.27,-0.94 6.19,-1.69"
           style="fill:#000000;fill-opacity:1;fill-rule:nonzero;stroke:none"
           id="path1458" /><path
           d="m 4889.71,6703.39 c 128,0 -32,-514.4 96,-514.4 -128,0 32,-514.39 -96,-514.39"
           style="fill:none;stroke:#000000;stroke-width:9.6;stroke-linecap:butt;stroke-linejoin:miter;stroke-miterlimit:4;stroke-dasharray:none;stroke-opacity:1"
           id="path1460" /><path
           d="m 3376.02,7024.91 h 12.25 v 42.25 l -13.31,-2.68 v 6.87 l 13.25,2.63 h 7.5 v -49.07 h 12.18 v -6.31 h -31.87"
           style="fill:#000000;fill-opacity:1;fill-rule:nonzero;stroke:none"
           id="path1462" /><path
           d="m 3571.18,7024.91 h 26.18 v -6.31 h -35.18 v 6.31 c 2.82,2.95 6.7,6.91 11.62,11.88 4.91,4.95 8,8.14 9.25,9.56 2.41,2.7 4.09,5 5.06,6.87 0.95,1.88 1.44,3.71 1.44,5.5 0,2.96 -1.05,5.35 -3.13,7.19 -2.04,1.88 -4.73,2.81 -8.06,2.81 -2.34,0 -4.81,-0.42 -7.44,-1.24 -2.62,-0.85 -5.42,-2.07 -8.37,-3.69 v 7.56 c 3,1.2 5.81,2.13 8.44,2.75 2.62,0.62 5.03,0.94 7.24,0.94 5.71,0 10.27,-1.44 13.69,-4.32 3.41,-2.87 5.13,-6.71 5.13,-11.5 0,-2.29 -0.44,-4.46 -1.32,-6.5 -0.84,-2.04 -2.37,-4.46 -4.62,-7.24 -0.62,-0.72 -2.61,-2.79 -5.93,-6.19 -3.3,-3.43 -7.97,-8.22 -14,-14.38"
           style="fill:#000000;fill-opacity:1;fill-rule:nonzero;stroke:none"
           id="path1464" /><path
           d="m 3778.64,7048.48 c 3.63,-0.76 6.44,-2.36 8.44,-4.82 2,-2.42 3,-5.4 3,-8.94 0,-5.5 -1.87,-9.74 -5.62,-12.74 -3.75,-2.97 -9.1,-4.44 -16,-4.44 -2.35,0 -4.74,0.23 -7.19,0.68 -2.47,0.46 -5,1.14 -7.63,2.07 v 7.25 c 2.08,-1.25 4.35,-2.19 6.82,-2.82 2.45,-0.59 5.03,-0.87 7.75,-0.87 4.7,0 8.28,0.91 10.75,2.75 2.45,1.88 3.68,4.58 3.68,8.12 0,3.26 -1.15,5.79 -3.43,7.63 -2.3,1.87 -5.49,2.81 -9.57,2.81 h -6.43 v 6.13 h 6.75 c 3.65,0 6.46,0.72 8.43,2.19 1.96,1.5 2.94,3.62 2.94,6.37 0,2.87 -1.03,5.06 -3.06,6.56 -2,1.54 -4.88,2.31 -8.63,2.31 -2.05,0 -4.25,-0.23 -6.62,-0.68 -2.34,-0.47 -4.93,-1.16 -7.75,-2.06 v 6.68 c 2.87,0.79 5.53,1.38 8,1.75 2.5,0.41 4.84,0.63 7.06,0.63 5.66,0 10.16,-1.32 13.5,-3.94 3.33,-2.59 5,-6.06 5,-10.44 0,-3.09 -0.91,-5.68 -2.69,-7.81 -1.75,-2.09 -4.25,-3.55 -7.5,-4.37"
           style="fill:#000000;fill-opacity:1;fill-rule:nonzero;stroke:none"
           id="path1466" /><path
           d="m 3969.83,7067.48 -18.94,-29.57 h 18.94 z m -2,6.5 h 9.44 v -36.07 h 7.87 v -6.25 h -7.87 v -13.06 h -7.44 v 13.06 h -25.06 v 7.25"
           style="fill:#000000;fill-opacity:1;fill-rule:nonzero;stroke:none"
           id="path1468" /><path
           d="m 4139.83,7073.98 h 29.44 v -6.26 h -22.56 v -13.62 c 1.08,0.38 2.15,0.64 3.25,0.81 1.08,0.21 2.18,0.31 3.31,0.31 6.15,0 11.03,-1.71 14.62,-5.12 3.63,-3.38 5.44,-7.97 5.44,-13.75 0,-5.97 -1.86,-10.59 -5.56,-13.87 -3.72,-3.3 -8.94,-4.94 -15.69,-4.94 -2.35,0 -4.72,0.22 -7.12,0.62 -2.38,0.38 -4.86,0.96 -7.44,1.75 v 7.5 c 2.2,-1.22 4.5,-2.11 6.87,-2.69 2.38,-0.59 4.9,-0.87 7.57,-0.87 4.27,0 7.65,1.13 10.12,3.37 2.5,2.26 3.75,5.29 3.75,9.13 0,3.87 -1.25,6.94 -3.75,9.19 -2.47,2.25 -5.85,3.37 -10.12,3.37 -2,0 -4,-0.23 -6,-0.69 -2,-0.42 -4.05,-1.1 -6.13,-2.06"
           style="fill:#000000;fill-opacity:1;fill-rule:nonzero;stroke:none"
           id="path1470" /><path
           d="m 4521.88,7073.98 h 35.62 v -3.19 l -20.12,-52.19 h -7.82 l 18.88,49.12 h -26.56"
           style="fill:#000000;fill-opacity:1;fill-rule:nonzero;stroke:none"
           id="path1472" /><path
           d="m 4349.08,7049.29 c -3.35,0 -6,-1.16 -8,-3.44 -1.97,-2.3 -2.94,-5.47 -2.94,-9.5 0,-3.97 0.97,-7.11 2.94,-9.44 2,-2.29 4.65,-3.43 8,-3.43 3.38,0 6.03,1.14 8,3.43 2,2.33 3,5.47 3,9.44 0,4.03 -1,7.2 -3,9.5 -1.97,2.28 -4.62,3.44 -8,3.44 z m 14.88,23.5 v -6.81 c -1.88,0.87 -3.78,1.53 -5.69,2 -1.92,0.5 -3.81,0.74 -5.69,0.74 -4.97,0 -8.75,-1.68 -11.37,-5.06 -2.6,-3.34 -4.07,-8.37 -4.44,-15.12 1.45,2.15 3.28,3.81 5.5,4.94 2.2,1.15 4.64,1.74 7.31,1.74 5.53,0 9.91,-1.68 13.13,-5.06 3.25,-3.37 4.87,-7.98 4.87,-13.81 0,-5.67 -1.69,-10.23 -5.06,-13.69 -3.34,-3.42 -7.81,-5.12 -13.44,-5.12 -6.37,0 -11.28,2.45 -14.69,7.37 -3.37,4.91 -5.06,12.02 -5.06,21.31 0,8.79 2.06,15.79 6.19,21 4.16,5.21 9.75,7.82 16.75,7.82 1.91,0 3.82,-0.19 5.75,-0.56 1.9,-0.38 3.89,-0.94 5.94,-1.69"
           style="fill:#000000;fill-opacity:1;fill-rule:nonzero;stroke:none"
           id="path1474" /><path
           d="m 4732.02,7044.91 c -3.6,0 -6.41,-0.96 -8.44,-2.87 -2.04,-1.88 -3.06,-4.5 -3.06,-7.88 0,-3.34 1.02,-5.97 3.06,-7.87 2.03,-1.88 4.84,-2.81 8.44,-2.81 3.53,0 6.33,0.95 8.37,2.87 2.08,1.91 3.13,4.51 3.13,7.81 0,3.38 -1.03,6 -3.06,7.88 -2.05,1.91 -4.87,2.87 -8.44,2.87 z m -7.5,3.19 c -3.25,0.78 -5.79,2.28 -7.56,4.5 -1.8,2.2 -2.69,4.89 -2.69,8.06 0,4.41 1.58,7.91 4.75,10.5 3.16,2.58 7.5,3.88 13,3.88 5.5,0 9.81,-1.3 12.94,-3.88 3.15,-2.59 4.75,-6.09 4.75,-10.5 0,-3.17 -0.91,-5.86 -2.69,-8.06 -1.8,-2.22 -4.3,-3.72 -7.5,-4.5 3.62,-0.84 6.44,-2.48 8.44,-4.94 2.03,-2.47 3.06,-5.47 3.06,-9 0,-5.34 -1.66,-9.44 -4.94,-12.31 -3.29,-2.87 -7.99,-4.31 -14.06,-4.31 -6.13,0 -10.84,1.44 -14.13,4.31 -3.25,2.87 -4.87,6.97 -4.87,12.31 0,3.53 1,6.53 3,9 2.03,2.46 4.87,4.1 8.5,4.94 z m -2.75,11.81 c 0,-2.84 0.89,-5.06 2.69,-6.69 1.77,-1.62 4.31,-2.43 7.56,-2.43 3.2,0 5.7,0.81 7.5,2.43 1.83,1.63 2.75,3.85 2.75,6.69 0,2.88 -0.92,5.13 -2.75,6.75 -1.8,1.63 -4.3,2.44 -7.5,2.44 -3.25,0 -5.79,-0.81 -7.56,-2.44 -1.8,-1.62 -2.69,-3.87 -2.69,-6.75"
           style="fill:#000000;fill-opacity:1;fill-rule:nonzero;stroke:none"
           id="path1476" /><path
           d="m 5025.61,7076.35 h 6.81 v -57.75 h -6.81 z m 37.38,-21 c -3.67,0 -6.57,-1.44 -8.69,-4.31 -2.12,-2.85 -3.19,-6.74 -3.19,-11.69 0,-4.97 1.07,-8.87 3.19,-11.75 2.12,-2.88 5.02,-4.31 8.69,-4.31 3.65,0 6.56,1.43 8.69,4.31 2.12,2.88 3.18,6.78 3.18,11.75 0,4.91 -1.06,8.81 -3.18,11.69 -2.13,2.87 -5.04,4.31 -8.69,4.31 z m 0,5.81 c 5.95,0 10.62,-1.94 14,-5.81 3.37,-3.84 5.06,-9.17 5.06,-16 0,-6.8 -1.69,-12.13 -5.06,-16 -3.38,-3.87 -8.05,-5.81 -14,-5.81 -5.97,0 -10.63,1.94 -14,5.81 -3.38,3.87 -5.07,9.2 -5.07,16 0,6.83 1.69,12.16 5.07,16 3.37,3.87 8.03,5.81 14,5.81 z m 58.19,-21.31 c 0,4.95 -1.04,8.78 -3.07,11.5 -2.05,2.75 -4.9,4.13 -8.56,4.13 -3.67,0 -6.53,-1.38 -8.56,-4.13 -2.05,-2.72 -3.07,-6.55 -3.07,-11.5 0,-4.92 1.02,-8.75 3.07,-11.5 2.03,-2.72 4.89,-4.06 8.56,-4.06 3.66,0 6.51,1.34 8.56,4.06 2.03,2.75 3.07,6.58 3.07,11.5 z m 6.81,-16.06 c 0,-7.08 -1.57,-12.34 -4.69,-15.81 -3.12,-3.46 -7.94,-5.19 -14.44,-5.19 -2.42,0 -4.68,0.19 -6.81,0.56 -2.13,0.34 -4.19,0.87 -6.19,1.63 v 6.62 c 2,-1.08 3.97,-1.88 5.94,-2.38 1.95,-0.53 3.95,-0.81 6,-0.81 4.45,0 7.78,1.19 10,3.57 2.25,2.34 3.38,5.86 3.38,10.56 v 3.37 c -1.43,-2.46 -3.24,-4.29 -5.45,-5.5 -2.17,-1.22 -4.79,-1.81 -7.87,-1.81 -5.09,0 -9.18,1.94 -12.31,5.81 -3.13,3.88 -4.69,9.02 -4.69,15.44 0,6.45 1.56,11.63 4.69,15.5 3.13,3.87 7.22,5.81 12.31,5.81 3.08,0 5.7,-0.61 7.87,-1.81 2.21,-1.22 4.02,-3.05 5.45,-5.5 v 6.31 h 6.81 z m 39.07,36.37 h 6.82 v -41.56 h -6.82 z m 0,16.19 h 6.82 v -8.63 h -6.82 z m 55.8,-32.69 v -25.06 h -6.81 v 24.88 c 0,3.9 -0.78,6.84 -2.32,8.81 -1.5,1.95 -3.79,2.93 -6.87,2.93 -3.72,0 -6.63,-1.18 -8.75,-3.56 -2.12,-2.34 -3.19,-5.53 -3.19,-9.56 v -23.5 h -6.87 v 41.56 h 6.87 v -6.44 c 1.63,2.5 3.54,4.35 5.76,5.57 2.24,1.25 4.81,1.87 7.68,1.87 4.78,0 8.39,-1.48 10.82,-4.44 2.45,-2.96 3.68,-7.31 3.68,-13.06 z m 41.56,10.19 v 22.5 h 6.81 v -57.75 h -6.81 v 6.25 c -1.42,-2.5 -3.23,-4.36 -5.43,-5.56 -2.17,-1.16 -4.8,-1.75 -7.88,-1.75 -5,0 -9.09,2 -12.25,6 -3.17,4 -4.75,9.26 -4.75,15.81 0,6.53 1.58,11.81 4.75,15.81 3.16,4 7.25,6 12.25,6 3.08,0 5.71,-0.61 7.88,-1.81 2.2,-1.22 4.01,-3.05 5.43,-5.5 z m -23.24,-14.5 c 0,-5.05 1.01,-9 3.05,-11.87 2.09,-2.85 4.95,-4.26 8.57,-4.26 3.58,0 6.41,1.41 8.5,4.26 2.08,2.87 3.12,6.82 3.12,11.87 0,5 -1.04,8.94 -3.12,11.81 -2.09,2.88 -4.92,4.32 -8.5,4.32 -3.62,0 -6.48,-1.44 -8.57,-4.32 -2.04,-2.87 -3.05,-6.81 -3.05,-11.81 z m 80.18,1.75 v -3.38 h -31.37 c 0.28,-4.67 1.7,-8.24 4.24,-10.74 2.54,-2.47 6.09,-3.69 10.63,-3.69 2.63,0 5.16,0.31 7.63,0.93 2.45,0.66 4.89,1.64 7.31,2.94 v -6.44 c -2.47,-1.04 -4.98,-1.84 -7.57,-2.37 -2.54,-0.53 -5.15,-0.81 -7.81,-0.81 -6.62,0 -11.87,1.91 -15.74,5.75 -3.88,3.87 -5.82,9.09 -5.82,15.69 0,6.78 1.83,12.18 5.5,16.18 3.66,4 8.63,6 14.87,6 5.59,0 10,-1.81 13.26,-5.44 3.24,-3.59 4.87,-8.46 4.87,-14.62 z m -6.81,2 c -0.05,3.75 -1.09,6.72 -3.13,8.94 -2.04,2.2 -4.74,3.31 -8.12,3.31 -3.8,0 -6.84,-1.09 -9.12,-3.25 -2.3,-2.12 -3.62,-5.15 -3.95,-9.06 z m 51.72,17.06 -15,-20.25 15.81,-21.31 h -8.06 l -12.13,16.31 -12.06,-16.31 h -8.06 l 16.12,21.75 -14.75,19.81 h 8.07 l 11,-14.81 11.06,14.81"
           style="fill:#000000;fill-opacity:1;fill-rule:nonzero;stroke:none"
           id="path1478" /><path
           d="m 3292.14,6730.6 h 192 v 192 h -192 z"
           style="fill:#c1f3c1;fill-opacity:1;fill-rule:nonzero;stroke:none"
           id="path1480" /><path
           d="m 3292.14,6730.6 h 192 v 192 h -192 z"
           style="fill:none;stroke:#000000;stroke-width:9.6;stroke-linecap:butt;stroke-linejoin:miter;stroke-miterlimit:4;stroke-dasharray:none;stroke-opacity:1"
           id="path1482" /><path
           d="m 3374.42,6844.16 h 12.26 v 42.25 l -13.32,-2.69 v 6.88 l 13.25,2.62 h 7.5 v -49.06 h 12.19 v -6.31 h -31.88"
           style="fill:#000000;fill-opacity:1;fill-rule:nonzero;stroke:none"
           id="path1484" /><path
           d="m 3351.77,6802.6 -15,-20.25 15.81,-21.31 h -8.06 l -12.13,16.31 -12.06,-16.31 h -8.06 l 16.12,21.75 -14.75,19.81 h 8.07 l 11,-14.81 11.06,14.81 z m 7.45,-19.44 v 3.38 l 14.63,14.56 4.44,-4.44 -8.63,-8.62 h 45.19 v -6.32 h -45.19 l 8.63,-8.68 -4.44,-4.44 z m 91.47,7.75 c 3.63,-0.75 6.44,-2.36 8.44,-4.81 2,-2.42 3,-5.41 3,-8.94 0,-5.5 -1.88,-9.75 -5.63,-12.75 -3.75,-2.96 -9.09,-4.43 -16,-4.43 -2.34,0 -4.73,0.23 -7.18,0.68 -2.47,0.46 -5,1.14 -7.63,2.06 v 7.26 c 2.08,-1.26 4.35,-2.19 6.81,-2.82 2.46,-0.59 5.04,-0.87 7.75,-0.87 4.71,0 8.29,0.9 10.75,2.75 2.46,1.87 3.69,4.58 3.69,8.12 0,3.25 -1.15,5.79 -3.44,7.63 -2.29,1.87 -5.48,2.81 -9.56,2.81 h -6.44 v 6.12 h 6.75 c 3.66,0 6.47,0.73 8.44,2.19 1.95,1.5 2.94,3.63 2.94,6.38 0,2.87 -1.03,5.06 -3.06,6.56 -2,1.53 -4.88,2.31 -8.63,2.31 -2.05,0 -4.25,-0.23 -6.63,-0.68 -2.34,-0.47 -4.92,-1.16 -7.74,-2.07 v 6.69 c 2.87,0.78 5.53,1.38 8,1.75 2.5,0.41 4.84,0.63 7.06,0.63 5.66,0 10.16,-1.32 13.5,-3.94 3.33,-2.59 5,-6.06 5,-10.44 0,-3.09 -0.91,-5.69 -2.69,-7.81 -1.75,-2.1 -4.25,-3.55 -7.5,-4.38"
           style="fill:#000000;fill-opacity:1;fill-rule:nonzero;stroke:none"
           id="path1486" /><path
           d="m 3484.14,6730.6 h 192 v 192 h -192 z"
           style="fill:#c1f3c1;fill-opacity:1;fill-rule:nonzero;stroke:none"
           id="path1488" /><path
           d="m 3484.14,6730.6 h 192 v 192 h -192 z"
           style="fill:none;stroke:#000000;stroke-width:9.6;stroke-linecap:butt;stroke-linejoin:miter;stroke-miterlimit:4;stroke-dasharray:none;stroke-opacity:1"
           id="path1490" /><path
           d="m 3566.42,6844.16 h 12.26 v 42.25 l -13.32,-2.69 v 6.88 l 13.25,2.62 h 7.5 v -49.06 h 12.19 v -6.31 h -31.88"
           style="fill:#000000;fill-opacity:1;fill-rule:nonzero;stroke:none"
           id="path1492" /><path
           d="m 3526.52,6757.16 c -1.93,-4.95 -3.8,-8.18 -5.63,-9.68 -1.84,-1.5 -4.3,-2.26 -7.37,-2.26 h -5.44 v 5.69 h 4 c 1.88,0 3.33,0.47 4.38,1.38 1.03,0.87 2.2,2.98 3.5,6.31 l 1.18,3.12 -16.81,40.88 h 7.25 l 13,-32.5 13,32.5 h 7.19 z m 24.7,26 v 3.38 l 14.63,14.56 4.44,-4.44 -8.63,-8.62 h 45.19 v -6.32 h -45.19 l 8.63,-8.68 -4.44,-4.44 z m 70.1,-15.81 h 12.24 v 42.25 l -13.31,-2.69 v 6.88 l 13.25,2.62 h 7.5 v -49.06 h 12.19 v -6.31 h -31.87"
           style="fill:#000000;fill-opacity:1;fill-rule:nonzero;stroke:none"
           id="path1494" /><path
           d="m 3676.14,6730.6 h 192 v 192 h -192 z"
           style="fill:#c1f3c1;fill-opacity:1;fill-rule:nonzero;stroke:none"
           id="path1496" /><path
           d="m 3676.14,6730.6 h 192 v 192 h -192 z"
           style="fill:none;stroke:#000000;stroke-width:9.6;stroke-linecap:butt;stroke-linejoin:miter;stroke-miterlimit:4;stroke-dasharray:none;stroke-opacity:1"
           id="path1498" /><path
           d="m 3758.42,6844.16 h 12.26 v 42.25 l -13.32,-2.69 v 6.88 l 13.25,2.62 h 7.5 v -49.06 h 12.19 v -6.31 h -31.88"
           style="fill:#000000;fill-opacity:1;fill-rule:nonzero;stroke:none"
           id="path1500" /><path
           d="m 3718.52,6757.16 c -1.93,-4.95 -3.8,-8.18 -5.63,-9.68 -1.84,-1.5 -4.3,-2.26 -7.37,-2.26 h -5.44 v 5.69 h 4 c 1.88,0 3.33,0.47 4.38,1.38 1.03,0.87 2.2,2.98 3.5,6.31 l 1.18,3.12 -16.81,40.88 h 7.25 l 13,-32.5 13,32.5 h 7.19 z m 24.7,26 v 3.38 l 14.63,14.56 4.44,-4.44 -8.63,-8.62 h 45.19 v -6.32 h -45.19 l 8.63,-8.68 -4.44,-4.44 z m 69.03,-21 v 6.88 c 1.88,-0.92 3.77,-1.61 5.69,-2.06 1.91,-0.47 3.81,-0.69 5.69,-0.69 4.95,0 8.72,1.64 11.31,4.93 2.62,3.33 4.12,8.4 4.5,15.19 -1.47,-2.12 -3.3,-3.78 -5.5,-4.93 -2.17,-1.13 -4.59,-1.69 -7.25,-1.69 -5.55,0 -9.94,1.66 -13.19,5 -3.21,3.37 -4.81,7.97 -4.81,13.81 0,5.66 1.66,10.22 5,13.69 3.37,3.45 7.85,5.19 13.44,5.19 6.41,0 11.31,-2.47 14.69,-7.38 3.37,-4.92 5.06,-12.06 5.06,-21.44 0,-8.71 -2.09,-15.67 -6.25,-20.87 -4.13,-5.22 -9.69,-7.81 -16.69,-7.81 -1.88,0 -3.8,0.18 -5.75,0.56 -1.92,0.37 -3.9,0.91 -5.94,1.62 z m 14.88,23.5 c 3.37,0 6.03,1.14 8,3.44 1.95,2.33 2.93,5.5 2.93,9.5 0,3.95 -0.98,7.09 -2.93,9.44 -1.97,2.32 -4.63,3.5 -8,3.5 -3.34,0 -6,-1.18 -8,-3.5 -1.97,-2.35 -2.94,-5.49 -2.94,-9.44 0,-4 0.97,-7.17 2.94,-9.5 2,-2.3 4.66,-3.44 8,-3.44"
           style="fill:#000000;fill-opacity:1;fill-rule:nonzero;stroke:none"
           id="path1502" /><path
           d="m 3868.14,6730.6 h 192 v 192 h -192 z"
           style="fill:#ffffbf;fill-opacity:1;fill-rule:nonzero;stroke:none"
           id="path1504" /><path
           d="m 3868.14,6730.6 h 192 v 192 h -192 z"
           style="fill:none;stroke:#000000;stroke-width:9.6;stroke-linecap:butt;stroke-linejoin:miter;stroke-miterlimit:4;stroke-dasharray:none;stroke-opacity:1"
           id="path1506" /><path
           d="m 3955.55,6844.16 h 26.18 v -6.31 h -35.18 v 6.31 c 2.83,2.96 6.7,6.91 11.63,11.88 4.9,4.95 8,8.14 9.24,9.56 2.41,2.7 4.1,5 5.07,6.88 0.95,1.87 1.43,3.7 1.43,5.5 0,2.95 -1.04,5.34 -3.12,7.18 -2.05,1.88 -4.74,2.82 -8.07,2.82 -2.34,0 -4.81,-0.43 -7.43,-1.26 -2.62,-0.84 -5.42,-2.06 -8.38,-3.68 v 7.56 c 3,1.2 5.81,2.12 8.44,2.75 2.63,0.63 5.03,0.94 7.25,0.94 5.71,0 10.27,-1.44 13.69,-4.31 3.41,-2.88 5.12,-6.72 5.12,-11.5 0,-2.3 -0.43,-4.47 -1.31,-6.5 -0.84,-2.05 -2.38,-4.47 -4.62,-7.26 -0.63,-0.71 -2.61,-2.77 -5.94,-6.18 -3.3,-3.42 -7.97,-8.22 -14,-14.38"
           style="fill:#000000;fill-opacity:1;fill-rule:nonzero;stroke:none"
           id="path1508" /><path
           d="m 3927.77,6802.6 -15,-20.25 15.81,-21.31 h -8.06 l -12.13,16.31 -12.06,-16.31 h -8.06 l 16.12,21.75 -14.75,19.81 h 8.07 l 11,-14.81 11.06,14.81 z m 7.45,-19.44 v 3.38 l 14.63,14.56 4.44,-4.44 -8.63,-8.62 h 45.19 v -6.32 h -45.19 l 8.63,-8.68 -4.44,-4.44 z m 75.22,-15.81 h 26.19 v -6.31 h -35.19 v 6.31 c 2.83,2.95 6.7,6.91 11.62,11.87 4.91,4.96 8,8.14 9.26,9.57 2.4,2.7 4.09,5 5.06,6.87 0.95,1.88 1.44,3.7 1.44,5.5 0,2.96 -1.05,5.35 -3.13,7.19 -2.05,1.87 -4.73,2.81 -8.06,2.81 -2.34,0 -4.81,-0.42 -7.44,-1.25 -2.63,-0.84 -5.42,-2.06 -8.37,-3.69 v 7.57 c 3,1.2 5.81,2.12 8.43,2.75 2.63,0.62 5.04,0.94 7.25,0.94 5.71,0 10.27,-1.44 13.69,-4.32 3.4,-2.87 5.13,-6.71 5.13,-11.5 0,-2.3 -0.44,-4.47 -1.32,-6.5 -0.84,-2.04 -2.37,-4.47 -4.62,-7.25 -0.63,-0.72 -2.61,-2.78 -5.94,-6.19 -3.3,-3.42 -7.97,-8.21 -14,-14.37"
           style="fill:#000000;fill-opacity:1;fill-rule:nonzero;stroke:none"
           id="path1510" /><path
           d="m 4060.14,6730.6 h 192 v 192 h -192 z"
           style="fill:#b5def5;fill-opacity:1;fill-rule:nonzero;stroke:none"
           id="path1512" /><path
           d="m 4060.14,6730.6 h 192 v 192 h -192 z"
           style="fill:none;stroke:#000000;stroke-width:9.6;stroke-linecap:butt;stroke-linejoin:miter;stroke-miterlimit:4;stroke-dasharray:none;stroke-opacity:1"
           id="path1514" /><path
           d="m 4163.8,6867.72 c 3.62,-0.74 6.43,-2.36 8.43,-4.81 2,-2.42 3,-5.4 3,-8.93 0,-5.5 -1.87,-9.76 -5.62,-12.76 -3.75,-2.96 -9.09,-4.43 -16,-4.43 -2.34,0 -4.73,0.23 -7.19,0.69 -2.46,0.45 -5,1.14 -7.62,2.06 v 7.25 c 2.08,-1.25 4.34,-2.19 6.81,-2.81 2.45,-0.6 5.03,-0.88 7.75,-0.88 4.7,0 8.28,0.91 10.75,2.75 2.45,1.87 3.69,4.58 3.69,8.13 0,3.24 -1.16,5.78 -3.44,7.62 -2.3,1.88 -5.48,2.81 -9.56,2.81 h -6.44 v 6.13 h 6.75 c 3.66,0 6.47,0.72 8.44,2.18 1.95,1.5 2.94,3.63 2.94,6.38 0,2.88 -1.03,5.06 -3.07,6.56 -2,1.53 -4.87,2.32 -8.62,2.32 -2.05,0 -4.25,-0.24 -6.62,-0.69 -2.35,-0.47 -4.93,-1.16 -7.76,-2.07 v 6.69 c 2.88,0.78 5.54,1.38 8,1.75 2.5,0.41 4.85,0.63 7.07,0.63 5.65,0 10.15,-1.31 13.5,-3.94 3.33,-2.59 5,-6.06 5,-10.44 0,-3.09 -0.91,-5.69 -2.69,-7.81 -1.75,-2.09 -4.25,-3.55 -7.5,-4.38"
           style="fill:#000000;fill-opacity:1;fill-rule:nonzero;stroke:none"
           id="path1516" /><path
           d="m 4119.77,6802.6 -15,-20.25 15.81,-21.31 h -8.06 l -12.13,16.31 -12.06,-16.31 h -8.06 l 16.12,21.75 -14.75,19.81 h 8.07 l 11,-14.81 11.06,14.81 z m 7.45,-19.44 v 3.38 l 14.63,14.56 4.44,-4.44 -8.63,-8.62 h 45.19 v -6.32 h -45.19 l 8.63,-8.68 -4.44,-4.44 z m 84.84,28.38 c -3.87,0 -6.79,-1.92 -8.74,-5.75 -1.93,-3.8 -2.88,-9.5 -2.88,-17.13 0,-7.59 0.95,-13.28 2.88,-17.06 1.95,-3.8 4.87,-5.69 8.74,-5.69 3.88,0 6.77,1.89 8.69,5.69 1.96,3.78 2.94,9.47 2.94,17.06 0,7.63 -0.98,13.33 -2.94,17.13 -1.92,3.83 -4.81,5.75 -8.69,5.75 z m 0,5.94 c 6.21,0 10.94,-2.47 14.19,-7.38 3.29,-4.92 4.94,-12.06 4.94,-21.44 0,-9.3 -1.65,-16.4 -4.94,-21.31 -3.25,-4.92 -7.98,-7.37 -14.19,-7.37 -6.21,0 -10.97,2.45 -14.24,7.37 -3.3,4.91 -4.94,12.01 -4.94,21.31 0,9.38 1.64,16.52 4.94,21.44 3.27,4.91 8.03,7.38 14.24,7.38"
           style="fill:#000000;fill-opacity:1;fill-rule:nonzero;stroke:none"
           id="path1518" /><path
           d="m 4252.14,6730.6 h 192 v 192 h -192 z"
           style="fill:#b5def5;fill-opacity:1;fill-rule:nonzero;stroke:none"
           id="path1520" /><path
           d="m 4252.14,6730.6 h 192 v 192 h -192 z"
           style="fill:none;stroke:#000000;stroke-width:9.6;stroke-linecap:butt;stroke-linejoin:miter;stroke-miterlimit:4;stroke-dasharray:none;stroke-opacity:1"
           id="path1522" /><path
           d="m 4355.8,6867.72 c 3.62,-0.74 6.43,-2.36 8.43,-4.81 2,-2.42 3,-5.4 3,-8.93 0,-5.5 -1.87,-9.76 -5.62,-12.76 -3.75,-2.96 -9.09,-4.43 -16,-4.43 -2.34,0 -4.73,0.23 -7.19,0.69 -2.46,0.45 -5,1.14 -7.62,2.06 v 7.25 c 2.08,-1.25 4.34,-2.19 6.81,-2.81 2.45,-0.6 5.03,-0.88 7.75,-0.88 4.7,0 8.28,0.91 10.75,2.75 2.45,1.87 3.69,4.58 3.69,8.13 0,3.24 -1.16,5.78 -3.44,7.62 -2.3,1.88 -5.48,2.81 -9.56,2.81 h -6.44 v 6.13 h 6.75 c 3.66,0 6.47,0.72 8.44,2.18 1.95,1.5 2.94,3.63 2.94,6.38 0,2.88 -1.03,5.06 -3.07,6.56 -2,1.53 -4.87,2.32 -8.62,2.32 -2.05,0 -4.25,-0.24 -6.62,-0.69 -2.35,-0.47 -4.93,-1.16 -7.76,-2.07 v 6.69 c 2.88,0.78 5.54,1.38 8,1.75 2.5,0.41 4.85,0.63 7.07,0.63 5.65,0 10.15,-1.31 13.5,-3.94 3.33,-2.59 5,-6.06 5,-10.44 0,-3.09 -0.91,-5.69 -2.69,-7.81 -1.75,-2.09 -4.25,-3.55 -7.5,-4.38"
           style="fill:#000000;fill-opacity:1;fill-rule:nonzero;stroke:none"
           id="path1524" /><path
           d="m 4294.52,6757.16 c -1.93,-4.95 -3.8,-8.18 -5.63,-9.68 -1.84,-1.5 -4.3,-2.26 -7.37,-2.26 h -5.44 v 5.69 h 4 c 1.88,0 3.33,0.47 4.38,1.38 1.03,0.87 2.2,2.98 3.5,6.31 l 1.18,3.12 -16.81,40.88 h 7.25 l 13,-32.5 13,32.5 h 7.19 z m 24.7,26 v 3.38 l 14.63,14.56 4.44,-4.44 -8.63,-8.62 h 45.19 v -6.32 h -45.19 l 8.63,-8.68 -4.44,-4.44 z m 66.91,33.25 h 35.62 v -3.19 l -20.12,-52.18 h -7.81 l 18.87,49.12 h -26.56"
           style="fill:#000000;fill-opacity:1;fill-rule:nonzero;stroke:none"
           id="path1526" /><path
           d="m 4444.14,6730.6 h 192 v 192 h -192 z"
           style="fill:#b5def5;fill-opacity:1;fill-rule:nonzero;stroke:none"
           id="path1528" /><path
           d="m 4444.14,6730.6 h 192 v 192 h -192 z"
           style="fill:none;stroke:#000000;stroke-width:9.6;stroke-linecap:butt;stroke-linejoin:miter;stroke-miterlimit:4;stroke-dasharray:none;stroke-opacity:1"
           id="path1530" /><path
           d="m 4547.8,6867.72 c 3.62,-0.74 6.43,-2.36 8.43,-4.81 2,-2.42 3,-5.4 3,-8.93 0,-5.5 -1.87,-9.76 -5.62,-12.76 -3.75,-2.96 -9.09,-4.43 -16,-4.43 -2.34,0 -4.73,0.23 -7.19,0.69 -2.46,0.45 -5,1.14 -7.62,2.06 v 7.25 c 2.08,-1.25 4.34,-2.19 6.81,-2.81 2.45,-0.6 5.03,-0.88 7.75,-0.88 4.7,0 8.28,0.91 10.75,2.75 2.45,1.87 3.69,4.58 3.69,8.13 0,3.24 -1.16,5.78 -3.44,7.62 -2.3,1.88 -5.48,2.81 -9.56,2.81 h -6.44 v 6.13 h 6.75 c 3.66,0 6.47,0.72 8.44,2.18 1.95,1.5 2.94,3.63 2.94,6.38 0,2.88 -1.03,5.06 -3.07,6.56 -2,1.53 -4.87,2.32 -8.62,2.32 -2.05,0 -4.25,-0.24 -6.62,-0.69 -2.35,-0.47 -4.93,-1.16 -7.76,-2.07 v 6.69 c 2.88,0.78 5.54,1.38 8,1.75 2.5,0.41 4.85,0.63 7.07,0.63 5.65,0 10.15,-1.31 13.5,-3.94 3.33,-2.59 5,-6.06 5,-10.44 0,-3.09 -0.91,-5.69 -2.69,-7.81 -1.75,-2.09 -4.25,-3.55 -7.5,-4.38"
           style="fill:#000000;fill-opacity:1;fill-rule:nonzero;stroke:none"
           id="path1532" /><path
           d="m 4503.77,6802.6 -15,-20.25 15.81,-21.31 h -8.06 l -12.13,16.31 -12.06,-16.31 h -8.06 l 16.12,21.75 -14.75,19.81 h 8.07 l 11,-14.81 11.06,14.81 z m 7.45,-19.44 v 3.38 l 14.63,14.56 4.44,-4.44 -8.63,-8.62 h 45.19 v -6.32 h -45.19 l 8.63,-8.68 -4.44,-4.44 z m 68.84,33.25 h 29.44 v -6.25 h -22.56 v -13.62 c 1.08,0.37 2.15,0.64 3.25,0.81 1.08,0.2 2.19,0.31 3.31,0.31 6.16,0 11.04,-1.71 14.63,-5.12 3.62,-3.38 5.43,-7.97 5.43,-13.75 0,-5.97 -1.85,-10.6 -5.56,-13.88 -3.71,-3.29 -8.94,-4.93 -15.68,-4.93 -2.35,0 -4.73,0.21 -7.13,0.62 -2.37,0.38 -4.86,0.95 -7.44,1.75 v 7.5 c 2.21,-1.22 4.5,-2.11 6.88,-2.69 2.37,-0.59 4.89,-0.87 7.56,-0.87 4.28,0 7.66,1.12 10.13,3.37 2.5,2.25 3.74,5.29 3.74,9.13 0,3.87 -1.24,6.93 -3.74,9.19 -2.47,2.24 -5.85,3.37 -10.13,3.37 -2,0 -4,-0.23 -6,-0.69 -2,-0.42 -4.05,-1.11 -6.13,-2.06"
           style="fill:#000000;fill-opacity:1;fill-rule:nonzero;stroke:none"
           id="path1534" /><path
           d="m 4636.14,6730.6 h 192 v 192 h -192 z"
           style="fill:#b5def5;fill-opacity:1;fill-rule:nonzero;stroke:none"
           id="path1536" /><path
           d="m 4636.14,6730.6 h 192 v 192 h -192 z"
           style="fill:none;stroke:#000000;stroke-width:9.6;stroke-linecap:butt;stroke-linejoin:miter;stroke-miterlimit:4;stroke-dasharray:none;stroke-opacity:1"
           id="path1538" /><path
           d="m 4739.8,6867.72 c 3.62,-0.74 6.43,-2.36 8.43,-4.81 2,-2.42 3,-5.4 3,-8.93 0,-5.5 -1.87,-9.76 -5.62,-12.76 -3.75,-2.96 -9.09,-4.43 -16,-4.43 -2.34,0 -4.73,0.23 -7.19,0.69 -2.46,0.45 -5,1.14 -7.62,2.06 v 7.25 c 2.08,-1.25 4.34,-2.19 6.81,-2.81 2.45,-0.6 5.03,-0.88 7.75,-0.88 4.7,0 8.28,0.91 10.75,2.75 2.45,1.87 3.69,4.58 3.69,8.13 0,3.24 -1.16,5.78 -3.44,7.62 -2.3,1.88 -5.48,2.81 -9.56,2.81 h -6.44 v 6.13 h 6.75 c 3.66,0 6.47,0.72 8.44,2.18 1.95,1.5 2.94,3.63 2.94,6.38 0,2.88 -1.03,5.06 -3.07,6.56 -2,1.53 -4.87,2.32 -8.62,2.32 -2.05,0 -4.25,-0.24 -6.62,-0.69 -2.35,-0.47 -4.93,-1.16 -7.76,-2.07 v 6.69 c 2.88,0.78 5.54,1.38 8,1.75 2.5,0.41 4.85,0.63 7.07,0.63 5.65,0 10.15,-1.31 13.5,-3.94 3.33,-2.59 5,-6.06 5,-10.44 0,-3.09 -0.91,-5.69 -2.69,-7.81 -1.75,-2.09 -4.25,-3.55 -7.5,-4.38"
           style="fill:#000000;fill-opacity:1;fill-rule:nonzero;stroke:none"
           id="path1540" /><path
           d="m 4695.77,6802.6 -15,-20.25 15.81,-21.31 h -8.06 l -12.13,16.31 -12.06,-16.31 h -8.06 l 16.12,21.75 -14.75,19.81 h 8.07 l 11,-14.81 11.06,14.81 z m 7.45,-19.44 v 3.38 l 14.63,14.56 4.44,-4.44 -8.63,-8.62 h 45.19 v -6.32 h -45.19 l 8.63,-8.68 -4.44,-4.44 z m 89.41,26.75 -18.94,-29.56 h 18.94 z m -2,6.5 h 9.43 v -36.06 h 7.88 v -6.25 h -7.88 v -13.06 h -7.43 v 13.06 h -25.07 v 7.25"
           style="fill:#000000;fill-opacity:1;fill-rule:nonzero;stroke:none"
           id="path1542" /><path
           d="m 3292.14,6474.6 h 192 v 192 h -192 z"
           style="fill:#c1f3c1;fill-opacity:1;fill-rule:nonzero;stroke:none"
           id="path1544" /><path
           d="m 3292.14,6474.6 h 192 v 192 h -192 z"
           style="fill:none;stroke:#000000;stroke-width:9.6;stroke-linecap:butt;stroke-linejoin:miter;stroke-miterlimit:4;stroke-dasharray:none;stroke-opacity:1"
           id="path1546" /><path
           d="m 3374.42,6588.16 h 12.26 v 42.25 l -13.32,-2.69 v 6.88 l 13.25,2.62 h 7.5 v -49.06 h 12.19 v -6.31 h -31.88"
           style="fill:#000000;fill-opacity:1;fill-rule:nonzero;stroke:none"
           id="path1548" /><path
           d="m 3351.77,6546.6 -15,-20.25 15.81,-21.31 h -8.06 l -12.13,16.31 -12.06,-16.31 h -8.06 l 16.12,21.75 -14.75,19.81 h 8.07 l 11,-14.81 11.06,14.81 z m 7.45,-19.44 v 3.38 l 14.63,14.56 4.44,-4.44 -8.63,-8.62 h 45.19 v -6.32 h -45.19 l 8.63,-8.68 -4.44,-4.44 z m 91.47,7.75 c 3.63,-0.75 6.44,-2.36 8.44,-4.81 2,-2.42 3,-5.41 3,-8.94 0,-5.5 -1.88,-9.75 -5.63,-12.75 -3.75,-2.96 -9.09,-4.43 -16,-4.43 -2.34,0 -4.73,0.23 -7.18,0.68 -2.47,0.46 -5,1.14 -7.63,2.06 v 7.26 c 2.08,-1.26 4.35,-2.19 6.81,-2.82 2.46,-0.59 5.04,-0.87 7.75,-0.87 4.71,0 8.29,0.9 10.75,2.75 2.46,1.87 3.69,4.58 3.69,8.12 0,3.25 -1.15,5.79 -3.44,7.63 -2.29,1.87 -5.48,2.81 -9.56,2.81 h -6.44 v 6.12 h 6.75 c 3.66,0 6.47,0.73 8.44,2.19 1.95,1.5 2.94,3.63 2.94,6.38 0,2.87 -1.03,5.06 -3.06,6.56 -2,1.53 -4.88,2.31 -8.63,2.31 -2.05,0 -4.25,-0.23 -6.63,-0.68 -2.34,-0.47 -4.92,-1.16 -7.74,-2.07 v 6.69 c 2.87,0.78 5.53,1.38 8,1.75 2.5,0.41 4.84,0.63 7.06,0.63 5.66,0 10.16,-1.32 13.5,-3.94 3.33,-2.59 5,-6.06 5,-10.44 0,-3.09 -0.91,-5.69 -2.69,-7.81 -1.75,-2.1 -4.25,-3.55 -7.5,-4.38"
           style="fill:#000000;fill-opacity:1;fill-rule:nonzero;stroke:none"
           id="path1550" /><path
           d="m 3484.14,6474.6 h 192 v 192 h -192 z"
           style="fill:#c1f3c1;fill-opacity:1;fill-rule:nonzero;stroke:none"
           id="path1552" /><path
           d="m 3484.14,6474.6 h 192 v 192 h -192 z"
           style="fill:none;stroke:#000000;stroke-width:9.6;stroke-linecap:butt;stroke-linejoin:miter;stroke-miterlimit:4;stroke-dasharray:none;stroke-opacity:1"
           id="path1554" /><path
           d="m 3566.42,6588.16 h 12.26 v 42.25 l -13.32,-2.69 v 6.88 l 13.25,2.62 h 7.5 v -49.06 h 12.19 v -6.31 h -31.88"
           style="fill:#000000;fill-opacity:1;fill-rule:nonzero;stroke:none"
           id="path1556" /><path
           d="m 3526.52,6501.16 c -1.93,-4.95 -3.8,-8.18 -5.63,-9.68 -1.84,-1.5 -4.3,-2.26 -7.37,-2.26 h -5.44 v 5.69 h 4 c 1.88,0 3.33,0.47 4.38,1.38 1.03,0.87 2.2,2.98 3.5,6.31 l 1.18,3.12 -16.81,40.88 h 7.25 l 13,-32.5 13,32.5 h 7.19 z m 24.7,26 v 3.38 l 14.63,14.56 4.44,-4.44 -8.63,-8.62 h 45.19 v -6.32 h -45.19 l 8.63,-8.68 -4.44,-4.44 z m 70.1,-15.81 h 12.24 v 42.25 l -13.31,-2.69 v 6.88 l 13.25,2.62 h 7.5 v -49.06 h 12.19 v -6.31 h -31.87"
           style="fill:#000000;fill-opacity:1;fill-rule:nonzero;stroke:none"
           id="path1558" /><path
           d="m 3676.14,6474.6 h 192 v 192 h -192 z"
           style="fill:#c1f3c1;fill-opacity:1;fill-rule:nonzero;stroke:none"
           id="path1560" /><path
           d="m 3676.14,6474.6 h 192 v 192 h -192 z"
           style="fill:none;stroke:#000000;stroke-width:9.6;stroke-linecap:butt;stroke-linejoin:miter;stroke-miterlimit:4;stroke-dasharray:none;stroke-opacity:1"
           id="path1562" /><path
           d="m 3758.42,6588.16 h 12.26 v 42.25 l -13.32,-2.69 v 6.88 l 13.25,2.62 h 7.5 v -49.06 h 12.19 v -6.31 h -31.88"
           style="fill:#000000;fill-opacity:1;fill-rule:nonzero;stroke:none"
           id="path1564" /><path
           d="m 3718.52,6501.16 c -1.93,-4.95 -3.8,-8.18 -5.63,-9.68 -1.84,-1.5 -4.3,-2.26 -7.37,-2.26 h -5.44 v 5.69 h 4 c 1.88,0 3.33,0.47 4.38,1.38 1.03,0.87 2.2,2.98 3.5,6.31 l 1.18,3.12 -16.81,40.88 h 7.25 l 13,-32.5 13,32.5 h 7.19 z m 24.7,26 v 3.38 l 14.63,14.56 4.44,-4.44 -8.63,-8.62 h 45.19 v -6.32 h -45.19 l 8.63,-8.68 -4.44,-4.44 z m 69.03,-21 v 6.88 c 1.88,-0.92 3.77,-1.61 5.69,-2.06 1.91,-0.47 3.81,-0.69 5.69,-0.69 4.95,0 8.72,1.64 11.31,4.93 2.62,3.33 4.12,8.4 4.5,15.19 -1.47,-2.12 -3.3,-3.78 -5.5,-4.93 -2.17,-1.13 -4.59,-1.69 -7.25,-1.69 -5.55,0 -9.94,1.66 -13.19,5 -3.21,3.37 -4.81,7.97 -4.81,13.81 0,5.66 1.66,10.22 5,13.69 3.37,3.45 7.85,5.19 13.44,5.19 6.41,0 11.31,-2.47 14.69,-7.38 3.37,-4.92 5.06,-12.06 5.06,-21.44 0,-8.71 -2.09,-15.67 -6.25,-20.87 -4.13,-5.22 -9.69,-7.81 -16.69,-7.81 -1.88,0 -3.8,0.18 -5.75,0.56 -1.92,0.37 -3.9,0.91 -5.94,1.62 z m 14.88,23.5 c 3.37,0 6.03,1.14 8,3.44 1.95,2.33 2.93,5.5 2.93,9.5 0,3.95 -0.98,7.09 -2.93,9.44 -1.97,2.32 -4.63,3.5 -8,3.5 -3.34,0 -6,-1.18 -8,-3.5 -1.97,-2.35 -2.94,-5.49 -2.94,-9.44 0,-4 0.97,-7.17 2.94,-9.5 2,-2.3 4.66,-3.44 8,-3.44"
           style="fill:#000000;fill-opacity:1;fill-rule:nonzero;stroke:none"
           id="path1566" /><path
           d="m 3868.14,6474.6 h 192 v 192 h -192 z"
           style="fill:#ffffbf;fill-opacity:1;fill-rule:nonzero;stroke:none"
           id="path1568" /><path
           d="m 3868.14,6474.6 h 192 v 192 h -192 z"
           style="fill:none;stroke:#000000;stroke-width:9.6;stroke-linecap:butt;stroke-linejoin:miter;stroke-miterlimit:4;stroke-dasharray:none;stroke-opacity:1"
           id="path1570" /><path
           d="m 3955.55,6588.16 h 26.18 v -6.31 h -35.18 v 6.31 c 2.83,2.96 6.7,6.91 11.63,11.88 4.9,4.95 8,8.14 9.24,9.56 2.41,2.7 4.1,5 5.07,6.88 0.95,1.87 1.43,3.7 1.43,5.5 0,2.95 -1.04,5.34 -3.12,7.18 -2.05,1.88 -4.74,2.82 -8.07,2.82 -2.34,0 -4.81,-0.43 -7.43,-1.26 -2.62,-0.84 -5.42,-2.06 -8.38,-3.68 v 7.56 c 3,1.2 5.81,2.12 8.44,2.75 2.63,0.63 5.03,0.94 7.25,0.94 5.71,0 10.27,-1.44 13.69,-4.31 3.41,-2.88 5.12,-6.72 5.12,-11.5 0,-2.3 -0.43,-4.47 -1.31,-6.5 -0.84,-2.05 -2.38,-4.47 -4.62,-7.26 -0.63,-0.71 -2.61,-2.77 -5.94,-6.18 -3.3,-3.42 -7.97,-8.22 -14,-14.38"
           style="fill:#000000;fill-opacity:1;fill-rule:nonzero;stroke:none"
           id="path1572" /><path
           d="m 3927.77,6546.6 -15,-20.25 15.81,-21.31 h -8.06 l -12.13,16.31 -12.06,-16.31 h -8.06 l 16.12,21.75 -14.75,19.81 h 8.07 l 11,-14.81 11.06,14.81 z m 7.45,-19.44 v 3.38 l 14.63,14.56 4.44,-4.44 -8.63,-8.62 h 45.19 v -6.32 h -45.19 l 8.63,-8.68 -4.44,-4.44 z m 75.22,-15.81 h 26.19 v -6.31 h -35.19 v 6.31 c 2.83,2.95 6.7,6.91 11.62,11.87 4.91,4.96 8,8.14 9.26,9.57 2.4,2.7 4.09,5 5.06,6.87 0.95,1.88 1.44,3.7 1.44,5.5 0,2.96 -1.05,5.35 -3.13,7.19 -2.05,1.87 -4.73,2.81 -8.06,2.81 -2.34,0 -4.81,-0.42 -7.44,-1.25 -2.63,-0.84 -5.42,-2.06 -8.37,-3.69 v 7.57 c 3,1.2 5.81,2.12 8.43,2.75 2.63,0.62 5.04,0.94 7.25,0.94 5.71,0 10.27,-1.44 13.69,-4.32 3.4,-2.87 5.13,-6.71 5.13,-11.5 0,-2.3 -0.44,-4.47 -1.32,-6.5 -0.84,-2.04 -2.37,-4.47 -4.62,-7.25 -0.63,-0.72 -2.61,-2.78 -5.94,-6.19 -3.3,-3.42 -7.97,-8.21 -14,-14.37"
           style="fill:#000000;fill-opacity:1;fill-rule:nonzero;stroke:none"
           id="path1574" /><path
           d="m 4060.14,6474.6 h 192 v 192 h -192 z"
           style="fill:#b5def5;fill-opacity:1;fill-rule:nonzero;stroke:none"
           id="path1576" /><path
           d="m 4060.14,6474.6 h 192 v 192 h -192 z"
           style="fill:none;stroke:#000000;stroke-width:9.6;stroke-linecap:butt;stroke-linejoin:miter;stroke-miterlimit:4;stroke-dasharray:none;stroke-opacity:1"
           id="path1578" /><path
           d="m 4163.8,6611.72 c 3.62,-0.74 6.43,-2.36 8.43,-4.81 2,-2.42 3,-5.4 3,-8.93 0,-5.5 -1.87,-9.76 -5.62,-12.76 -3.75,-2.96 -9.09,-4.43 -16,-4.43 -2.34,0 -4.73,0.23 -7.19,0.69 -2.46,0.45 -5,1.14 -7.62,2.06 v 7.25 c 2.08,-1.25 4.34,-2.19 6.81,-2.81 2.45,-0.6 5.03,-0.88 7.75,-0.88 4.7,0 8.28,0.91 10.75,2.75 2.45,1.87 3.69,4.58 3.69,8.13 0,3.24 -1.16,5.78 -3.44,7.62 -2.3,1.88 -5.48,2.81 -9.56,2.81 h -6.44 v 6.13 h 6.75 c 3.66,0 6.47,0.72 8.44,2.18 1.95,1.5 2.94,3.63 2.94,6.38 0,2.88 -1.03,5.06 -3.07,6.56 -2,1.53 -4.87,2.32 -8.62,2.32 -2.05,0 -4.25,-0.24 -6.62,-0.69 -2.35,-0.47 -4.93,-1.16 -7.76,-2.07 v 6.69 c 2.88,0.78 5.54,1.38 8,1.75 2.5,0.41 4.85,0.63 7.07,0.63 5.65,0 10.15,-1.31 13.5,-3.94 3.33,-2.59 5,-6.06 5,-10.44 0,-3.09 -0.91,-5.69 -2.69,-7.81 -1.75,-2.09 -4.25,-3.55 -7.5,-4.38"
           style="fill:#000000;fill-opacity:1;fill-rule:nonzero;stroke:none"
           id="path1580" /><path
           d="m 4119.77,6546.6 -15,-20.25 15.81,-21.31 h -8.06 l -12.13,16.31 -12.06,-16.31 h -8.06 l 16.12,21.75 -14.75,19.81 h 8.07 l 11,-14.81 11.06,14.81 z m 7.45,-19.44 v 3.38 l 14.63,14.56 4.44,-4.44 -8.63,-8.62 h 45.19 v -6.32 h -45.19 l 8.63,-8.68 -4.44,-4.44 z m 84.84,28.38 c -3.87,0 -6.79,-1.92 -8.74,-5.75 -1.93,-3.8 -2.88,-9.5 -2.88,-17.13 0,-7.59 0.95,-13.28 2.88,-17.06 1.95,-3.8 4.87,-5.69 8.74,-5.69 3.88,0 6.77,1.89 8.69,5.69 1.96,3.78 2.94,9.47 2.94,17.06 0,7.63 -0.98,13.33 -2.94,17.13 -1.92,3.83 -4.81,5.75 -8.69,5.75 z m 0,5.94 c 6.21,0 10.94,-2.47 14.19,-7.38 3.29,-4.92 4.94,-12.06 4.94,-21.44 0,-9.3 -1.65,-16.4 -4.94,-21.31 -3.25,-4.92 -7.98,-7.37 -14.19,-7.37 -6.21,0 -10.97,2.45 -14.24,7.37 -3.3,4.91 -4.94,12.01 -4.94,21.31 0,9.38 1.64,16.52 4.94,21.44 3.27,4.91 8.03,7.38 14.24,7.38"
           style="fill:#000000;fill-opacity:1;fill-rule:nonzero;stroke:none"
           id="path1582" /><path
           d="m 3292.14,6218.6 h 192 v 192 h -192 z"
           style="fill:#c1f3c1;fill-opacity:1;fill-rule:nonzero;stroke:none"
           id="path1584" /><path
           d="m 3292.14,6218.6 h 192 v 192 h -192 z"
           style="fill:none;stroke:#000000;stroke-width:9.6;stroke-linecap:butt;stroke-linejoin:miter;stroke-miterlimit:4;stroke-dasharray:none;stroke-opacity:1"
           id="path1586" /><path
           d="m 3374.42,6332.16 h 12.26 v 42.25 l -13.32,-2.69 v 6.88 l 13.25,2.62 h 7.5 v -49.06 h 12.19 v -6.31 h -31.88"
           style="fill:#000000;fill-opacity:1;fill-rule:nonzero;stroke:none"
           id="path1588" /><path
           d="m 3351.77,6290.6 -15,-20.25 15.81,-21.31 h -8.06 l -12.13,16.31 -12.06,-16.31 h -8.06 l 16.12,21.75 -14.75,19.81 h 8.07 l 11,-14.81 11.06,14.81 z m 7.45,-19.44 v 3.38 l 14.63,14.56 4.44,-4.44 -8.63,-8.62 h 45.19 v -6.32 h -45.19 l 8.63,-8.68 -4.44,-4.44 z m 91.47,7.75 c 3.63,-0.75 6.44,-2.36 8.44,-4.81 2,-2.42 3,-5.41 3,-8.94 0,-5.5 -1.88,-9.75 -5.63,-12.75 -3.75,-2.96 -9.09,-4.43 -16,-4.43 -2.34,0 -4.73,0.23 -7.18,0.68 -2.47,0.46 -5,1.14 -7.63,2.06 v 7.26 c 2.08,-1.26 4.35,-2.19 6.81,-2.82 2.46,-0.59 5.04,-0.87 7.75,-0.87 4.71,0 8.29,0.9 10.75,2.75 2.46,1.87 3.69,4.58 3.69,8.12 0,3.25 -1.15,5.79 -3.44,7.63 -2.29,1.87 -5.48,2.81 -9.56,2.81 h -6.44 v 6.12 h 6.75 c 3.66,0 6.47,0.73 8.44,2.19 1.95,1.5 2.94,3.63 2.94,6.38 0,2.87 -1.03,5.06 -3.06,6.56 -2,1.53 -4.88,2.31 -8.63,2.31 -2.05,0 -4.25,-0.23 -6.63,-0.68 -2.34,-0.47 -4.92,-1.16 -7.74,-2.07 v 6.69 c 2.87,0.78 5.53,1.38 8,1.75 2.5,0.41 4.84,0.63 7.06,0.63 5.66,0 10.16,-1.32 13.5,-3.94 3.33,-2.59 5,-6.06 5,-10.44 0,-3.09 -0.91,-5.69 -2.69,-7.81 -1.75,-2.1 -4.25,-3.55 -7.5,-4.38"
           style="fill:#000000;fill-opacity:1;fill-rule:nonzero;stroke:none"
           id="path1590" /><path
           d="m 3484.14,6218.6 h 192 v 192 h -192 z"
           style="fill:#c1f3c1;fill-opacity:1;fill-rule:nonzero;stroke:none"
           id="path1592" /><path
           d="m 3484.14,6218.6 h 192 v 192 h -192 z"
           style="fill:none;stroke:#000000;stroke-width:9.6;stroke-linecap:butt;stroke-linejoin:miter;stroke-miterlimit:4;stroke-dasharray:none;stroke-opacity:1"
           id="path1594" /><path
           d="m 3566.42,6332.16 h 12.26 v 42.25 l -13.32,-2.69 v 6.88 l 13.25,2.62 h 7.5 v -49.06 h 12.19 v -6.31 h -31.88"
           style="fill:#000000;fill-opacity:1;fill-rule:nonzero;stroke:none"
           id="path1596" /><path
           d="m 3526.52,6245.16 c -1.93,-4.95 -3.8,-8.18 -5.63,-9.68 -1.84,-1.5 -4.3,-2.26 -7.37,-2.26 h -5.44 v 5.69 h 4 c 1.88,0 3.33,0.47 4.38,1.38 1.03,0.87 2.2,2.98 3.5,6.31 l 1.18,3.12 -16.81,40.88 h 7.25 l 13,-32.5 13,32.5 h 7.19 z m 24.7,26 v 3.38 l 14.63,14.56 4.44,-4.44 -8.63,-8.62 h 45.19 v -6.32 h -45.19 l 8.63,-8.68 -4.44,-4.44 z m 70.1,-15.81 h 12.24 v 42.25 l -13.31,-2.69 v 6.88 l 13.25,2.62 h 7.5 v -49.06 h 12.19 v -6.31 h -31.87"
           style="fill:#000000;fill-opacity:1;fill-rule:nonzero;stroke:none"
           id="path1598" /><path
           d="m 3676.14,6218.6 h 192 v 192 h -192 z"
           style="fill:#c1f3c1;fill-opacity:1;fill-rule:nonzero;stroke:none"
           id="path1600" /><path
           d="m 3676.14,6218.6 h 192 v 192 h -192 z"
           style="fill:none;stroke:#000000;stroke-width:9.6;stroke-linecap:butt;stroke-linejoin:miter;stroke-miterlimit:4;stroke-dasharray:none;stroke-opacity:1"
           id="path1602" /><path
           d="m 3758.42,6332.16 h 12.26 v 42.25 l -13.32,-2.69 v 6.88 l 13.25,2.62 h 7.5 v -49.06 h 12.19 v -6.31 h -31.88"
           style="fill:#000000;fill-opacity:1;fill-rule:nonzero;stroke:none"
           id="path1604" /><path
           d="m 3718.52,6245.16 c -1.93,-4.95 -3.8,-8.18 -5.63,-9.68 -1.84,-1.5 -4.3,-2.26 -7.37,-2.26 h -5.44 v 5.69 h 4 c 1.88,0 3.33,0.47 4.38,1.38 1.03,0.87 2.2,2.98 3.5,6.31 l 1.18,3.12 -16.81,40.88 h 7.25 l 13,-32.5 13,32.5 h 7.19 z m 24.7,26 v 3.38 l 14.63,14.56 4.44,-4.44 -8.63,-8.62 h 45.19 v -6.32 h -45.19 l 8.63,-8.68 -4.44,-4.44 z m 69.03,-21 v 6.88 c 1.88,-0.92 3.77,-1.61 5.69,-2.06 1.91,-0.47 3.81,-0.69 5.69,-0.69 4.95,0 8.72,1.64 11.31,4.93 2.62,3.33 4.12,8.4 4.5,15.19 -1.47,-2.12 -3.3,-3.78 -5.5,-4.93 -2.17,-1.13 -4.59,-1.69 -7.25,-1.69 -5.55,0 -9.94,1.66 -13.19,5 -3.21,3.37 -4.81,7.97 -4.81,13.81 0,5.66 1.66,10.22 5,13.69 3.37,3.45 7.85,5.19 13.44,5.19 6.41,0 11.31,-2.47 14.69,-7.38 3.37,-4.92 5.06,-12.06 5.06,-21.44 0,-8.71 -2.09,-15.67 -6.25,-20.87 -4.13,-5.22 -9.69,-7.81 -16.69,-7.81 -1.88,0 -3.8,0.18 -5.75,0.56 -1.92,0.37 -3.9,0.91 -5.94,1.62 z m 14.88,23.5 c 3.37,0 6.03,1.14 8,3.44 1.95,2.33 2.93,5.5 2.93,9.5 0,3.95 -0.98,7.09 -2.93,9.44 -1.97,2.32 -4.63,3.5 -8,3.5 -3.34,0 -6,-1.18 -8,-3.5 -1.97,-2.35 -2.94,-5.49 -2.94,-9.44 0,-4 0.97,-7.17 2.94,-9.5 2,-2.3 4.66,-3.44 8,-3.44"
           style="fill:#000000;fill-opacity:1;fill-rule:nonzero;stroke:none"
           id="path1606" /><path
           d="m 3868.14,6218.6 h 192 v 192 h -192 z"
           style="fill:#ffffbf;fill-opacity:1;fill-rule:nonzero;stroke:none"
           id="path1608" /><path
           d="m 3868.14,6218.6 h 192 v 192 h -192 z"
           style="fill:none;stroke:#000000;stroke-width:9.6;stroke-linecap:butt;stroke-linejoin:miter;stroke-miterlimit:4;stroke-dasharray:none;stroke-opacity:1"
           id="path1610" /><path
           d="m 3955.55,6332.16 h 26.18 v -6.31 h -35.18 v 6.31 c 2.83,2.96 6.7,6.91 11.63,11.88 4.9,4.95 8,8.14 9.24,9.56 2.41,2.7 4.1,5 5.07,6.88 0.95,1.87 1.43,3.7 1.43,5.5 0,2.95 -1.04,5.34 -3.12,7.18 -2.05,1.88 -4.74,2.82 -8.07,2.82 -2.34,0 -4.81,-0.43 -7.43,-1.26 -2.62,-0.84 -5.42,-2.06 -8.38,-3.68 v 7.56 c 3,1.2 5.81,2.12 8.44,2.75 2.63,0.63 5.03,0.94 7.25,0.94 5.71,0 10.27,-1.44 13.69,-4.31 3.41,-2.88 5.12,-6.72 5.12,-11.5 0,-2.3 -0.43,-4.47 -1.31,-6.5 -0.84,-2.05 -2.38,-4.47 -4.62,-7.26 -0.63,-0.71 -2.61,-2.77 -5.94,-6.18 -3.3,-3.42 -7.97,-8.22 -14,-14.38"
           style="fill:#000000;fill-opacity:1;fill-rule:nonzero;stroke:none"
           id="path1612" /><path
           d="m 3927.77,6290.6 -15,-20.25 15.81,-21.31 h -8.06 l -12.13,16.31 -12.06,-16.31 h -8.06 l 16.12,21.75 -14.75,19.81 h 8.07 l 11,-14.81 11.06,14.81 z m 7.45,-19.44 v 3.38 l 14.63,14.56 4.44,-4.44 -8.63,-8.62 h 45.19 v -6.32 h -45.19 l 8.63,-8.68 -4.44,-4.44 z m 75.22,-15.81 h 26.19 v -6.31 h -35.19 v 6.31 c 2.83,2.95 6.7,6.91 11.62,11.87 4.91,4.96 8,8.14 9.26,9.57 2.4,2.7 4.09,5 5.06,6.87 0.95,1.88 1.44,3.7 1.44,5.5 0,2.96 -1.05,5.35 -3.13,7.19 -2.05,1.87 -4.73,2.81 -8.06,2.81 -2.34,0 -4.81,-0.42 -7.44,-1.25 -2.63,-0.84 -5.42,-2.06 -8.37,-3.69 v 7.57 c 3,1.2 5.81,2.12 8.43,2.75 2.63,0.62 5.04,0.94 7.25,0.94 5.71,0 10.27,-1.44 13.69,-4.32 3.4,-2.87 5.13,-6.71 5.13,-11.5 0,-2.3 -0.44,-4.47 -1.32,-6.5 -0.84,-2.04 -2.37,-4.47 -4.62,-7.25 -0.63,-0.72 -2.61,-2.78 -5.94,-6.19 -3.3,-3.42 -7.97,-8.21 -14,-14.37"
           style="fill:#000000;fill-opacity:1;fill-rule:nonzero;stroke:none"
           id="path1614" /><path
           d="m 4060.14,6218.6 h 192 v 192 h -192 z"
           style="fill:#b5def5;fill-opacity:1;fill-rule:nonzero;stroke:none"
           id="path1616" /><path
           d="m 4060.14,6218.6 h 192 v 192 h -192 z"
           style="fill:none;stroke:#000000;stroke-width:9.6;stroke-linecap:butt;stroke-linejoin:miter;stroke-miterlimit:4;stroke-dasharray:none;stroke-opacity:1"
           id="path1618" /><path
           d="m 4163.8,6355.72 c 3.62,-0.74 6.43,-2.36 8.43,-4.81 2,-2.42 3,-5.4 3,-8.93 0,-5.5 -1.87,-9.76 -5.62,-12.76 -3.75,-2.96 -9.09,-4.43 -16,-4.43 -2.34,0 -4.73,0.23 -7.19,0.69 -2.46,0.45 -5,1.14 -7.62,2.06 v 7.25 c 2.08,-1.25 4.34,-2.19 6.81,-2.81 2.45,-0.6 5.03,-0.88 7.75,-0.88 4.7,0 8.28,0.91 10.75,2.75 2.45,1.87 3.69,4.58 3.69,8.13 0,3.24 -1.16,5.78 -3.44,7.62 -2.3,1.88 -5.48,2.81 -9.56,2.81 h -6.44 v 6.13 h 6.75 c 3.66,0 6.47,0.72 8.44,2.18 1.95,1.5 2.94,3.63 2.94,6.38 0,2.88 -1.03,5.06 -3.07,6.56 -2,1.53 -4.87,2.32 -8.62,2.32 -2.05,0 -4.25,-0.24 -6.62,-0.69 -2.35,-0.47 -4.93,-1.16 -7.76,-2.07 v 6.69 c 2.88,0.78 5.54,1.38 8,1.75 2.5,0.41 4.85,0.63 7.07,0.63 5.65,0 10.15,-1.31 13.5,-3.94 3.33,-2.59 5,-6.06 5,-10.44 0,-3.09 -0.91,-5.69 -2.69,-7.81 -1.75,-2.09 -4.25,-3.55 -7.5,-4.38"
           style="fill:#000000;fill-opacity:1;fill-rule:nonzero;stroke:none"
           id="path1620" /><path
           d="m 4119.77,6290.6 -15,-20.25 15.81,-21.31 h -8.06 l -12.13,16.31 -12.06,-16.31 h -8.06 l 16.12,21.75 -14.75,19.81 h 8.07 l 11,-14.81 11.06,14.81 z m 7.45,-19.44 v 3.38 l 14.63,14.56 4.44,-4.44 -8.63,-8.62 h 45.19 v -6.32 h -45.19 l 8.63,-8.68 -4.44,-4.44 z m 84.84,28.38 c -3.87,0 -6.79,-1.92 -8.74,-5.75 -1.93,-3.8 -2.88,-9.5 -2.88,-17.13 0,-7.59 0.95,-13.28 2.88,-17.06 1.95,-3.8 4.87,-5.69 8.74,-5.69 3.88,0 6.77,1.89 8.69,5.69 1.96,3.78 2.94,9.47 2.94,17.06 0,7.63 -0.98,13.33 -2.94,17.13 -1.92,3.83 -4.81,5.75 -8.69,5.75 z m 0,5.94 c 6.21,0 10.94,-2.47 14.19,-7.38 3.29,-4.92 4.94,-12.06 4.94,-21.44 0,-9.3 -1.65,-16.4 -4.94,-21.31 -3.25,-4.92 -7.98,-7.37 -14.19,-7.37 -6.21,0 -10.97,2.45 -14.24,7.37 -3.3,4.91 -4.94,12.01 -4.94,21.31 0,9.38 1.64,16.52 4.94,21.44 3.27,4.91 8.03,7.38 14.24,7.38"
           style="fill:#000000;fill-opacity:1;fill-rule:nonzero;stroke:none"
           id="path1622" /><path
           d="m 4252.14,6218.6 h 192 v 192 h -192 z"
           style="fill:#b5def5;fill-opacity:1;fill-rule:nonzero;stroke:none"
           id="path1624" /><path
           d="m 4252.14,6218.6 h 192 v 192 h -192 z"
           style="fill:none;stroke:#000000;stroke-width:9.6;stroke-linecap:butt;stroke-linejoin:miter;stroke-miterlimit:4;stroke-dasharray:none;stroke-opacity:1"
           id="path1626" /><path
           d="m 4355.8,6355.72 c 3.62,-0.74 6.43,-2.36 8.43,-4.81 2,-2.42 3,-5.4 3,-8.93 0,-5.5 -1.87,-9.76 -5.62,-12.76 -3.75,-2.96 -9.09,-4.43 -16,-4.43 -2.34,0 -4.73,0.23 -7.19,0.69 -2.46,0.45 -5,1.14 -7.62,2.06 v 7.25 c 2.08,-1.25 4.34,-2.19 6.81,-2.81 2.45,-0.6 5.03,-0.88 7.75,-0.88 4.7,0 8.28,0.91 10.75,2.75 2.45,1.87 3.69,4.58 3.69,8.13 0,3.24 -1.16,5.78 -3.44,7.62 -2.3,1.88 -5.48,2.81 -9.56,2.81 h -6.44 v 6.13 h 6.75 c 3.66,0 6.47,0.72 8.44,2.18 1.95,1.5 2.94,3.63 2.94,6.38 0,2.88 -1.03,5.06 -3.07,6.56 -2,1.53 -4.87,2.32 -8.62,2.32 -2.05,0 -4.25,-0.24 -6.62,-0.69 -2.35,-0.47 -4.93,-1.16 -7.76,-2.07 v 6.69 c 2.88,0.78 5.54,1.38 8,1.75 2.5,0.41 4.85,0.63 7.07,0.63 5.65,0 10.15,-1.31 13.5,-3.94 3.33,-2.59 5,-6.06 5,-10.44 0,-3.09 -0.91,-5.69 -2.69,-7.81 -1.75,-2.09 -4.25,-3.55 -7.5,-4.38"
           style="fill:#000000;fill-opacity:1;fill-rule:nonzero;stroke:none"
           id="path1628" /><path
           d="m 4294.52,6245.16 c -1.93,-4.95 -3.8,-8.18 -5.63,-9.68 -1.84,-1.5 -4.3,-2.26 -7.37,-2.26 h -5.44 v 5.69 h 4 c 1.88,0 3.33,0.47 4.38,1.38 1.03,0.87 2.2,2.98 3.5,6.31 l 1.18,3.12 -16.81,40.88 h 7.25 l 13,-32.5 13,32.5 h 7.19 z m 24.7,26 v 3.38 l 14.63,14.56 4.44,-4.44 -8.63,-8.62 h 45.19 v -6.32 h -45.19 l 8.63,-8.68 -4.44,-4.44 z m 66.91,33.25 h 35.62 v -3.19 l -20.12,-52.18 h -7.81 l 18.87,49.12 h -26.56"
           style="fill:#000000;fill-opacity:1;fill-rule:nonzero;stroke:none"
           id="path1630" /><path
           d="m 4444.14,6218.6 h 192 v 192 h -192 z"
           style="fill:#b5def5;fill-opacity:1;fill-rule:nonzero;stroke:none"
           id="path1632" /><path
           d="m 4444.14,6218.6 h 192 v 192 h -192 z"
           style="fill:none;stroke:#000000;stroke-width:9.6;stroke-linecap:butt;stroke-linejoin:miter;stroke-miterlimit:4;stroke-dasharray:none;stroke-opacity:1"
           id="path1634" /><path
           d="m 4547.8,6355.72 c 3.62,-0.74 6.43,-2.36 8.43,-4.81 2,-2.42 3,-5.4 3,-8.93 0,-5.5 -1.87,-9.76 -5.62,-12.76 -3.75,-2.96 -9.09,-4.43 -16,-4.43 -2.34,0 -4.73,0.23 -7.19,0.69 -2.46,0.45 -5,1.14 -7.62,2.06 v 7.25 c 2.08,-1.25 4.34,-2.19 6.81,-2.81 2.45,-0.6 5.03,-0.88 7.75,-0.88 4.7,0 8.28,0.91 10.75,2.75 2.45,1.87 3.69,4.58 3.69,8.13 0,3.24 -1.16,5.78 -3.44,7.62 -2.3,1.88 -5.48,2.81 -9.56,2.81 h -6.44 v 6.13 h 6.75 c 3.66,0 6.47,0.72 8.44,2.18 1.95,1.5 2.94,3.63 2.94,6.38 0,2.88 -1.03,5.06 -3.07,6.56 -2,1.53 -4.87,2.32 -8.62,2.32 -2.05,0 -4.25,-0.24 -6.62,-0.69 -2.35,-0.47 -4.93,-1.16 -7.76,-2.07 v 6.69 c 2.88,0.78 5.54,1.38 8,1.75 2.5,0.41 4.85,0.63 7.07,0.63 5.65,0 10.15,-1.31 13.5,-3.94 3.33,-2.59 5,-6.06 5,-10.44 0,-3.09 -0.91,-5.69 -2.69,-7.81 -1.75,-2.09 -4.25,-3.55 -7.5,-4.38"
           style="fill:#000000;fill-opacity:1;fill-rule:nonzero;stroke:none"
           id="path1636" /><path
           d="m 4503.77,6290.6 -15,-20.25 15.81,-21.31 h -8.06 l -12.13,16.31 -12.06,-16.31 h -8.06 l 16.12,21.75 -14.75,19.81 h 8.07 l 11,-14.81 11.06,14.81 z m 7.45,-19.44 v 3.38 l 14.63,14.56 4.44,-4.44 -8.63,-8.62 h 45.19 v -6.32 h -45.19 l 8.63,-8.68 -4.44,-4.44 z m 68.84,33.25 h 29.44 v -6.25 h -22.56 v -13.62 c 1.08,0.37 2.15,0.64 3.25,0.81 1.08,0.2 2.19,0.31 3.31,0.31 6.16,0 11.04,-1.71 14.63,-5.12 3.62,-3.38 5.43,-7.97 5.43,-13.75 0,-5.97 -1.85,-10.6 -5.56,-13.88 -3.71,-3.29 -8.94,-4.93 -15.68,-4.93 -2.35,0 -4.73,0.21 -7.13,0.62 -2.37,0.38 -4.86,0.95 -7.44,1.75 v 7.5 c 2.21,-1.22 4.5,-2.11 6.88,-2.69 2.37,-0.59 4.89,-0.87 7.56,-0.87 4.28,0 7.66,1.12 10.13,3.37 2.5,2.25 3.74,5.29 3.74,9.13 0,3.87 -1.24,6.93 -3.74,9.19 -2.47,2.24 -5.85,3.37 -10.13,3.37 -2,0 -4,-0.23 -6,-0.69 -2,-0.42 -4.05,-1.11 -6.13,-2.06"
           style="fill:#000000;fill-opacity:1;fill-rule:nonzero;stroke:none"
           id="path1638" /><path
           d="m 3292.14,5962.6 h 192 v 192 h -192 z"
           style="fill:#c1f3c1;fill-opacity:1;fill-rule:nonzero;stroke:none"
           id="path1640" /><path
           d="m 3292.14,5962.6 h 192 v 192 h -192 z"
           style="fill:none;stroke:#000000;stroke-width:9.6;stroke-linecap:butt;stroke-linejoin:miter;stroke-miterlimit:4;stroke-dasharray:none;stroke-opacity:1"
           id="path1642" /><path
           d="m 3374.42,6076.16 h 12.26 v 42.25 l -13.32,-2.69 v 6.88 l 13.25,2.62 h 7.5 v -49.06 h 12.19 v -6.31 h -31.88"
           style="fill:#000000;fill-opacity:1;fill-rule:nonzero;stroke:none"
           id="path1644" /><path
           d="m 3351.77,6034.6 -15,-20.25 15.81,-21.31 h -8.06 l -12.13,16.31 -12.06,-16.31 h -8.06 l 16.12,21.75 -14.75,19.81 h 8.07 l 11,-14.81 11.06,14.81 z m 7.45,-19.44 v 3.38 l 14.63,14.56 4.44,-4.44 -8.63,-8.62 h 45.19 v -6.32 h -45.19 l 8.63,-8.68 -4.44,-4.44 z m 91.47,7.75 c 3.63,-0.75 6.44,-2.36 8.44,-4.81 2,-2.42 3,-5.41 3,-8.94 0,-5.5 -1.88,-9.75 -5.63,-12.75 -3.75,-2.96 -9.09,-4.43 -16,-4.43 -2.34,0 -4.73,0.23 -7.18,0.68 -2.47,0.46 -5,1.14 -7.63,2.06 v 7.26 c 2.08,-1.26 4.35,-2.19 6.81,-2.82 2.46,-0.59 5.04,-0.87 7.75,-0.87 4.71,0 8.29,0.9 10.75,2.75 2.46,1.87 3.69,4.58 3.69,8.12 0,3.25 -1.15,5.79 -3.44,7.63 -2.29,1.87 -5.48,2.81 -9.56,2.81 h -6.44 v 6.12 h 6.75 c 3.66,0 6.47,0.73 8.44,2.19 1.95,1.5 2.94,3.63 2.94,6.38 0,2.87 -1.03,5.06 -3.06,6.56 -2,1.53 -4.88,2.31 -8.63,2.31 -2.05,0 -4.25,-0.23 -6.63,-0.68 -2.34,-0.47 -4.92,-1.16 -7.74,-2.07 v 6.69 c 2.87,0.78 5.53,1.38 8,1.75 2.5,0.41 4.84,0.63 7.06,0.63 5.66,0 10.16,-1.32 13.5,-3.94 3.33,-2.59 5,-6.06 5,-10.44 0,-3.09 -0.91,-5.69 -2.69,-7.81 -1.75,-2.1 -4.25,-3.55 -7.5,-4.38"
           style="fill:#000000;fill-opacity:1;fill-rule:nonzero;stroke:none"
           id="path1646" /><path
           d="m 3484.14,5962.6 h 192 v 192 h -192 z"
           style="fill:#c1f3c1;fill-opacity:1;fill-rule:nonzero;stroke:none"
           id="path1648" /><path
           d="m 3484.14,5962.6 h 192 v 192 h -192 z"
           style="fill:none;stroke:#000000;stroke-width:9.6;stroke-linecap:butt;stroke-linejoin:miter;stroke-miterlimit:4;stroke-dasharray:none;stroke-opacity:1"
           id="path1650" /><path
           d="m 3566.42,6076.16 h 12.26 v 42.25 l -13.32,-2.69 v 6.88 l 13.25,2.62 h 7.5 v -49.06 h 12.19 v -6.31 h -31.88"
           style="fill:#000000;fill-opacity:1;fill-rule:nonzero;stroke:none"
           id="path1652" /><path
           d="m 3526.52,5989.16 c -1.93,-4.95 -3.8,-8.18 -5.63,-9.68 -1.84,-1.5 -4.3,-2.26 -7.37,-2.26 h -5.44 v 5.69 h 4 c 1.88,0 3.33,0.47 4.38,1.38 1.03,0.87 2.2,2.98 3.5,6.31 l 1.18,3.12 -16.81,40.88 h 7.25 l 13,-32.5 13,32.5 h 7.19 z m 24.7,26 v 3.38 l 14.63,14.56 4.44,-4.44 -8.63,-8.62 h 45.19 v -6.32 h -45.19 l 8.63,-8.68 -4.44,-4.44 z m 70.1,-15.81 h 12.24 v 42.25 l -13.31,-2.69 v 6.88 l 13.25,2.62 h 7.5 v -49.06 h 12.19 v -6.31 h -31.87"
           style="fill:#000000;fill-opacity:1;fill-rule:nonzero;stroke:none"
           id="path1654" /><path
           d="m 3292.14,5706.6 h 192 v 192 h -192 z"
           style="fill:#c1f3c1;fill-opacity:1;fill-rule:nonzero;stroke:none"
           id="path1656" /><path
           d="m 3292.14,5706.6 h 192 v 192 h -192 z"
           style="fill:none;stroke:#000000;stroke-width:9.6;stroke-linecap:butt;stroke-linejoin:miter;stroke-miterlimit:4;stroke-dasharray:none;stroke-opacity:1"
           id="path1658" /><path
           d="m 3374.42,5820.16 h 12.26 v 42.25 l -13.32,-2.69 v 6.88 l 13.25,2.62 h 7.5 v -49.06 h 12.19 v -6.31 h -31.88"
           style="fill:#000000;fill-opacity:1;fill-rule:nonzero;stroke:none"
           id="path1660" /><path
           d="m 3351.77,5778.6 -15,-20.25 15.81,-21.31 h -8.06 l -12.13,16.31 -12.06,-16.31 h -8.06 l 16.12,21.75 -14.75,19.81 h 8.07 l 11,-14.81 11.06,14.81 z m 7.45,-19.44 v 3.38 l 14.63,14.56 4.44,-4.44 -8.63,-8.62 h 45.19 v -6.32 h -45.19 l 8.63,-8.68 -4.44,-4.44 z m 91.47,7.75 c 3.63,-0.75 6.44,-2.36 8.44,-4.81 2,-2.42 3,-5.41 3,-8.94 0,-5.5 -1.88,-9.75 -5.63,-12.75 -3.75,-2.96 -9.09,-4.43 -16,-4.43 -2.34,0 -4.73,0.23 -7.18,0.68 -2.47,0.46 -5,1.14 -7.63,2.06 v 7.26 c 2.08,-1.26 4.35,-2.19 6.81,-2.82 2.46,-0.59 5.04,-0.87 7.75,-0.87 4.71,0 8.29,0.9 10.75,2.75 2.46,1.87 3.69,4.58 3.69,8.12 0,3.25 -1.15,5.79 -3.44,7.63 -2.29,1.87 -5.48,2.81 -9.56,2.81 h -6.44 v 6.12 h 6.75 c 3.66,0 6.47,0.73 8.44,2.19 1.95,1.5 2.94,3.63 2.94,6.38 0,2.87 -1.03,5.06 -3.06,6.56 -2,1.53 -4.88,2.31 -8.63,2.31 -2.05,0 -4.25,-0.23 -6.63,-0.68 -2.34,-0.47 -4.92,-1.16 -7.74,-2.07 v 6.69 c 2.87,0.78 5.53,1.38 8,1.75 2.5,0.41 4.84,0.63 7.06,0.63 5.66,0 10.16,-1.32 13.5,-3.94 3.33,-2.59 5,-6.06 5,-10.44 0,-3.09 -0.91,-5.69 -2.69,-7.81 -1.75,-2.1 -4.25,-3.55 -7.5,-4.38"
           style="fill:#000000;fill-opacity:1;fill-rule:nonzero;stroke:none"
           id="path1662" /><path
           d="m 3484.14,5706.6 h 192 v 192 h -192 z"
           style="fill:#c1f3c1;fill-opacity:1;fill-rule:nonzero;stroke:none"
           id="path1664" /><path
           d="m 3484.14,5706.6 h 192 v 192 h -192 z"
           style="fill:none;stroke:#000000;stroke-width:9.6;stroke-linecap:butt;stroke-linejoin:miter;stroke-miterlimit:4;stroke-dasharray:none;stroke-opacity:1"
           id="path1666" /><path
           d="m 3566.42,5820.16 h 12.26 v 42.25 l -13.32,-2.69 v 6.88 l 13.25,2.62 h 7.5 v -49.06 h 12.19 v -6.31 h -31.88"
           style="fill:#000000;fill-opacity:1;fill-rule:nonzero;stroke:none"
           id="path1668" /><path
           d="m 3526.52,5733.16 c -1.93,-4.95 -3.8,-8.18 -5.63,-9.68 -1.84,-1.5 -4.3,-2.25 -7.37,-2.25 h -5.44 v 5.68 h 4 c 1.88,0 3.33,0.47 4.38,1.38 1.03,0.87 2.2,2.98 3.5,6.31 l 1.18,3.12 -16.81,40.88 h 7.25 l 13,-32.5 13,32.5 h 7.19 z m 24.7,26 v 3.38 l 14.63,14.56 4.44,-4.44 -8.63,-8.62 h 45.19 v -6.32 h -45.19 l 8.63,-8.68 -4.44,-4.44 z m 70.1,-15.81 h 12.24 v 42.25 l -13.31,-2.69 v 6.88 l 13.25,2.62 h 7.5 v -49.06 h 12.19 v -6.31 h -31.87"
           style="fill:#000000;fill-opacity:1;fill-rule:nonzero;stroke:none"
           id="path1670" /><path
           d="m 3676.14,5706.6 h 192 v 192 h -192 z"
           style="fill:#c1f3c1;fill-opacity:1;fill-rule:nonzero;stroke:none"
           id="path1672" /><path
           d="m 3676.14,5706.6 h 192 v 192 h -192 z"
           style="fill:none;stroke:#000000;stroke-width:9.6;stroke-linecap:butt;stroke-linejoin:miter;stroke-miterlimit:4;stroke-dasharray:none;stroke-opacity:1"
           id="path1674" /><path
           d="m 3758.42,5820.16 h 12.26 v 42.25 l -13.32,-2.69 v 6.88 l 13.25,2.62 h 7.5 v -49.06 h 12.19 v -6.31 h -31.88"
           style="fill:#000000;fill-opacity:1;fill-rule:nonzero;stroke:none"
           id="path1676" /><path
           d="m 3718.52,5733.16 c -1.93,-4.95 -3.8,-8.18 -5.63,-9.68 -1.84,-1.5 -4.3,-2.25 -7.37,-2.25 h -5.44 v 5.68 h 4 c 1.88,0 3.33,0.47 4.38,1.38 1.03,0.87 2.2,2.98 3.5,6.31 l 1.18,3.12 -16.81,40.88 h 7.25 l 13,-32.5 13,32.5 h 7.19 z m 24.7,26 v 3.38 l 14.63,14.56 4.44,-4.44 -8.63,-8.62 h 45.19 v -6.32 h -45.19 l 8.63,-8.68 -4.44,-4.44 z m 69.03,-21 v 6.88 c 1.88,-0.92 3.77,-1.61 5.69,-2.06 1.91,-0.47 3.81,-0.69 5.69,-0.69 4.95,0 8.72,1.64 11.31,4.93 2.62,3.33 4.12,8.4 4.5,15.19 -1.47,-2.12 -3.3,-3.78 -5.5,-4.93 -2.17,-1.13 -4.59,-1.69 -7.25,-1.69 -5.55,0 -9.94,1.66 -13.19,5 -3.21,3.37 -4.81,7.97 -4.81,13.81 0,5.66 1.66,10.22 5,13.69 3.37,3.45 7.85,5.19 13.44,5.19 6.41,0 11.31,-2.47 14.69,-7.38 3.37,-4.92 5.06,-12.06 5.06,-21.44 0,-8.71 -2.09,-15.67 -6.25,-20.87 -4.13,-5.22 -9.69,-7.81 -16.69,-7.81 -1.88,0 -3.8,0.18 -5.75,0.56 -1.92,0.37 -3.9,0.91 -5.94,1.62 z m 14.88,23.5 c 3.37,0 6.03,1.14 8,3.44 1.95,2.33 2.93,5.5 2.93,9.5 0,3.95 -0.98,7.09 -2.93,9.44 -1.97,2.32 -4.63,3.5 -8,3.5 -3.34,0 -6,-1.18 -8,-3.5 -1.97,-2.35 -2.94,-5.49 -2.94,-9.44 0,-4 0.97,-7.17 2.94,-9.5 2,-2.3 4.66,-3.44 8,-3.44"
           style="fill:#000000;fill-opacity:1;fill-rule:nonzero;stroke:none"
           id="path1678" /><path
           d="m 3868.14,5706.6 h 192 v 192 h -192 z"
           style="fill:#ffffbf;fill-opacity:1;fill-rule:nonzero;stroke:none"
           id="path1680" /><path
           d="m 3868.14,5706.6 h 192 v 192 h -192 z"
           style="fill:none;stroke:#000000;stroke-width:9.6;stroke-linecap:butt;stroke-linejoin:miter;stroke-miterlimit:4;stroke-dasharray:none;stroke-opacity:1"
           id="path1682" /><path
           d="m 3955.55,5820.16 h 26.18 v -6.31 h -35.18 v 6.31 c 2.83,2.96 6.7,6.91 11.63,11.88 4.9,4.95 8,8.14 9.24,9.56 2.41,2.7 4.1,5 5.07,6.88 0.95,1.87 1.43,3.7 1.43,5.5 0,2.95 -1.04,5.34 -3.12,7.18 -2.05,1.88 -4.74,2.82 -8.07,2.82 -2.34,0 -4.81,-0.43 -7.43,-1.26 -2.62,-0.84 -5.42,-2.06 -8.38,-3.68 v 7.56 c 3,1.2 5.81,2.12 8.44,2.75 2.63,0.63 5.03,0.94 7.25,0.94 5.71,0 10.27,-1.44 13.69,-4.31 3.41,-2.88 5.12,-6.72 5.12,-11.5 0,-2.3 -0.43,-4.47 -1.31,-6.5 -0.84,-2.05 -2.38,-4.47 -4.62,-7.26 -0.63,-0.71 -2.61,-2.77 -5.94,-6.18 -3.3,-3.42 -7.97,-8.22 -14,-14.38"
           style="fill:#000000;fill-opacity:1;fill-rule:nonzero;stroke:none"
           id="path1684" /><path
           d="m 3927.77,5778.6 -15,-20.25 15.81,-21.31 h -8.06 l -12.13,16.31 -12.06,-16.31 h -8.06 l 16.12,21.75 -14.75,19.81 h 8.07 l 11,-14.81 11.06,14.81 z m 7.45,-19.44 v 3.38 l 14.63,14.56 4.44,-4.44 -8.63,-8.62 h 45.19 v -6.32 h -45.19 l 8.63,-8.68 -4.44,-4.44 z m 75.22,-15.81 h 26.19 v -6.31 h -35.19 v 6.31 c 2.83,2.95 6.7,6.91 11.62,11.87 4.91,4.96 8,8.14 9.26,9.57 2.4,2.7 4.09,5 5.06,6.87 0.95,1.88 1.44,3.7 1.44,5.5 0,2.96 -1.05,5.35 -3.13,7.19 -2.05,1.87 -4.73,2.81 -8.06,2.81 -2.34,0 -4.81,-0.42 -7.44,-1.25 -2.63,-0.84 -5.42,-2.06 -8.37,-3.69 v 7.57 c 3,1.2 5.81,2.12 8.43,2.75 2.63,0.62 5.04,0.94 7.25,0.94 5.71,0 10.27,-1.44 13.69,-4.32 3.4,-2.87 5.13,-6.71 5.13,-11.5 0,-2.3 -0.44,-4.47 -1.32,-6.5 -0.84,-2.04 -2.37,-4.47 -4.62,-7.25 -0.63,-0.72 -2.61,-2.78 -5.94,-6.19 -3.3,-3.42 -7.97,-8.21 -14,-14.37"
           style="fill:#000000;fill-opacity:1;fill-rule:nonzero;stroke:none"
           id="path1686" /><path
           d="m 4060.14,5706.6 h 192 v 192 h -192 z"
           style="fill:#b5def5;fill-opacity:1;fill-rule:nonzero;stroke:none"
           id="path1688" /><path
           d="m 4060.14,5706.6 h 192 v 192 h -192 z"
           style="fill:none;stroke:#000000;stroke-width:9.6;stroke-linecap:butt;stroke-linejoin:miter;stroke-miterlimit:4;stroke-dasharray:none;stroke-opacity:1"
           id="path1690" /><path
           d="m 4163.8,5843.72 c 3.62,-0.74 6.43,-2.36 8.43,-4.81 2,-2.42 3,-5.4 3,-8.93 0,-5.5 -1.87,-9.76 -5.62,-12.76 -3.75,-2.96 -9.09,-4.43 -16,-4.43 -2.34,0 -4.73,0.23 -7.19,0.69 -2.46,0.45 -5,1.14 -7.62,2.06 v 7.25 c 2.08,-1.25 4.34,-2.19 6.81,-2.81 2.45,-0.6 5.03,-0.88 7.75,-0.88 4.7,0 8.28,0.91 10.75,2.75 2.45,1.87 3.69,4.58 3.69,8.13 0,3.24 -1.16,5.78 -3.44,7.62 -2.3,1.88 -5.48,2.81 -9.56,2.81 h -6.44 v 6.13 h 6.75 c 3.66,0 6.47,0.72 8.44,2.18 1.95,1.5 2.94,3.63 2.94,6.38 0,2.88 -1.03,5.06 -3.07,6.56 -2,1.53 -4.87,2.32 -8.62,2.32 -2.05,0 -4.25,-0.24 -6.62,-0.69 -2.35,-0.47 -4.93,-1.16 -7.76,-2.07 v 6.69 c 2.88,0.78 5.54,1.38 8,1.75 2.5,0.41 4.85,0.63 7.07,0.63 5.65,0 10.15,-1.31 13.5,-3.94 3.33,-2.59 5,-6.06 5,-10.44 0,-3.09 -0.91,-5.69 -2.69,-7.81 -1.75,-2.09 -4.25,-3.55 -7.5,-4.38"
           style="fill:#000000;fill-opacity:1;fill-rule:nonzero;stroke:none"
           id="path1692" /><path
           d="m 4119.77,5778.6 -15,-20.25 15.81,-21.31 h -8.06 l -12.13,16.31 -12.06,-16.31 h -8.06 l 16.12,21.75 -14.75,19.81 h 8.07 l 11,-14.81 11.06,14.81 z m 7.45,-19.44 v 3.38 l 14.63,14.56 4.44,-4.44 -8.63,-8.62 h 45.19 v -6.32 h -45.19 l 8.63,-8.68 -4.44,-4.44 z m 84.84,28.38 c -3.87,0 -6.79,-1.92 -8.74,-5.75 -1.93,-3.8 -2.88,-9.5 -2.88,-17.13 0,-7.59 0.95,-13.28 2.88,-17.06 1.95,-3.8 4.87,-5.69 8.74,-5.69 3.88,0 6.77,1.89 8.69,5.69 1.96,3.78 2.94,9.47 2.94,17.06 0,7.63 -0.98,13.33 -2.94,17.13 -1.92,3.83 -4.81,5.75 -8.69,5.75 z m 0,5.94 c 6.21,0 10.94,-2.47 14.19,-7.38 3.29,-4.92 4.94,-12.06 4.94,-21.44 0,-9.3 -1.65,-16.4 -4.94,-21.31 -3.25,-4.92 -7.98,-7.37 -14.19,-7.37 -6.21,0 -10.97,2.45 -14.24,7.37 -3.3,4.91 -4.94,12.01 -4.94,21.31 0,9.38 1.64,16.52 4.94,21.44 3.27,4.91 8.03,7.38 14.24,7.38"
           style="fill:#000000;fill-opacity:1;fill-rule:nonzero;stroke:none"
           id="path1694" /><path
           d="m 4252.14,5706.6 h 192 v 192 h -192 z"
           style="fill:#b5def5;fill-opacity:1;fill-rule:nonzero;stroke:none"
           id="path1696" /><path
           d="m 4252.14,5706.6 h 192 v 192 h -192 z"
           style="fill:none;stroke:#000000;stroke-width:9.6;stroke-linecap:butt;stroke-linejoin:miter;stroke-miterlimit:4;stroke-dasharray:none;stroke-opacity:1"
           id="path1698" /><path
           d="m 4355.8,5843.72 c 3.62,-0.74 6.43,-2.36 8.43,-4.81 2,-2.42 3,-5.4 3,-8.93 0,-5.5 -1.87,-9.76 -5.62,-12.76 -3.75,-2.96 -9.09,-4.43 -16,-4.43 -2.34,0 -4.73,0.23 -7.19,0.69 -2.46,0.45 -5,1.14 -7.62,2.06 v 7.25 c 2.08,-1.25 4.34,-2.19 6.81,-2.81 2.45,-0.6 5.03,-0.88 7.75,-0.88 4.7,0 8.28,0.91 10.75,2.75 2.45,1.87 3.69,4.58 3.69,8.13 0,3.24 -1.16,5.78 -3.44,7.62 -2.3,1.88 -5.48,2.81 -9.56,2.81 h -6.44 v 6.13 h 6.75 c 3.66,0 6.47,0.72 8.44,2.18 1.95,1.5 2.94,3.63 2.94,6.38 0,2.88 -1.03,5.06 -3.07,6.56 -2,1.53 -4.87,2.32 -8.62,2.32 -2.05,0 -4.25,-0.24 -6.62,-0.69 -2.35,-0.47 -4.93,-1.16 -7.76,-2.07 v 6.69 c 2.88,0.78 5.54,1.38 8,1.75 2.5,0.41 4.85,0.63 7.07,0.63 5.65,0 10.15,-1.31 13.5,-3.94 3.33,-2.59 5,-6.06 5,-10.44 0,-3.09 -0.91,-5.69 -2.69,-7.81 -1.75,-2.09 -4.25,-3.55 -7.5,-4.38"
           style="fill:#000000;fill-opacity:1;fill-rule:nonzero;stroke:none"
           id="path1700" /><path
           d="m 4294.52,5733.16 c -1.93,-4.95 -3.8,-8.18 -5.63,-9.68 -1.84,-1.5 -4.3,-2.25 -7.37,-2.25 h -5.44 v 5.68 h 4 c 1.88,0 3.33,0.47 4.38,1.38 1.03,0.87 2.2,2.98 3.5,6.31 l 1.18,3.12 -16.81,40.88 h 7.25 l 13,-32.5 13,32.5 h 7.19 z m 24.7,26 v 3.38 l 14.63,14.56 4.44,-4.44 -8.63,-8.62 h 45.19 v -6.32 h -45.19 l 8.63,-8.68 -4.44,-4.44 z m 66.91,33.25 h 35.62 v -3.19 l -20.12,-52.18 h -7.81 l 18.87,49.12 h -26.56"
           style="fill:#000000;fill-opacity:1;fill-rule:nonzero;stroke:none"
           id="path1702" /><path
           d="m 4444.14,5706.6 h 192 v 192 h -192 z"
           style="fill:#b5def5;fill-opacity:1;fill-rule:nonzero;stroke:none"
           id="path1704" /><path
           d="m 4444.14,5706.6 h 192 v 192 h -192 z"
           style="fill:none;stroke:#000000;stroke-width:9.6;stroke-linecap:butt;stroke-linejoin:miter;stroke-miterlimit:4;stroke-dasharray:none;stroke-opacity:1"
           id="path1706" /><path
           d="m 4547.8,5843.72 c 3.62,-0.74 6.43,-2.36 8.43,-4.81 2,-2.42 3,-5.4 3,-8.93 0,-5.5 -1.87,-9.76 -5.62,-12.76 -3.75,-2.96 -9.09,-4.43 -16,-4.43 -2.34,0 -4.73,0.23 -7.19,0.69 -2.46,0.45 -5,1.14 -7.62,2.06 v 7.25 c 2.08,-1.25 4.34,-2.19 6.81,-2.81 2.45,-0.6 5.03,-0.88 7.75,-0.88 4.7,0 8.28,0.91 10.75,2.75 2.45,1.87 3.69,4.58 3.69,8.13 0,3.24 -1.16,5.78 -3.44,7.62 -2.3,1.88 -5.48,2.81 -9.56,2.81 h -6.44 v 6.13 h 6.75 c 3.66,0 6.47,0.72 8.44,2.18 1.95,1.5 2.94,3.63 2.94,6.38 0,2.88 -1.03,5.06 -3.07,6.56 -2,1.53 -4.87,2.32 -8.62,2.32 -2.05,0 -4.25,-0.24 -6.62,-0.69 -2.35,-0.47 -4.93,-1.16 -7.76,-2.07 v 6.69 c 2.88,0.78 5.54,1.38 8,1.75 2.5,0.41 4.85,0.63 7.07,0.63 5.65,0 10.15,-1.31 13.5,-3.94 3.33,-2.59 5,-6.06 5,-10.44 0,-3.09 -0.91,-5.69 -2.69,-7.81 -1.75,-2.09 -4.25,-3.55 -7.5,-4.38"
           style="fill:#000000;fill-opacity:1;fill-rule:nonzero;stroke:none"
           id="path1708" /><path
           d="m 4503.77,5778.6 -15,-20.25 15.81,-21.31 h -8.06 l -12.13,16.31 -12.06,-16.31 h -8.06 l 16.12,21.75 -14.75,19.81 h 8.07 l 11,-14.81 11.06,14.81 z m 7.45,-19.44 v 3.38 l 14.63,14.56 4.44,-4.44 -8.63,-8.62 h 45.19 v -6.32 h -45.19 l 8.63,-8.68 -4.44,-4.44 z m 68.84,33.25 h 29.44 v -6.25 h -22.56 v -13.62 c 1.08,0.37 2.15,0.64 3.25,0.81 1.08,0.2 2.19,0.31 3.31,0.31 6.16,0 11.04,-1.71 14.63,-5.12 3.62,-3.38 5.43,-7.97 5.43,-13.75 0,-5.97 -1.85,-10.6 -5.56,-13.88 -3.71,-3.29 -8.94,-4.93 -15.68,-4.93 -2.35,0 -4.73,0.21 -7.13,0.62 -2.37,0.38 -4.86,0.95 -7.44,1.75 v 7.5 c 2.21,-1.22 4.5,-2.11 6.88,-2.69 2.37,-0.59 4.89,-0.87 7.56,-0.87 4.28,0 7.66,1.12 10.13,3.37 2.5,2.25 3.74,5.29 3.74,9.13 0,3.87 -1.24,6.93 -3.74,9.19 -2.47,2.24 -5.85,3.37 -10.13,3.37 -2,0 -4,-0.23 -6,-0.69 -2,-0.42 -4.05,-1.11 -6.13,-2.06"
           style="fill:#000000;fill-opacity:1;fill-rule:nonzero;stroke:none"
           id="path1710" /><path
           d="m 3292.14,5578.6 v 64 -64"
           style="fill:none;stroke:#000000;stroke-width:9.6;stroke-linecap:butt;stroke-linejoin:miter;stroke-miterlimit:4;stroke-dasharray:none;stroke-opacity:1"
           id="path1712" /><path
           d="m 4636.14,5578.6 v 64 -64"
           style="fill:none;stroke:#000000;stroke-width:9.6;stroke-linecap:butt;stroke-linejoin:miter;stroke-miterlimit:4;stroke-dasharray:none;stroke-opacity:1"
           id="path1714" /><path
           d="m 3292.14,5610.6 h 1344"
           style="fill:none;stroke:#000000;stroke-width:3.2;stroke-linecap:butt;stroke-linejoin:miter;stroke-miterlimit:4;stroke-dasharray:none;stroke-opacity:1"
           id="path1716" /><path
           d="m 3326.35,5596.4 -38.46,14.14 38.46,14.14 c -6.14,-8.34 -6.12,-19.77 0,-28.28"
           style="fill:#000000;fill-opacity:1;fill-rule:evenodd;stroke:none"
           id="path1718" /><path
           d="m 4601.92,5624.79 38.47,-14.14 -38.47,-14.14 c 6.14,8.34 6.12,19.78 0,28.28"
           style="fill:#000000;fill-opacity:1;fill-rule:evenodd;stroke:none"
           id="path1720" /><path
           d="m 3647.49,5561.43 v -6.38 c -1.93,1.08 -3.86,1.88 -5.81,2.38 -1.93,0.53 -3.88,0.81 -5.88,0.81 -4.42,0 -7.86,-1.4 -10.31,-4.19 -2.47,-2.79 -3.69,-6.73 -3.69,-11.81 0,-5.09 1.22,-9.05 3.69,-11.88 2.45,-2.79 5.89,-4.18 10.31,-4.18 2,0 3.95,0.27 5.88,0.81 1.95,0.53 3.88,1.33 5.81,2.37 v -6.24 c -1.93,-0.93 -3.91,-1.6 -5.94,-2 -2.05,-0.46 -4.22,-0.69 -6.5,-0.69 -6.25,0 -11.23,1.95 -14.94,5.87 -3.67,3.96 -5.5,9.27 -5.5,15.94 0,6.78 1.85,12.12 5.57,16 3.74,3.88 8.84,5.81 15.31,5.81 2.12,0 4.19,-0.23 6.19,-0.69 2,-0.41 3.93,-1.06 5.81,-1.93 z m 28.48,-3.19 c -3.67,0 -6.56,-1.44 -8.68,-4.31 -2.13,-2.84 -3.2,-6.74 -3.2,-11.69 0,-4.97 1.07,-8.88 3.2,-11.75 2.12,-2.87 5.01,-4.31 8.68,-4.31 3.66,0 6.57,1.44 8.69,4.31 2.13,2.87 3.19,6.78 3.19,11.75 0,4.91 -1.06,8.81 -3.19,11.69 -2.12,2.87 -5.03,4.31 -8.69,4.31 z m 0,5.81 c 5.95,0 10.62,-1.93 14,-5.81 3.38,-3.84 5.07,-9.17 5.07,-16 0,-6.79 -1.69,-12.12 -5.07,-16 -3.38,-3.88 -8.05,-5.81 -14,-5.81 -5.97,0 -10.62,1.93 -14,5.81 -3.38,3.88 -5.06,9.21 -5.06,16 0,6.83 1.68,12.16 5.06,16 3.38,3.88 8.03,5.81 14,5.81 z m 63.21,-9 c 1.7,3.08 3.74,5.35 6.12,6.81 2.38,1.46 5.19,2.19 8.43,2.19 4.29,0 7.6,-1.53 9.95,-4.56 2.37,-3 3.55,-7.31 3.55,-12.94 v -25.06 h -6.87 v 24.87 c 0,3.96 -0.72,6.9 -2.13,8.82 -1.37,1.95 -3.52,2.94 -6.43,2.94 -3.55,0 -6.34,-1.19 -8.38,-3.57 -2.04,-2.34 -3.06,-5.53 -3.06,-9.56 v -23.5 h -6.87 v 24.87 c 0,4 -0.72,6.96 -2.13,8.88 -1.42,1.91 -3.59,2.88 -6.5,2.88 -3.5,0 -6.3,-1.19 -8.37,-3.57 -2.05,-2.34 -3.07,-5.53 -3.07,-9.56 v -23.5 h -6.87 v 41.56 h 6.87 v -6.43 c 1.58,2.53 3.46,4.4 5.63,5.62 2.16,1.21 4.75,1.81 7.75,1.81 3,0 5.56,-0.78 7.69,-2.31 2.12,-1.55 3.69,-3.78 4.69,-6.69 z m 74.84,0 c 1.7,3.08 3.75,5.35 6.12,6.81 2.38,1.46 5.19,2.19 8.44,2.19 4.28,0 7.6,-1.53 9.94,-4.56 2.37,-3 3.56,-7.31 3.56,-12.94 v -25.06 h -6.87 v 24.87 c 0,3.96 -0.72,6.9 -2.13,8.82 -1.37,1.95 -3.53,2.94 -6.44,2.94 -3.55,0 -6.34,-1.19 -8.37,-3.57 -2.05,-2.34 -3.06,-5.53 -3.06,-9.56 v -23.5 h -6.88 v 24.87 c 0,4 -0.72,6.96 -2.12,8.88 -1.42,1.91 -3.6,2.88 -6.5,2.88 -3.5,0 -6.3,-1.19 -8.38,-3.57 -2.04,-2.34 -3.06,-5.53 -3.06,-9.56 v -23.5 h -6.88 v 41.56 h 6.88 v -6.43 c 1.58,2.53 3.45,4.4 5.62,5.62 2.16,1.21 4.75,1.81 7.75,1.81 3,0 5.57,-0.78 7.69,-2.31 2.13,-1.55 3.69,-3.78 4.69,-6.69 z m 42.53,8 h 6.81 v -41.56 h -6.81 z m 0,16.19 h 6.81 v -8.62 h -6.81 z m 28.06,-4.38 v -11.81 h 14.07 v -5.31 h -14.07 v -22.56 c 0,-3.38 0.45,-5.56 1.38,-6.56 0.9,-0.97 2.78,-1.44 5.62,-1.44 h 7.07 v -5.69 h -7.07 c -5.25,0 -8.88,0.97 -10.88,2.94 -2,1.95 -3,5.53 -3,10.75 v 22.56 h -5 v 5.31 h 5 v 11.81 z m 30.14,0 v -11.81 h 14.07 v -5.31 h -14.07 v -22.56 c 0,-3.38 0.46,-5.56 1.38,-6.56 0.91,-0.97 2.78,-1.44 5.62,-1.44 h 7.07 v -5.69 h -7.07 c -5.25,0 -8.87,0.97 -10.87,2.94 -2,1.95 -3,5.53 -3,10.75 v 22.56 h -5 v 5.31 h 5 v 11.81 z m 58.91,-30.87 v -3.37 h -31.37 c 0.27,-4.67 1.7,-8.26 4.25,-10.76 2.52,-2.46 6.07,-3.68 10.62,-3.68 2.63,0 5.16,0.31 7.63,0.94 2.44,0.65 4.89,1.64 7.3,2.93 v -6.43 c -2.46,-1.05 -4.98,-1.85 -7.55,-2.38 -2.55,-0.53 -5.16,-0.81 -7.82,-0.81 -6.63,0 -11.87,1.91 -15.75,5.75 -3.88,3.87 -5.81,9.09 -5.81,15.68 0,6.79 1.83,12.19 5.5,16.19 3.66,4 8.63,6 14.88,6 5.57,0 10,-1.81 13.25,-5.43 3.25,-3.6 4.87,-8.47 4.87,-14.63 z m -6.81,2 c -0.05,3.75 -1.1,6.72 -3.13,8.94 -2.04,2.2 -4.75,3.31 -8.13,3.31 -3.79,0 -6.84,-1.09 -9.12,-3.25 -2.29,-2.13 -3.61,-5.15 -3.93,-9.06 z m 45.87,10.75 v 22.5 h 6.82 v -57.75 h -6.82 v 6.25 c -1.42,-2.5 -3.23,-4.36 -5.43,-5.56 -2.18,-1.16 -4.8,-1.75 -7.88,-1.75 -5,0 -9.09,2 -12.25,6 -3.17,4 -4.75,9.26 -4.75,15.81 0,6.53 1.58,11.81 4.75,15.81 3.16,4 7.25,6 12.25,6 3.08,0 5.7,-0.6 7.88,-1.81 2.2,-1.22 4.01,-3.05 5.43,-5.5 z m -23.25,-14.5 c 0,-5.05 1.02,-9 3.07,-11.88 2.07,-2.84 4.93,-4.24 8.55,-4.24 3.59,0 6.41,1.4 8.5,4.24 2.09,2.88 3.13,6.83 3.13,11.88 0,5 -1.04,8.94 -3.13,11.81 -2.09,2.88 -4.91,4.31 -8.5,4.31 -3.62,0 -6.48,-1.43 -8.55,-4.31 -2.05,-2.87 -3.07,-6.81 -3.07,-11.81 z m 104.64,1.75 v -3.37 h -31.38 c 0.29,-4.67 1.71,-8.26 4.26,-10.76 2.53,-2.46 6.07,-3.68 10.62,-3.68 2.62,0 5.16,0.31 7.62,0.94 2.46,0.65 4.9,1.64 7.32,2.93 v -6.43 c -2.47,-1.05 -4.99,-1.85 -7.56,-2.38 -2.55,-0.53 -5.16,-0.81 -7.81,-0.81 -6.63,0 -11.88,1.91 -15.76,5.75 -3.87,3.87 -5.81,9.09 -5.81,15.68 0,6.79 1.83,12.19 5.5,16.19 3.66,4 8.62,6 14.88,6 5.57,0 10,-1.81 13.24,-5.43 3.26,-3.6 4.88,-8.47 4.88,-14.63 z m -6.81,2 c -0.05,3.75 -1.09,6.72 -3.12,8.94 -2.05,2.2 -4.76,3.31 -8.13,3.31 -3.8,0 -6.84,-1.09 -9.13,-3.25 -2.29,-2.13 -3.6,-5.15 -3.93,-9.06 z m 53.06,0.56 v -25.06 h -6.81 v 24.87 c 0,3.91 -0.78,6.85 -2.32,8.82 -1.5,1.95 -3.79,2.94 -6.87,2.94 -3.72,0 -6.63,-1.19 -8.75,-3.57 -2.12,-2.34 -3.19,-5.53 -3.19,-9.56 v -23.5 h -6.87 v 41.56 h 6.87 v -6.43 c 1.63,2.5 3.54,4.34 5.76,5.56 2.24,1.25 4.81,1.87 7.68,1.87 4.78,0 8.39,-1.48 10.82,-4.43 2.45,-2.97 3.68,-7.32 3.68,-13.07 z m 21,28.31 v -11.81 h 14.06 v -5.31 h -14.06 v -22.56 c 0,-3.38 0.46,-5.56 1.37,-6.56 0.91,-0.97 2.79,-1.44 5.63,-1.44 h 7.06 v -5.69 h -7.06 c -5.25,0 -8.87,0.97 -10.87,2.94 -2,1.95 -3,5.53 -3,10.75 v 22.56 h -5 v 5.31 h 5 v 11.81 z m 47.46,-18.18 c -0.76,0.45 -1.6,0.78 -2.5,1 -0.93,0.2 -1.93,0.31 -3,0.31 -3.88,0 -6.86,-1.28 -8.94,-3.81 -2.05,-2.5 -3.06,-6.11 -3.06,-10.82 v -21.87 h -6.88 v 41.56 h 6.88 v -6.43 c 1.45,2.5 3.32,4.34 5.62,5.56 2.28,1.25 5.08,1.87 8.38,1.87 0.45,0 0.97,-0.04 1.56,-0.12 0.58,-0.05 1.2,-0.13 1.87,-0.25 z m 7.59,6.37 h 6.81 v -41.56 h -6.81 z m 0,16.19 h 6.81 v -8.62 h -6.81 z m 56.8,-35.25 v -3.37 h -31.38 c 0.28,-4.67 1.71,-8.26 4.25,-10.76 2.53,-2.46 6.08,-3.68 10.63,-3.68 2.62,0 5.15,0.31 7.62,0.94 2.46,0.65 4.89,1.64 7.31,2.93 v -6.43 c -2.46,-1.05 -4.98,-1.85 -7.56,-2.38 -2.54,-0.53 -5.16,-0.81 -7.81,-0.81 -6.63,0 -11.88,1.91 -15.75,5.75 -3.88,3.87 -5.81,9.09 -5.81,15.68 0,6.79 1.83,12.19 5.5,16.19 3.65,4 8.62,6 14.87,6 5.58,0 10,-1.81 13.25,-5.43 3.25,-3.6 4.88,-8.47 4.88,-14.63 z m -6.82,2 c -0.04,3.75 -1.09,6.72 -3.12,8.94 -2.05,2.2 -4.75,3.31 -8.13,3.31 -3.79,0 -6.84,-1.09 -9.12,-3.25 -2.3,-2.13 -3.61,-5.15 -3.94,-9.06 z m 45.07,15.81 v -6.44 c -1.97,1 -3.99,1.76 -6.07,2.26 -2.09,0.5 -4.23,0.74 -6.43,0.74 -3.38,0 -5.92,-0.52 -7.63,-1.56 -1.72,-1.04 -2.56,-2.61 -2.56,-4.68 0,-1.6 0.59,-2.85 1.81,-3.76 1.25,-0.87 3.69,-1.73 7.31,-2.56 l 2.38,-0.5 c 4.82,-1.04 8.27,-2.53 10.31,-4.44 2.03,-1.87 3.06,-4.52 3.06,-7.93 0,-3.84 -1.53,-6.88 -4.56,-9.13 -3.04,-2.25 -7.25,-3.37 -12.62,-3.37 -2.23,0 -4.54,0.23 -6.94,0.69 -2.43,0.4 -4.97,1.03 -7.63,1.87 v 7.06 c 2.5,-1.29 4.97,-2.28 7.44,-2.93 2.46,-0.67 4.89,-1 7.31,-1 3.21,0 5.66,0.53 7.38,1.62 1.75,1.12 2.62,2.69 2.62,4.69 0,1.87 -0.62,3.28 -1.87,4.25 -1.25,1 -4,1.95 -8.25,2.87 l -2.38,0.57 c -4.22,0.87 -7.25,2.22 -9.12,4.06 -1.88,1.87 -2.81,4.41 -2.81,7.62 0,3.91 1.37,6.94 4.12,9.06 2.78,2.13 6.72,3.19 11.81,3.19 2.54,0 4.91,-0.19 7.13,-0.56 2.2,-0.37 4.27,-0.94 6.19,-1.69"
           style="fill:#000000;fill-opacity:1;fill-rule:nonzero;stroke:none"
           id="path1722" /><path
           d="m 4636.14,6218.6 h 192 v 192 h -192 z"
           style="fill:#b5def5;fill-opacity:1;fill-rule:nonzero;stroke:none"
           id="path1724" /><path
           d="m 4636.14,6218.6 h 192 v 192 h -192 z"
           style="fill:none;stroke:#000000;stroke-width:9.6;stroke-linecap:butt;stroke-linejoin:miter;stroke-miterlimit:4;stroke-dasharray:none;stroke-opacity:1"
           id="path1726" /><path
           d="m 4739.8,6355.72 c 3.62,-0.74 6.43,-2.36 8.43,-4.81 2,-2.42 3,-5.4 3,-8.93 0,-5.5 -1.87,-9.76 -5.62,-12.76 -3.75,-2.96 -9.09,-4.43 -16,-4.43 -2.34,0 -4.73,0.23 -7.19,0.69 -2.46,0.45 -5,1.14 -7.62,2.06 v 7.25 c 2.08,-1.25 4.34,-2.19 6.81,-2.81 2.45,-0.6 5.03,-0.88 7.75,-0.88 4.7,0 8.28,0.91 10.75,2.75 2.45,1.87 3.69,4.58 3.69,8.13 0,3.24 -1.16,5.78 -3.44,7.62 -2.3,1.88 -5.48,2.81 -9.56,2.81 h -6.44 v 6.13 h 6.75 c 3.66,0 6.47,0.72 8.44,2.18 1.95,1.5 2.94,3.63 2.94,6.38 0,2.88 -1.03,5.06 -3.07,6.56 -2,1.53 -4.87,2.32 -8.62,2.32 -2.05,0 -4.25,-0.24 -6.62,-0.69 -2.35,-0.47 -4.93,-1.16 -7.76,-2.07 v 6.69 c 2.88,0.78 5.54,1.38 8,1.75 2.5,0.41 4.85,0.63 7.07,0.63 5.65,0 10.15,-1.31 13.5,-3.94 3.33,-2.59 5,-6.06 5,-10.44 0,-3.09 -0.91,-5.69 -2.69,-7.81 -1.75,-2.09 -4.25,-3.55 -7.5,-4.38"
           style="fill:#000000;fill-opacity:1;fill-rule:nonzero;stroke:none"
           id="path1728" /><path
           d="m 4695.77,6290.6 -15,-20.25 15.81,-21.31 h -8.06 l -12.13,16.31 -12.06,-16.31 h -8.06 l 16.12,21.75 -14.75,19.81 h 8.07 l 11,-14.81 11.06,14.81 z m 7.45,-19.44 v 3.38 l 14.63,14.56 4.44,-4.44 -8.63,-8.62 h 45.19 v -6.32 h -45.19 l 8.63,-8.68 -4.44,-4.44 z m 89.41,26.75 -18.94,-29.56 h 18.94 z m -2,6.5 h 9.43 v -36.06 h 7.88 v -6.25 h -7.88 v -13.06 h -7.43 v 13.06 h -25.07 v 7.25"
           style="fill:#000000;fill-opacity:1;fill-rule:nonzero;stroke:none"
           id="path1730" /></g></g></g></svg>
